<svg xmlns="http://www.w3.org/2000/svg" width="152" height="78"><path fill="#fff" d="M134.202 77.743l-.408-.501-.048-.002a18.905 18.905 0 01-2.917-.297 23.57 23.57 0 01-11.567-6.343c-.74-.762-1.547-1.681-2.472-2.81-6.348-7.812-10.771-25.99-2.34-51.51l.043-.135-1.383-.021-.431.002c-6.878 0-13.33 2.633-18.171 7.414-5.362 4.945-9.286 11.304-11.777 16.147l-1.524.245c.502-3.25.93-7.206.93-11.004 0-4.716-.662-9.176-2.669-11.706-1.855-2.333-4.952-2.721-8.96-1.123-8.52 3.885-17.568 13.53-24.29 25.837a37.39 37.39 0 00.3-4.777c0-12.39-6.14-23.985-16.43-31.02C21.298.542 14.93.702 14.869.704l-.16.006.297.616.056.006c1.14.132 11.343 1.622 18.187 12.894 3.22 5.351 4.855 12.427 4.855 21.034-.034 10.197-2.366 22.893-6.567 35.75l-1.181 3.553h9.29l1.068-3.49c3.885-12.87 10.242-31.423 20.555-43.904 3.648-4.414 9.116-8.872 11.44-8.471.469.08.873.383 1.197.896 2.492 3.954.425 20.392-5.137 42.135h8.917a114.902 114.902 0 012.679-7.866c1.793-4.698 6.82-15.392 13.023-22.246 5.562-6.147 9.231-7.603 10.006-7.858-.299 1.225-2.1 9.007-2.1 18.083 0 5.346.626 11.139 2.556 16.29 1.064 2.839 2.724 6.545 6.116 10.018 5.773 6.14 13.605 9.633 22.047 9.832l2.331-.075z"/><path fill="#5f255f" d="M98.381 38.594v11.563c0 2.092.682 3.978 3.949 3.978 3.995 0 5.312-3.304 5.312-6.25v-9.291h4.584v17.545h-4.144l-.099-3.233c-1.411 2.38-4.093 3.587-7.261 3.587-3.951 0-6.923-2.17-6.923-5.717V38.594zm-28.117-.038c-.915-.204-1.568-.328-2.539-.318-1.407.018-4.39.793-6.194 4.913l.05-4.557h-4.193v17.545h4.585v-7.553c0-5.038 2-7.14 5.72-6.935 2.626.146 2.445-2.135 2.571-3.095zm61.183 0c-.917-.204-1.57-.328-2.54-.318-1.408.018-4.391.793-6.194 4.913l.052-4.557h-4.195v17.545h4.584v-7.553c0-5.038 2.003-7.14 5.722-6.935 2.626.146 2.446-2.135 2.57-3.095zm-54.476 8.739c0-5.365 3.667-7.068 6.84-7.068.926 0 1.874.189 2.717.368.981.214 2.033-.227 2.723-1.325a.507.507 0 01.034-.046c-2.914-.984-5.181-.986-5.92-.986-5.058 0-11.502 2.45-11.502 9.235.063 5.618 5.01 9.02 10.725 9.02 2.803 0 5.463-.686 8.105-1.98-.864-1.22-2.255-1.29-3.176-.901-1.083.412-2.332.892-4.15.892-2.44 0-6.37-1.218-6.398-7.209zm-63.465 8.538h1.04c.15-.298 7.996-15.72 7.996-15.72l-.01 15.996h4.488v-21.6l-5.437.003-8.077 15.031-8.078-15.031-5.435-.003v21.6H4.48l-.01-15.996 7.997 15.72zm29.442-15.818c2.729 0 4.339 1.456 4.339 4.827h-9.555c.437-3.192 2.583-4.827 5.216-4.827zm8.92 6.69v-.973c0-2.414-1.123-7.494-8.774-7.494-6.924 0-10.53 4.653-10.53 9.128 0 5.68 4.972 9.127 10.723 9.127 2.532 0 5.29-.59 8.107-1.983a2.616 2.616 0 00-2.132-1.11 3.05 3.05 0 00-.921.17c-1.449.524-2.495.933-4.24.933-2.535 0-6.81-1.312-6.517-7.799zm91.22-6.69c2.73 0 4.339 1.456 4.339 4.827h-9.553c.437-3.192 2.582-4.827 5.214-4.827zm8.92 6.69v-.973c0-2.414-1.12-7.494-8.773-7.494-6.923 0-10.529 4.653-10.529 9.128 0 5.68 4.971 9.127 10.722 9.127 2.533 0 5.288-.59 8.105-1.983a2.608 2.608 0 00-2.131-1.11 3.06 3.06 0 00-.921.17c-1.448.524-2.494.933-4.237.933-2.537 0-6.813-1.312-6.52-7.799zM55.993 66.891c.079 0 .135.068.135.147v7.356a.13.13 0 01-.135.134h-.975c-.079 0-.146-.055-.146-.134v-3.14h-4.027v3.14a.135.135 0 01-.134.134h-.987a.136.136 0 01-.134-.134v-7.356c0-.079.067-.147.134-.147h.987c.068 0 .134.068.134.147v3.095h4.027v-3.095c0-.079.067-.147.146-.147zm10.408 3.836c0 1.536-1.167 2.748-2.703 2.748-1.537 0-2.715-1.212-2.715-2.748 0-1.537 1.178-2.758 2.715-2.758 1.536 0 2.703 1.221 2.703 2.758zm1.334 0c0-2.277-1.85-3.937-4.037-3.937-2.198 0-4.038 1.66-4.038 3.937 0 2.265 1.84 3.914 4.038 3.914 2.186 0 4.037-1.637 4.037-3.914zm8.759-3.836c.079 0 .134.068.134.147v.83a.13.13 0 01-.134.134H74.07v6.392c0 .079-.067.134-.146.134h-.976a.129.129 0 01-.134-.134v-6.392H70.38a.13.13 0 01-.134-.135v-.829c0-.079.056-.147.134-.147zm8.713 0c.079 0 .134.068.134.147v.83a.13.13 0 01-.134.134H80.99v2.143h3.634c.078 0 .134.055.134.134v.84a.136.136 0 01-.134.135H80.99v2.165h4.217c.079 0 .134.067.134.134v.841a.129.129 0 01-.134.134h-5.339a.136.136 0 01-.134-.134v-7.356c0-.079.068-.147.134-.147zm4.71 0c.067 0 .135.068.135.147v6.38h3.577c.078 0 .134.068.134.136v.84a.13.13 0 01-.134.134h-4.7a.136.136 0 01-.133-.134v-7.356c0-.079.066-.147.134-.147zm6.829 7.033c-.078-.046-.1-.112-.056-.191l.392-.83c.035-.068.09-.101.18-.045.494.303 1.166.707 2.12.707.47 0 .83-.112 1.066-.292.29-.213.414-.527.414-.863 0-.516-.414-.808-.964-1.021-.64-.258-1.39-.381-2.109-.785-.617-.348-1.054-.83-1.054-1.694 0-.628.247-1.165.73-1.536.47-.37 1.166-.584 2.085-.584 1.042 0 1.828.281 2.333.56.079.046.09.113.056.192l-.393.819c-.044.079-.112.1-.19.056-.54-.314-1.2-.538-1.873-.538-.505 0-.876.112-1.1.303a.817.817 0 00-.325.672c0 .494.416.752 1.044.965.717.258 1.524.381 2.186.807.516.326.943.852.943 1.683 0 .75-.314 1.334-.83 1.738-.493.392-1.2.594-2.009.594-1.21 0-2.085-.37-2.646-.717z"/></svg>