<svg xmlns="http://www.w3.org/2000/svg" width="128" height="20"><path fill="#fff" d="M8.046 8.728c0 .273-.136.682 0 .955-.136.272-.273.545-.41.682-.135.136-.408.272-.68.409-.274.136-.546.136-.956.136h-.954V4.637h.818c.955 0 1.5.273 1.773.682.273.409.41 1.227.41 2.318v1.091zm-1.773 6.273c2.455 0 4.228-.545 5.319-1.909 1.09-1.227 1.636-3.137 1.636-5.591 0-2.455-.545-4.228-1.636-5.319-1.228-1.09-3-1.636-5.455-1.636H0V15h6.273zm7.774 0V4.091h4.91v10.91zm0-11.592V.136h4.91V3.41zm10.364 4.364c0-.409.137-.545.273-.545.136-.136.409-.136.682-.136.273 0 .545 0 .682.136.136 0 .136.273.136.545 0 .273 0 .41-.136.546-.137.136-.41.136-.682.136-.273 0-.546 0-.682-.136s-.273-.273-.273-.546zm1.228 8.047c.545 0 .954 0 1.363-.137.137 0 .273.137.273.273 0 .273-.545.41-1.636.41-1.228 0-1.773-.137-1.773-.274 0-.136 0-.272.136-.409l1.637.137zm.272 3.955c1.773 0 3.137-.273 3.819-.955.954-.682 1.5-1.773 1.5-3.137s-.41-2.182-.955-2.727c-.545-.546-1.636-.819-3.136-.819-1.91 0-2.864-.136-2.864-.272 0-.137.136-.137.136-.273h.818c1.91 0 3.273-.273 4.092-.818.818-.546 1.227-1.637 1.227-3.137 0-.273 0-.545-.136-.955h.954V3.82h-4.364c-.272 0-.545-.137-.954-.137h-.955c-1.91 0-3.273.273-4.091.818-.818.546-1.228 1.637-1.228 3 0 1.637.546 2.728 1.773 3.274l-.272.272c-.273.137-.41.41-.682.682-.137.273-.273.546-.273.682 0 .682.273 1.228.818 1.637-.545.409-.954.818-1.09 1.227-.137.41-.274.818-.274 1.364 0 .682.137 1.227.41 1.636.409.41.818.819 1.363.955.682.136 1.228.273 1.91.41.681.136 1.5.136 2.454.136zm6.41-4.774V4.091h4.91v10.91zm0-11.592V.136h4.91V3.41zM43.64 8.046v2.319c0 .409 0 .545.137.681.136.137.272.137.545.137h.955V15c-1.228.273-2.182.41-2.864.41-1.364 0-2.319-.273-2.864-.819-.546-.545-.818-1.636-.818-3.136v-3.41h-.682V4.091h.818V1.91h4.91v2.182h1.772v3.955zm8.592 3.41l-.137.136s-.136.136-.272.136c-.137.137-.273.137-.41.137-.272 0-.409-.137-.409-.41 0-.272.137-.545.546-.545h.682zm4.773-3.819c0-.818-.136-1.364-.273-1.636-.273-.546-.545-.955-1.09-1.228-.546-.273-1.092-.409-1.637-.545-.546-.137-1.364-.137-2.182-.137-1.5 0-3.273.273-5.183.819l.137 3.273h.682c.545 0 1.09-.137 1.909-.137h2.046c.681 0 .954.137.954.41v.136h-1.5c-1.636 0-2.864.272-3.546.682-.682.409-1.09 1.227-1.09 2.59 0 1.364.272 2.32.954 2.865.682.545 1.636.818 3 .818 1.228 0 2.182-.273 3.137-.818l.136.136c.137.136.273.273.682.41.273.136.818.136 1.227.136.273 0 1.091-.137 2.182-.273V12c-.272-.136-.409-.136-.545-.273v-4.09zm1.5 7.364V0h4.91v15.001zm17.593-4.909V6.546h5.318v8.046c-2.59.41-4.5.682-5.591.682-1.364 0-2.455-.136-3.41-.409-.954-.273-1.636-.682-2.045-1.364-.546-.682-.818-1.364-1.091-2.318a21.47 21.47 0 01-.273-3.41c0-2.727.546-4.773 1.5-5.864C71.597.82 73.234.273 75.825.273c.682 0 1.5 0 2.455.136a21.4 21.4 0 012.182.41l.818.136v3.818c-2.046-.136-3.819-.273-5.046-.273-.41 0-.818 0-1.091.137-.273.136-.546.136-.682.273-.136.136-.273.272-.409.681-.136.273-.136.682-.136.955V7.91c0 1.227.136 2.045.409 2.591.272.546.818.818 1.636.818h.682v-1.09h-.545zM87.28 7.5c.137-.136.41-.272.682-.272.273 0 .546-.136.682.136.137.273.137.546.137.955h-1.637c0-.41 0-.682.136-.818zm.955 4.228c-.682 0-1.091-.272-1.091-.682h6.137l.273-2.182c0-1.772-.41-3-1.364-3.818-.955-.818-2.318-1.227-4.228-1.227-2.045 0-3.41.545-4.364 1.5-.954 1.09-1.364 2.59-1.364 4.5 0 1.91.41 3.41 1.228 4.228.955.954 2.318 1.364 4.364 1.364 1.773 0 3.682-.273 5.591-.682l-.136-3.137h-.818c-.546.136-1.228.136-2.046.136h-2.182zm10.91-3.409c0-.41 0-.682.136-.955.137-.136.41-.272.682-.272.41 0 .546.136.682.272.137.273.137.546.137.955zm.955 3.41c-.682 0-.955-.273-1.228-.683h6.274l.272-2.182c0-1.772-.409-3-1.363-3.818-.955-.818-2.319-1.227-4.228-1.227-2.046 0-3.41.545-4.364 1.5-.955 1.09-1.364 2.59-1.364 4.5 0 1.91.41 3.41 1.228 4.228.954.954 2.318 1.364 4.364 1.364 1.772 0 3.682-.273 5.591-.682l-.136-3.137h-.819c-.545.136-1.227.136-2.045.136H100.1zm11.183 3.272h-4.91V0h4.91v7.5h.681l.955-3.545h4.773l-1.5 5.319 1.637 5.591h-4.774l-.954-3.137h-.682v3.273zm16.501-10.637l-.136 3.41c-1.773-.137-3.137-.273-3.955-.273-.41 0-.682 0-.682.136s.409.136 1.364.273c1.363.136 2.318.545 2.727.954.546.546.818 1.364.818 2.592 0 1.363-.409 2.318-1.227 2.864-.818.545-2.046.954-3.682.954-.955 0-1.773 0-2.591-.136-.819-.137-1.364-.137-1.773-.273l-.546-.136.137-3.273c1.773.272 3.136.409 4.091.409.545 0 .682 0 .682-.137 0-.136-.546-.136-1.637-.272-1.227-.137-2.045-.546-2.59-1.091-.546-.546-.82-1.364-.82-2.455 0-1.5.41-2.455 1.228-3.137.819-.545 2.046-.954 3.546-.954.818 0 1.637 0 2.455.136.818.136 1.364.136 1.773.273z"/></svg>