<svg xmlns="http://www.w3.org/2000/svg" width="234" height="58"><path fill="#707070" d="M229.592 47.48c-1.467.017-2.55 1.15-2.55 2.683 0 1.517 1.083 2.65 2.533 2.65s2.55-1.15 2.55-2.65c0-1.532-1.1-2.666-2.533-2.682zm-.017 6.95c-2.416-.017-4.316-1.9-4.316-4.283 0-2.4 1.9-4.266 4.316-4.266 2.433 0 4.349 1.883 4.349 4.266s-1.916 4.282-4.349 4.282zm-7.795 0a.864.864 0 01-.866-.883v-2.834h-3.649v2.834c0 .5-.367.882-.867.882a.858.858 0 01-.883-.882V46.78c0-.517.367-.9.883-.9.484 0 .867.383.867.9v2.416h3.649V46.78c0-.517.367-.9.866-.9.5 0 .884.383.884.9v6.766c0 .5-.384.882-.884.882zm-9.56-5.616a.745.745 0 01-.617-.284c-.484-.6-1.15-1.033-2.05-1.033-1.466 0-2.566 1.134-2.566 2.65 0 1.55 1.083 2.666 2.567 2.666.9 0 1.549-.434 2.049-1.016a.718.718 0 01.616-.284c.434 0 .783.35.783.784 0 .15-.033.283-.15.45-.682 1.016-1.849 1.682-3.315 1.682-2.432 0-4.333-1.882-4.333-4.282 0-2.383 1.9-4.266 4.333-4.266 1.433 0 2.666.683 3.3 1.666.132.2.165.334.165.467 0 .45-.35.8-.783.8zm-12.844-1.45c-1.183 0-2.083.8-2.349 2h4.448c-.033-1.183-.867-2-2.099-2zm2.85 3.365h-5.232c.232 1.318 1.216 2.15 2.666 2.15a3.15 3.15 0 001.915-.632c.15-.1.3-.167.45-.167a.72.72 0 01.734.733c0 .3-.117.5-.434.734-.783.583-1.7.882-2.716.882-2.532 0-4.398-1.816-4.398-4.266 0-2.416 1.832-4.282 4.215-4.282 2.183 0 3.8 1.6 3.8 3.8v.082c0 .601-.384.966-1 .966zm-13.31-3.248c-1.467 0-2.467 1.083-2.467 2.666 0 1.6.984 2.683 2.467 2.683 1.449 0 2.499-1.134 2.499-2.667 0-1.55-1.05-2.682-2.5-2.682zm.283 6.948c-1.15 0-2.116-.449-2.733-1.183v3.3c0 .517-.366.9-.867.9-.5 0-.882-.383-.882-.9v-9.798c0-.501.367-.884.882-.884.485 0 .85.383.85.884v.333c.6-.75 1.584-1.2 2.75-1.2 2.316 0 4.015 1.816 4.015 4.266 0 2.466-1.699 4.282-4.015 4.282zm-10.91-7.065c-1.184 0-2.083.8-2.35 2h4.449c-.034-1.183-.867-2-2.1-2zm2.849 3.365h-5.232c.233 1.318 1.216 2.15 2.666 2.15.7 0 1.366-.216 1.916-.632.15-.1.3-.167.45-.167.417 0 .733.317.733.733 0 .3-.117.5-.433.734-.783.583-1.7.882-2.717.882-2.532 0-4.398-1.816-4.398-4.266 0-2.416 1.832-4.282 4.215-4.282 2.183 0 3.8 1.6 3.8 3.8v.082c0 .601-.385.966-1 .966zm-9.18-3.149h-2.082v5.95c0 .516-.366.9-.866.9-.484 0-.867-.384-.867-.9v-5.95h-2.082a.754.754 0 01-.766-.766c0-.433.333-.75.766-.75h5.898c.45 0 .767.317.767.75a.745.745 0 01-.767.766zm-9.56 6.85a.864.864 0 01-.866-.883v-2.834h-3.65v2.834c0 .5-.365.882-.865.882a.858.858 0 01-.884-.882V46.78c0-.517.367-.9.884-.9.482 0 .866.383.866.9v2.416h3.649V46.78c0-.517.367-.9.867-.9s.883.383.883.9v6.766c0 .5-.384.882-.883.882zm-10.36 0c-.5 0-.867-.384-.867-.9v-4.533l-3.915 4.983c-.267.317-.517.45-.801.45-.5 0-.865-.384-.865-.9v-6.75c0-.516.365-.9.882-.9.483 0 .867.384.867.9v4.65l3.916-5.082c.25-.334.483-.467.8-.467.483 0 .866.383.866.9v6.748c0 .517-.383.9-.884.9zm-16.59-6.85h-1.834c-1 0-1.616.534-1.616 1.384 0 .85.633 1.4 1.616 1.4h1.833zm.882 6.85c-.5 0-.883-.384-.883-.9v-1.65h-2.25l-1.9 2.233a.803.803 0 01-.666.316.86.86 0 01-.866-.866c0-.25.117-.45.283-.617l1.417-1.582c-.8-.5-1.266-1.334-1.266-2.384 0-1.75 1.316-2.916 3.282-2.916h2.832c.5 0 .9.4.9.9v6.565c0 .517-.367.9-.883.9zm-9.011-5.616a.744.744 0 01-.617-.284c-.483-.6-1.15-1.033-2.049-1.033-1.466 0-2.566 1.134-2.566 2.65 0 1.55 1.082 2.666 2.566 2.666.899 0 1.55-.434 2.049-1.016a.716.716 0 01.617-.284c.433 0 .783.35.783.784 0 .15-.033.283-.15.45-.683 1.016-1.85 1.682-3.316 1.682-2.433 0-4.332-1.882-4.332-4.282 0-2.383 1.9-4.266 4.332-4.266 1.433 0 2.665.683 3.299 1.666.134.2.167.334.167.467 0 .45-.35.8-.783.8zm-12.478 1.133h-1.832v2.783h1.832c1 0 1.617-.517 1.617-1.366 0-.85-.633-1.417-1.617-1.417zm.134 4.299h-2.816a.876.876 0 01-.9-.9v-6.565c0-.517.366-.9.883-.9.5 0 .867.383.867.9v1.65h1.966c1.932 0 3.282 1.116 3.282 2.9 0 1.798-1.35 2.915-3.282 2.915zm-8.611-6.666v5.95c0 .516-.368.9-.867.9-.483 0-.867-.384-.867-.9v-5.95h-2.082a.754.754 0 01-.767-.766c0-.433.334-.75.767-.75h5.898c.45 0 .766.317.766.75a.744.744 0 01-.766.766zm-7.48 6.85c-.499 0-.866-.384-.866-.9v-4.533l-3.916 4.983c-.265.317-.515.45-.798.45-.5 0-.867-.384-.867-.9v-6.75c0-.516.367-.9.883-.9.483 0 .867.384.867.9v4.65l3.915-5.082c.25-.334.484-.467.8-.467.483 0 .866.383.866.9v6.748c0 .517-.383.9-.883.9zm-10.543 0c-.5 0-.883-.384-.883-.9v-2.25a5.31 5.31 0 01-1.666.283c-2.283 0-3.716-1.466-3.716-3.75v-1.032c0-.517.367-.9.866-.9.5 0 .866.383.866.9v.916c0 1.45.75 2.234 2.117 2.234.5 0 1.05-.101 1.533-.25v-2.9c0-.517.366-.9.883-.9.5 0 .866.383.866.9v6.748c0 .534-.366.9-.866.9zm-7.995-7.3l-3.766 7.883c-.817 1.699-1.749 2.415-3.182 2.415-.283 0-.566-.032-.783-.1a.749.749 0 01-.533-.732c0-.417.366-.767.8-.767.132 0 .233.017.333.017.766 0 1.3-.35 1.7-1.2l.366-.783-3.033-6.716c-.05-.133-.1-.25-.1-.416 0-.45.4-.85.866-.85.35 0 .667.2.8.516l2.45 5.5 2.516-5.5c.133-.3.45-.516.8-.516.466 0 .85.4.85.85a.862.862 0 01-.084.4zm1.234-13.753c.978 0 2.077-.27 3.298-.812 1.22-.54 1.923-.812 2.106-.812 1.16 0 1.74.542 1.74 1.624 0 .666-.456 1.264-1.37 1.791-1.551.915-3.468 1.373-5.75 1.373-3.591 0-6.391-1.136-8.399-3.408-1.888-2.133-2.83-4.864-2.83-8.188 0-3.132.973-5.806 2.92-8.024 2.07-2.381 4.779-3.574 8.125-3.574 1.37 0 2.74.206 4.109.619 1.825.55 2.74 1.306 2.74 2.27 0 1.044-.505 1.566-1.513 1.566-.672 0-1.42-.194-2.244-.583-.824-.388-1.801-.583-2.931-.583-2.229 0-4.014.903-5.359 2.707-1.19 1.61-1.785 3.47-1.785 5.581 0 2.36.534 4.288 1.602 5.788 1.252 1.776 3.1 2.665 5.541 2.665zm19.513-16.884c-3.925 0-7.42 3.76-7.42 8.396 0 4.637 3.495 8.396 7.42 8.396s7.42-3.759 7.42-8.396c0-4.637-3.495-8.396-7.42-8.396zm-.039 20.077c-6.028 0-10.915-5.213-10.915-11.643 0-6.43 4.887-11.644 10.915-11.644s10.915 5.214 10.915 11.644-4.887 11.643-10.915 11.643zm28.158-19.762l-.015 13.777c3.99-.71 6.984-3.645 6.984-6.89 0-3.242-2.986-6.173-6.969-6.887zm-3.8.013c-3.948.736-6.899 3.652-6.899 6.875s2.956 6.141 6.908 6.874zm3.782 17.089v.878c0 .512-.182.938-.546 1.275-.362.337-.81.506-1.34.506s-.977-.17-1.34-.508c-.364-.338-.545-.766-.545-1.281v-.87c-5.87-.768-10.364-5.066-10.364-10.252 0-5.73 5.484-10.375 12.249-10.375 6.765 0 12.25 4.645 12.25 10.375 0 5.186-4.494 9.483-10.364 10.252zm26.275-16.82l-4.61-.007-.022 17.705c0 .512-.181.938-.544 1.275-.363.337-.81.506-1.34.506-.531 0-.977-.17-1.34-.508a1.677 1.677 0 01-.546-1.281l-.011-17.704-4.553-.006c-.539 0-.986-.172-1.34-.515a1.683 1.683 0 01-.533-1.261c0-.5.18-.921.535-1.262.356-.342.805-.514 1.345-.514l12.967-.011c.54 0 .988.172 1.343.517.356.345.533.769.533 1.273 0 .505-.179.93-.535 1.276-.357.344-.807.516-1.349.516zm25.003 19.451a2.324 2.324 0 01-1.444-.478c-.422-.32-.632-.715-.632-1.187V19.843l-13.282 15.742c-.549.638-1.219.956-2.009.956-1.34 0-2.01-.58-2.01-1.745v-19.62c0-.527.196-.964.588-1.31.39-.346.872-.519 1.444-.519.57 0 1.053.174 1.444.521.392.347.587.786.587 1.315v15.024l13.107-15.533c.751-.885 1.518-1.327 2.3-1.327 1.262 0 1.894.567 1.894 1.704v19.745c0 .47-.204.88-.61 1.227a2.074 2.074 0 01-1.377.518zm13.79-.923c-.25.454-.62.75-1.107.886a1.931 1.931 0 01-1.433-.146c-.47-.235-.781-.584-.937-1.044-.155-.46-.107-.917.147-1.374l2.906-5.211-7.017-12.721c-.252-.456-.3-.915-.143-1.376.157-.461.473-.812.945-1.048a1.955 1.955 0 011.443-.151c.49.135.859.43 1.11.885l5.803 10.573 5.91-10.595a1.77 1.77 0 011.113-.886 1.952 1.952 0 011.445.15c.473.238.788.588.946 1.05.158.462.11.922-.143 1.378l-10.988 19.63zm39.236-.617c-.155 1.028-.759 1.54-1.81 1.54-1.3 0-2.028-.566-2.182-1.697L227.22 18.93l-.065-.004-5.386 16.325c-.274.86-.913 1.29-1.918 1.29-1.004 0-1.642-.43-1.917-1.29l-5.386-16.325-.11-.003-2.286 15.913c-.153 1.137-.857 1.704-2.112 1.704-1.01 0-1.623-.476-1.837-1.429-.06-.318-.076-.55-.045-.694l3.148-18.864c.122-.627.456-1.15 1.005-1.573.547-.423 1.186-.634 1.916-.634 1.4 0 2.297.597 2.692 1.79l4.88 14.785.15.012 4.846-14.834c.394-1.169 1.29-1.753 2.686-1.753.73 0 1.367.208 1.913.623.546.416.88.955 1.001 1.621l3.15 18.827c.03.111.014.306-.046.583z"/><path fill="#fc0" d="M24.286 52.292c.656.214 1.355.33 2.082.33 3.74 0 6.772-3.066 6.772-6.847 0-3.056-1.982-5.646-4.72-6.525l.934-2.946 7.305 2.354a4.111 4.111 0 01-.641-2.212c0-2.26 1.813-4.094 4.051-4.094 2.237 0 4.05 1.834 4.05 4.095 0 1.72-1.049 3.19-2.536 3.798l7.667 2.47v6.614c0 3.233-2.592 5.854-5.789 5.854H23.368l.917-2.89z"/><path fill="#e71a84" d="M10.807 29.934a6.92 6.92 0 00-.327 2.106c0 3.783 3.03 6.85 6.77 6.85 3.023 0 5.582-2.006 6.451-4.773l2.913.944-2.328 7.388c.631-.41 1.38-.65 2.187-.65 2.235 0 4.048 1.835 4.048 4.098 0 2.264-1.813 4.098-4.048 4.098-1.701 0-3.156-1.062-3.755-2.565l-2.443 7.753h-6.54c-3.196 0-5.787-2.621-5.787-5.854V29.006z"/><path fill="#87bd25" d="M46.391 38.491a6.934 6.934 0 00.326-2.105c0-3.783-3.03-6.85-6.769-6.85-3.022 0-5.583 2.005-6.451 4.773l-2.913-.944 2.327-7.389a4 4 0 01-2.186.649c-2.236 0-4.049-1.834-4.049-4.097 0-2.263 1.813-4.096 4.05-4.096 1.7 0 3.154 1.06 3.753 2.564l2.443-7.753h6.54c3.196 0 5.788 2.62 5.788 5.853V39.42l-2.859-.928z"/><path fill="#0095da" d="M19.589 3.119a6.794 6.794 0 00-1.828 1.06c-2.915 2.37-3.382 6.681-1.04 9.628a6.724 6.724 0 007.72 2.099l1.095 2.887-7.152 2.793a4.03 4.03 0 011.87 1.317 4.128 4.128 0 01-.622 5.759 4.019 4.019 0 01-5.694-.626 4.133 4.133 0 01-.375-4.568l-7.506 2.93-4.096-5.156c-2.002-2.52-1.604-6.206.888-8.23L18.513.284 19.59 3.12z"/></svg>