<svg xmlns="http://www.w3.org/2000/svg" width="202" height="94"><defs><clipPath id="a"><path d="M134.498 25.905s2.642-11.119 8.935-14.96c6.294-3.84 13.275-3.178 15.82-5.401-1.086 25.511-10.088 28.742-20.227 31.156-1.63-7.809-4.528-10.795-4.528-10.795z"/></clipPath><clipPath id="b"><path d="M127.668 27.956s-5.75 9.341-1.147 14.171c4.605 4.831 8.984-1.305 8.984-1.305s3.687-9.132-4.381-13.26c-1.427-.135-3.456.394-3.456.394z"/></clipPath><clipPath id="c"><path d="M124.403 29.544c-10.565-9.773-30.264 3.89-31.298 17.17 14.24-8.404 16.625 3.696 31.082-3.288-2.232-2.385-1.301-15.152.215-13.38z"/></clipPath></defs><path fill="#666e74" d="M12.328 73.373c-.833 0-1.491.278-1.974.833-.483.555-.724 1.316-.724 2.28 0 .994.233 1.76.698 2.302.465.541 1.129.812 1.99.812.53 0 1.133-.095 1.81-.286v.774c-.525.197-1.174.296-1.945.296-1.117 0-1.98-.34-2.587-1.017-.607-.679-.91-1.642-.91-2.89 0-.782.146-1.467.438-2.055a3.149 3.149 0 011.266-1.36c.552-.318 1.202-.477 1.949-.477.795 0 1.49.145 2.086.436l-.374.757a4.018 4.018 0 00-1.723-.405zm7.161 1.957h-1.847v4.95h-.861v-4.95h-1.827v-.737h4.535zm.223-.737h.924l1.245 3.243c.273.74.443 1.275.509 1.603h.04c.046-.176.14-.478.284-.905.143-.428.613-1.741 1.409-3.941h.923l-2.444 6.475c-.242.64-.524 1.094-.848 1.363-.323.268-.72.402-1.19.402-.264 0-.523-.03-.78-.088v-.69c.19.04.404.062.639.062.591 0 1.013-.332 1.266-.997l.316-.81zm6.896 4.945c.374-.502.686-1.146.937-1.933a9.467 9.467 0 00.443-2.332h1.277v4.265zm4.302 0h-.815v-4.945h-2.88a9.499 9.499 0 01-.41 2.729c-.262.848-.626 1.586-1.09 2.216h-.445v2.708h.83V80.28h3.974v1.966h.836zm1.945-4.945v3.606l-.036.944-.015.296 3.076-4.846h1.075v5.687h-.805v-3.477l.016-.685.026-.674-3.072 4.836h-1.074v-5.687zm7.576.747h1.562v1.92h-1.385c-.955 0-1.432-.329-1.432-.986 0-.623.418-.934 1.255-.934zm.125 2.667h1.437v2.273h.861v-5.687h-2.532c-.626 0-1.114.148-1.463.446-.35.297-.524.706-.524 1.225 0 .422.117.772.35 1.05.234.279.57.467 1.01.563L38.06 80.28h1.007zM51.68 80.28h-.871v-4.95h-1.707c-.094 1.231-.223 2.208-.39 2.931-.165.723-.38 1.253-.645 1.588-.265.335-.602.503-1.01.503-.186 0-.335-.02-.446-.062v-.638c.076.02.163.03.26.03.397 0 .714-.42.949-1.26.235-.84.414-2.117.534-3.83h3.327zm3.379-.607c-.34 0-.603-.082-.792-.244-.188-.163-.283-.4-.283-.711 0-.398.152-.691.454-.88.303-.188.797-.295 1.482-.319l.861-.036v.514c0 .529-.153.94-.46 1.235-.305.294-.726.44-1.262.44zm2.584.607v-3.881c0-.665-.164-1.147-.49-1.448-.328-.301-.83-.452-1.508-.452-.336 0-.67.044-1.004.13a4.057 4.057 0 00-.921.358l.264.659c.6-.29 1.135-.436 1.61-.436.421 0 .728.106.92.32.192.212.288.541.288.988v.353l-.965.03c-1.837.056-2.755.658-2.755 1.806 0 .537.16.95.48 1.24.32.291.762.437 1.325.437.422 0 .774-.064 1.056-.19.282-.126.565-.367.849-.724h.041l.171.81zm2.859-3.327c1.076 0 1.613-.297 1.613-.892 0-.56-.435-.84-1.307-.84-.266 0-.509.024-.726.072a5.587 5.587 0 00-.857.29l-.306-.7a4.66 4.66 0 011.925-.394c.654 0 1.17.134 1.546.402.377.268.566.634.566 1.098 0 .636-.355 1.053-1.064 1.25v.042c.436.128.755.31.955.547.2.237.3.534.3.89 0 .526-.21.935-.635 1.227-.423.292-1.009.439-1.756.439-.82 0-1.453-.123-1.9-.37v-.788a4.474 4.474 0 001.92.447c.499 0 .875-.086 1.13-.257.254-.172.38-.418.38-.74 0-.66-.537-.99-1.613-.99h-.789v-.733zm7.254-1.31c.242.29.363.705.363 1.248h-2.973c.048-.526.208-.937.48-1.234.271-.298.635-.447 1.092-.447.45 0 .796.145 1.038.433zm.179 4.655a4.59 4.59 0 00.864-.283v-.768a4.58 4.58 0 01-1.816.384c-.582 0-1.032-.173-1.352-.519-.32-.346-.489-.852-.506-1.52h3.918v-.545c0-.768-.208-1.386-.623-1.855-.415-.469-.979-.703-1.692-.703-.76 0-1.367.27-1.818.81-.452.54-.677 1.267-.677 2.184 0 .91.242 1.62.728 2.132.487.512 1.15.769 1.99.769.384 0 .712-.03.984-.086zm5.098-5.078c.505 0 .897.19 1.175.569.279.379.418.923.418 1.632 0 .698-.14 1.247-.418 1.645a1.333 1.333 0 01-1.155.596c-.588 0-1.015-.172-1.281-.516-.267-.344-.4-.916-.4-1.715v-.192c.007-.702.14-1.214.4-1.536.26-.321.68-.483 1.26-.483zm.124 5.164c.74 0 1.319-.259 1.736-.776.417-.517.625-1.243.625-2.177 0-.93-.205-1.654-.615-2.169-.41-.515-.992-.773-1.746-.773-.38 0-.717.069-1.011.208a1.999 1.999 0 00-.774.674h-.041l-.12-.778h-.7v8.24h.861v-2.34c0-.298-.02-.613-.062-.945h.062c.208.284.465.494.77.63.307.137.645.206 1.015.206zm4.727-5.791v2.381h3.186v-2.381h.862v5.687h-.862v-2.564h-3.186v2.564h-.861v-5.687zm6.45 2.838c0-.733.143-1.285.43-1.655.288-.37.713-.556 1.277-.556.571 0 1.002.188 1.295.564.292.375.438.924.438 1.647 0 .73-.146 1.284-.438 1.663-.293.379-.72.568-1.284.568-.564 0-.991-.19-1.282-.57-.29-.381-.436-.935-.436-1.66zm4.333 0c0-.903-.235-1.62-.703-2.148-.469-.53-1.101-.794-1.897-.794-.823 0-1.466.259-1.93.776-.464.517-.696 1.239-.696 2.166 0 .598.108 1.12.322 1.567.215.446.52.789.913 1.027.395.24.846.359 1.355.359.823 0 1.468-.26 1.935-.781.467-.521.7-1.245.7-2.172zm3.943-3.591c.637 0 1.109-.129 1.417-.386.308-.258.483-.66.524-1.206h-.815c-.038.338-.143.584-.314.736-.17.152-.435.228-.791.228-.39 0-.665-.07-.822-.212-.158-.142-.252-.393-.283-.752h-.81c.035.567.2.974.493 1.221.294.248.761.371 1.401.371zm-2.433.753v5.687h1.074l3.072-4.836-.026.674-.016.685v3.477h.804v-5.687h-1.074l-3.077 4.846.016-.296.036-.944v-3.606zm10.357 5.791c-.578 0-1.071-.1-1.48-.296v-.763c.208.08.433.15.676.213.241.062.52.093.835.093.602 0 1.066-.16 1.393-.483.327-.321.508-.802.542-1.442h-2.88v-.732h2.87c-.055-.594-.23-1.03-.522-1.307-.292-.277-.717-.415-1.274-.415-.356 0-.795.093-1.317.28l-.244-.727c.19-.09.427-.165.71-.225.284-.061.564-.091.841-.091.886 0 1.558.253 2.018.76.46.507.69 1.238.69 2.192 0 .931-.249 1.654-.749 2.17-.5.515-1.203.773-2.11.773zm5.23-.104h-.861v-5.687h4.773v5.687h-.871v-4.94h-3.041zm6.549-5.687v3.606l-.037.944-.016.296 3.078-4.846h1.073v5.687h-.804v-3.477l.016-.685.026-.674-3.072 4.836h-1.074v-5.687zm10.164 5.687h-.871v-4.95h-1.708c-.093 1.231-.223 2.208-.389 2.931-.166.723-.381 1.253-.646 1.588-.264.335-.6.503-1.01.503-.186 0-.335-.02-.445-.062v-.638c.076.02.163.03.26.03.397 0 .714-.42.949-1.26.235-.84.413-2.117.534-3.83h3.326zm2.221-4.006c0-.623.419-.934 1.256-.934h1.561v1.92h-1.385c-.955 0-1.432-.329-1.432-.986zm1.38 1.733h1.437v2.273h.862v-5.687h-2.532c-.626 0-1.114.148-1.464.446-.349.297-.523.706-.523 1.225 0 .422.116.772.35 1.05.233.279.57.467 1.009.563l-1.634 2.403h1.006zm9.672 4.239h-.86V80.28h-4.686v-5.687h.86v4.945h3.02v-4.945h.862v4.945h.804zm1.915-7.653v3.606l-.036.944-.016.296 3.077-4.846h1.074v5.687h-.804v-3.477l.016-.685.026-.674-3.072 4.836h-1.075v-5.687zm6.735 0v3.606l-.036.944-.016.296 3.077-4.846h1.074v5.687h-.804v-3.477l.016-.685.025-.674-3.071 4.836h-1.074v-5.687zM9.76 85.662v3.606l-.036.945-.016.295 3.077-4.846h1.074v5.687h-.804v-3.477l.015-.685.026-.674-3.071 4.836H8.95v-5.687zm9.446 4.836c-.189-.162-.283-.4-.283-.711 0-.398.152-.69.454-.88.303-.188.797-.294 1.482-.319l.861-.036v.514c0 .53-.153.94-.459 1.235-.306.294-.727.441-1.264.441-.338 0-.602-.081-.79-.244zm3.375.851v-3.881c0-.664-.163-1.147-.49-1.448-.326-.3-.829-.451-1.507-.451-.336 0-.67.043-1.004.13a4 4 0 00-.921.358l.264.658c.599-.29 1.135-.436 1.609-.436.422 0 .73.107.92.32.193.213.289.542.289.988v.353l-.965.031c-1.837.056-2.756.657-2.756 1.806 0 .536.16.95.48 1.24.32.29.762.436 1.326.436.422 0 .774-.064 1.056-.19.282-.126.565-.367.848-.723h.042l.171.81zm2.636.001h-.86v-5.688h4.773v5.687h-.872v-4.94h-3.04zm6.601 0h-.862v-5.688h4.774v5.687h-.872v-4.94h-3.04zm7.29-.608c-.339 0-.603-.081-.791-.244-.189-.162-.283-.4-.283-.711 0-.398.151-.69.454-.88.303-.188.797-.294 1.481-.319l.862-.036v.514c0 .53-.154.94-.46 1.235-.305.294-.727.441-1.263.441zm2.584.607v-3.881c0-.664-.163-1.147-.49-1.448-.327-.3-.83-.451-1.507-.451-.336 0-.67.043-1.005.13-.334.086-.64.205-.92.358l.264.658c.598-.29 1.134-.436 1.608-.436.423 0 .73.107.922.32.191.213.288.542.288.988v.353l-.966.031c-1.836.056-2.755.657-2.755 1.806 0 .536.16.95.48 1.24.32.29.762.436 1.326.436.422 0 .774-.064 1.056-.19.282-.126.564-.367.848-.723h.042l.17.81zm5.472-4.491c.278.38.417.923.417 1.632 0 .699-.139 1.247-.417 1.645a1.332 1.332 0 01-1.155.596c-.588 0-1.015-.172-1.281-.516-.267-.344-.4-.915-.4-1.715v-.192c.007-.702.14-1.214.4-1.535.26-.322.68-.483 1.26-.483.505 0 .897.19 1.176.568zm-1.05 4.595c.74 0 1.318-.259 1.735-.776.416-.517.625-1.243.625-2.177 0-.93-.205-1.653-.615-2.168-.41-.516-.992-.774-1.746-.774-.38 0-.718.07-1.012.208a2.005 2.005 0 00-.773.675h-.041l-.12-.779h-.7v8.24h.86v-2.34c0-.298-.02-.613-.061-.945h.062c.207.284.464.494.77.63.307.138.645.206 1.015.206zm4.625-.955c-.189-.162-.283-.4-.283-.711 0-.398.151-.69.454-.88.303-.188.797-.294 1.481-.319l.862-.036v.514c0 .53-.153.94-.46 1.235-.306.294-.727.441-1.263.441-.34 0-.603-.081-.791-.244zm3.375.851v-3.881c0-.664-.163-1.147-.49-1.448-.327-.3-.83-.451-1.508-.451-.335 0-.67.043-1.003.13a4.027 4.027 0 00-.921.358l.264.658c.599-.29 1.135-.436 1.609-.436.422 0 .729.107.92.32.193.213.289.542.289.988v.353l-.966.031c-1.837.056-2.755.657-2.755 1.806 0 .536.16.95.48 1.24.32.29.762.436 1.326.436.422 0 .774-.064 1.056-.19.282-.126.565-.367.848-.723h.042l.171.81zm5.609-4.95h-1.847v4.95h-.861V86.4h-1.827v-.737h4.535zm1.987-.737v2.382h3.187v-2.382h.861v5.687h-.861v-2.563H61.71v2.563h-.86v-5.687zm6.88 1.183c.288-.37.714-.555 1.277-.555.571 0 1.003.188 1.295.563.292.375.438.924.438 1.647 0 .73-.146 1.284-.438 1.663-.292.379-.72.568-1.284.568-.564 0-.991-.19-1.282-.57-.29-.38-.435-.934-.435-1.66 0-.734.143-1.286.43-1.656zm3.903 1.655c0-.902-.234-1.618-.703-2.148s-1.1-.794-1.896-.794c-.824 0-1.467.26-1.931.776-.463.517-.695 1.24-.695 2.166 0 .599.107 1.121.322 1.567.214.447.519.789.913 1.028.394.238.845.358 1.354.358.823 0 1.469-.26 1.936-.781.467-.52.7-1.244.7-2.172zm3.944-3.59c.636 0 1.108-.129 1.416-.387.308-.257.483-.66.524-1.206h-.814c-.038.339-.143.584-.314.736-.172.153-.435.229-.792.229-.39 0-.665-.07-.822-.213-.157-.142-.252-.392-.283-.752h-.81c.035.567.2.974.494 1.222.294.247.76.37 1.4.37zm-2.434.752v5.687h1.074l3.072-4.836-.026.674-.015.685v3.477h.804v-5.687h-1.074l-3.077 4.846.015-.295.036-.945v-3.606zm12.811 0h.945l-2.455 2.745 2.657 2.942h-1.007l-2.594-2.88v2.88h-.862v-5.687h.862v2.766zm3.207 1.183c.287-.37.713-.555 1.277-.555.57 0 1.002.188 1.294.563.293.375.439.924.439 1.647 0 .73-.146 1.284-.44 1.663-.291.379-.72.568-1.283.568-.564 0-.991-.19-1.282-.57-.29-.38-.436-.934-.436-1.66 0-.734.144-1.286.431-1.656zm3.902 1.655c0-.902-.234-1.618-.703-2.148s-1.101-.794-1.897-.794c-.823 0-1.466.26-1.93.776-.463.517-.695 1.24-.695 2.166 0 .599.107 1.121.322 1.567.214.447.519.789.913 1.028a2.57 2.57 0 001.354.358c.824 0 1.469-.26 1.935-.781.468-.52.7-1.244.7-2.172zm5.207-1.642c.279.38.418.923.418 1.632 0 .699-.14 1.247-.418 1.645a1.332 1.332 0 01-1.154.596c-.588 0-1.016-.172-1.282-.516-.266-.344-.4-.915-.4-1.715v-.192c.007-.702.14-1.214.4-1.535.26-.322.68-.483 1.26-.483.506 0 .897.19 1.176.568zm-1.05 4.595c.74 0 1.318-.259 1.735-.776.417-.517.625-1.243.625-2.177 0-.93-.205-1.653-.615-2.168-.41-.516-.992-.774-1.746-.774-.38 0-.717.07-1.011.208a2.004 2.004 0 00-.774.675h-.041l-.12-.779h-.7v8.24h.861v-2.34c0-.298-.02-.613-.062-.945h.062c.208.284.465.494.77.63.307.138.645.206 1.015.206zm7.562-4.595c.279.38.418.923.418 1.632 0 .699-.14 1.247-.418 1.645a1.332 1.332 0 01-1.154.596c-.588 0-1.016-.172-1.282-.516-.266-.344-.4-.915-.4-1.715v-.192c.007-.702.14-1.214.4-1.535.26-.322.68-.483 1.26-.483.506 0 .898.19 1.176.568zm-1.05 4.595c.74 0 1.318-.259 1.735-.776.417-.517.625-1.243.625-2.177 0-.93-.205-1.653-.615-2.168-.41-.516-.992-.774-1.746-.774-.38 0-.717.07-1.011.208a2.004 2.004 0 00-.774.675h-.041l-.12-.779h-.7v8.24h.861v-2.34c0-.298-.02-.613-.062-.945h.062c.208.284.465.494.77.63.307.138.645.206 1.015.206zm7.072-4.74c.242.288.363.705.363 1.248h-2.973c.048-.526.208-.938.48-1.235.271-.298.635-.447 1.092-.447.45 0 .796.145 1.038.434zm-.805 4.74c.384 0 .712-.029.984-.086.271-.057.56-.151.864-.283v-.767a4.58 4.58 0 01-1.816.384c-.582 0-1.032-.174-1.352-.52-.32-.345-.489-.852-.506-1.52h3.918v-.545c0-.768-.208-1.386-.623-1.855-.415-.468-.979-.703-1.692-.703-.76 0-1.367.27-1.818.81-.452.54-.677 1.268-.677 2.184 0 .91.243 1.62.728 2.133.487.512 1.15.768 1.99.768zm6.876-5.791h.944l-2.455 2.745 2.657 2.942h-1.006l-2.595-2.88v2.88h-.861v-5.687h.861v2.766zm7.747 7.654h-.862v-1.967h-4.685v-5.687h.861v4.945h3.02v-4.945h.861v4.945h.805zm1.914-7.654v3.606l-.036.945-.015.295 3.076-4.846h1.075v5.687h-.805v-3.477l.016-.685.026-.674-3.072 4.836h-1.074v-5.687zm6.736 0v3.606l-.037.945-.015.295 3.077-4.846h1.074v5.687h-.805v-3.477l.016-.685.026-.674-3.072 4.836h-1.074v-5.687zm13.885 2.838c0 .66-.152 1.18-.454 1.557-.303.377-.783.598-1.44.664v-4.41c1.262.134 1.894.864 1.894 2.19zm-4.149-1.575c.317-.357.795-.566 1.435-.625v4.421c-.664-.062-1.148-.282-1.453-.659-.304-.377-.456-.898-.456-1.562 0-.691.158-1.216.474-1.575zm4.3-.448c-.495-.52-1.177-.819-2.045-.898v-2.304h-.82v2.304c-.882.07-1.571.358-2.068.866-.496.51-.744 1.194-.744 2.055 0 .844.249 1.527.747 2.05.498.522 1.176.816 2.034.882v2.47h.85v-2.47c.88-.073 1.563-.364 2.053-.874s.734-1.196.734-2.058c0-.83-.247-1.504-.742-2.023zm3.055-.815v3.606l-.036.945-.015.295 3.076-4.846h1.075v5.687h-.804v-3.477l.015-.685.026-.674-3.072 4.836h-1.074v-5.687zm9.351.737h-2.563v4.95h-.862v-5.687h3.425zm.223-.737h.923l1.246 3.243c.273.74.443 1.275.508 1.603h.042c.045-.176.14-.478.283-.905.143-.427.613-1.74 1.408-3.94h.924l-2.444 6.475c-.242.64-.525 1.094-.848 1.362-.324.268-.72.402-1.191.402-.263 0-.522-.03-.778-.088v-.69c.19.041.403.062.638.062.591 0 1.013-.332 1.266-.996l.316-.81zm9.955 1.196c.278.38.417.923.417 1.632 0 .699-.139 1.247-.417 1.645a1.332 1.332 0 01-1.154.596c-.589 0-1.016-.172-1.282-.516-.267-.344-.4-.915-.4-1.715v-.192c.007-.702.14-1.214.4-1.535.26-.322.68-.483 1.26-.483.505 0 .897.19 1.176.568zm-1.05 4.595c.74 0 1.318-.259 1.735-.776.416-.517.625-1.243.625-2.177 0-.93-.205-1.653-.615-2.168-.41-.516-.992-.774-1.746-.774-.38 0-.718.07-1.012.208a2.004 2.004 0 00-.773.675h-.041l-.12-.779h-.7v8.24h.861v-2.34c0-.298-.02-.613-.062-.945h.062c.207.284.465.494.77.63.307.138.645.206 1.015.206zm10.221-5.791h-.861v5.687h.861zm-4.063 3.092c.509 0 .868.073 1.08.218.21.146.316.378.316.696 0 .64-.457.96-1.37.96h-1.458v-1.874zm-1.432-3.092h-.861v5.687h2.36c.717 0 1.259-.146 1.627-.439.369-.292.553-.723.553-1.294 0-.533-.174-.933-.521-1.201-.348-.268-.884-.403-1.606-.403h-1.552z"/><g fill="#040405"><path d="M49.301 36.166c-.125.04-.248.084-.367.13a14.888 14.888 0 00-.104-.883c.14.257.298.508.471.753zm9.102 27.203a14.331 14.331 0 01-5.92 1.556c-.301.014-.604.021-.895.021-3.242 0-5.531-.906-6.805-2.692-1.325-1.86-1.646-4.322-.95-7.325a214.39 214.39 0 011.834-7.452l1.094-4.174-2.65 3.406c-1.108 1.424-2.521 2.728-4.2 3.875-2.035 1.39-4.504 2.346-7.338 2.841-2.171.38-4.609.45-7.275.202l-.764-.071-.18.746c-.147.613-.294 1.233-.44 1.857-.324 1.39-.607 2.674-.839 3.814-.362 1.783-.451 2.145-.48 2.262l-.067.266-.148.232c-.936 1.46-2.984 2.16-6.64 2.275-.267.008-.523.012-.768.012-1.242 0-5.02 0-5.696-2.605l-.102-.398.093-.4c1.555-6.669 3.048-12.283 4.436-16.686l.68-2.155-1.963 1.12c-1.765 1.007-3.47 1.426-5.059 1.244l-.255-.05c-1.67-.463-3.001-1.339-3.956-2.603-.96-1.271-1.423-2.831-1.375-4.65.04-3.322 1.371-6.223 3.957-8.619 2.433-2.255 5.531-3.914 9.208-4.931 3.436-.95 7.267-1.432 11.382-1.432l.48.002h.002a29.4 29.4 0 017.756 1.018c2.496.682 4.776 1.694 6.777 3.008a13.135 13.135 0 014.791 5.575c.737 1.603 1.104 3.376 1.092 5.27l-.012 1.744 1.415-1.018c.618-.445 1.412-.728 2.426-.866l1.817-.246-1.322-1.27a6.416 6.416 0 01-.5-.54c-1.174-1.424-1.588-3.146-1.195-4.993.365-1.85 1.252-3.409 2.637-4.633 1.432-1.268 3.181-1.89 5.225-1.844 2.628.06 4.115 1.215 4.9 2.173 1.116 1.366 1.551 3.062 1.262 4.897-.325 1.906-1.216 3.493-2.648 4.717a7.368 7.368 0 01-2.053 1.241l-1.79.717 1.71.89c.789.411 1.376.928 1.795 1.579l.394.613-.182.706a381.501 381.501 0 01-1.347 5.062c-.55 2.02-.998 3.723-1.334 5.062a53.231 53.231 0 00-.375 1.594l-.646 2.974 2.14-2.163c.553-.557 1.137-1.283 1.74-2.155l.089-.13.333-1.296c1.264-4.936 2.244-8.66 2.91-11.069l.166-.599.518-.345c1.338-.892 3.39-1.18 6.394-.903 1.589.148 3.863.487 5.26 1.72l.467.412.546-.3c2.557-1.404 4.828-2.087 6.937-2.087l.13.001c2.5.05 4.284 1.002 5.303 2.83.918 1.647 1.058 3.795.412 6.407-.127.575-.486 1.81-1.098 3.777a84.41 84.41 0 00-.715 2.407l-.994 3.59 2.504-2.758a15.32 15.32 0 001.742-2.357 2.124 2.124 0 011.842-1.027c.619 0 1.266.237 2.038.745 1.54 1.015 2.106 2.097 1.688 3.213l-.05.131-.07.121c-3.905 6.746-8.85 10.27-14.699 10.473-.226.008-.449.012-.664.012-3.364 0-5.69-.984-6.915-2.927a6.828 6.828 0 01-.618-1.25l-1-2.682-1.079 4.35c-.506 1.89-3.193 2.267-4.34 2.427-1.979.277-3.92.276-5.766-.001-1.033-.156-2.319-.444-3.09-1.292l-.453-.5zm6.988 3.465c1.035 0 2.1-.075 3.168-.224 1.279-.18 4.537-.636 5.619-3.182 1.723 2.315 4.67 3.415 8.814 3.268 6.499-.227 11.939-4.047 16.17-11.358l.107-.184.137-.33c.421-1.123.675-3.307-2.37-5.316-1.075-.707-2.032-1.037-3.013-1.037-.776 0-1.509.218-2.129.615.384-1.284.512-1.8.572-2.073.752-3.04.554-5.62-.59-7.672-.925-1.663-2.86-3.66-6.826-3.739h-.148c-2.27 0-4.655.663-7.274 2.027-1.755-1.256-4.104-1.61-5.778-1.766a23.99 23.99 0 00-2.186-.109c-2.289 0-4.04.426-5.354 1.303l-1.065.71-.342 1.235c-.07.25-.143.516-.218.795l-.309-.48a5.941 5.941 0 00-1.133-1.295 9.164 9.164 0 001.133-.827c1.755-1.5 2.846-3.44 3.244-5.776.373-2.358-.194-4.538-1.64-6.305-1.019-1.246-2.927-2.747-6.228-2.822a9.181 9.181 0 00-.246-.003c-2.393 0-4.477.77-6.193 2.29-1.682 1.488-2.76 3.378-3.199 5.604a8.109 8.109 0 00-.18 1.984 14.881 14.881 0 00-5.625-6.765c-2.156-1.415-4.606-2.504-7.281-3.236a31.179 31.179 0 00-8.22-1.08h-.002l-.48-.002c-4.279 0-8.268.503-11.858 1.496-3.953 1.093-7.297 2.89-9.94 5.339-2.956 2.74-4.478 6.07-4.524 9.885-.058 2.217.525 4.151 1.733 5.75 1.194 1.582 2.841 2.673 4.896 3.243l.193.053.334.05c1.377.158 2.811-.038 4.265-.58-1.232 4.115-2.535 9.114-3.883 14.895l-.192.824.211.82c.677 2.61 3.17 3.932 7.41 3.932.263 0 .538-.004.824-.013 4.301-.134 6.792-1.087 8.075-3.089l.306-.476.137-.55c.055-.223.167-.707.498-2.337.228-1.123.507-2.39.828-3.764l.261-1.108c2.537.183 4.863.086 6.978-.284 3.085-.54 5.787-1.59 8.032-3.123a22.372 22.372 0 002.194-1.704c-.39 1.557-.723 2.96-.998 4.193-.813 3.512-.398 6.454 1.235 8.745 1.625 2.28 4.4 3.436 8.247 3.436.318 0 .648-.007.974-.023a16.048 16.048 0 006.08-1.473c1.098.896 2.498 1.211 3.643 1.384 1.013.152 2.058.23 3.106.23zm49.833-23.654c.584 0 2.535.2 3.11 2.787.29 1.31.183 2.632-.32 3.926-.861 2.213-2.393 2.544-3.229 2.544h-10.681c-.557 0-2.414-.205-2.903-2.847-.241-1.3-.099-2.609.425-3.893.892-2.19 2.45-2.517 3.3-2.517zm-.439 11.028c.81 0 3.554-.265 4.88-3.673.632-1.627.766-3.293.398-4.953-.685-3.08-3.035-4.173-4.839-4.173h-10.298c-1.042 0-3.609.352-4.94 3.62-.654 1.603-.83 3.246-.526 4.884.586 3.17 2.868 4.295 4.644 4.295h10.681zm49.88 9.919a12.6 12.6 0 01-4.39.8c-2.606 0-4.668-.81-5.962-2.341l-.534-.631-.667.489c-2.165 1.59-4.757 2.424-7.705 2.482-.124.002-.244.004-.364.004-4.329 0-7.45-1.482-9.275-4.405-1.825-2.917-1.953-7.105-.389-12.82.096-.383.346-1.336.766-2.93l1.013-3.831c.383-1.443.739-2.773 1.07-3.999l.465-1.72-1.652.668c-.524.212-1.036.43-1.53.65-.736.328-1.178.701-1.313 1.104l-.015.044c-.158.44-.183.784-.079 1.043.077.2.241.4.487.597l.24.194.156.268c.212.365.335.782.364 1.238l.088 1.376-.93 1.722c-.552 1.023-1.281 1.755-2.168 2.176l-.242.092c-3.091.913-6.021.402-8.587-1.49-2.665-1.965-3.666-4.91-2.82-8.296.587-2.35 2.015-4.185 4.245-5.455a18.43 18.43 0 016.353-2.227c1.911-.292 4.013-.838 6.245-1.623 2.058-.723 3.632-1.683 4.678-2.852l.172-.192.22-.13c1.496-.888 3.542-1.194 6.293-.94 1.922.18 4.58.636 5.488 2.53l.277.58-.182.616c-1.341 4.532-3.474 12.493-6.337 23.656-.38 1.446-.613 2.64-.694 3.546a3.86 3.86 0 00.023 1.002l.166.973.948-.27c.626-.178 1.34-.708 2.12-1.575 1.144-1.272 2.168-3.348 3.042-6.17.757-2.45 1.938-6.755 3.512-12.799 2.145-8.236 2.524-9.613 2.623-9.932l.207-.673.627-.32c1.723-.884 3.929-1.163 6.585-.829 1.898.24 4.519.78 5.35 2.689l.227.522-.14.553c-.071.287-.926 3.552-2.77 10.587-1.637 6.244-2.89 11.328-3.723 15.112l-.71 3.224 2.229-2.436c.458-.5.945-1.112 1.447-1.818l.094-.132.041-.157a7958.07 7958.07 0 013.225-12.286l.115-.436.32-.32c.68-.682 1.765-1.047 3.626-1.221 1.53-.142 3.124-.05 4.752.27 1.382.274 2.425.714 3.187 1.345l.477.394.534-.312c.733-.427 1.615-.813 2.695-1.178a11.01 11.01 0 014.455-.548c2.076.185 3.84 1.096 5.097 2.634 1.187 1.45 1.908 3.215 2.147 5.245.225 1.924.014 4.058-.626 6.342-.176.628-1.835 6.246-5.665 9.857l-.068.06c-1.91 1.62-4.278 2.659-7.04 3.089a14.45 14.45 0 01-5.725-.274l-.854-.213-3.534 13.894c-.44 1.802-2.546 2.303-4.333 2.538-1.963.257-3.888.237-5.718-.062-1.171-.19-2.607-.545-3.319-1.596a2.3 2.3 0 01-.348-1.795l.017-.071c1.023-3.968 2.046-7.919 3.065-11.847l.426-1.643zm4.773 18.375c.957 0 1.941-.066 2.928-.195 1.246-.164 5.037-.664 5.819-3.866l3.103-12.2c1.865.363 3.733.4 5.563.114 3.09-.48 5.752-1.654 7.912-3.485l.138-.123c4.178-3.94 5.967-9.991 6.156-10.669.703-2.508.932-4.872.68-7.026-.278-2.372-1.131-4.445-2.535-6.16-1.566-1.916-3.75-3.05-6.313-3.277-1.733-.15-3.49.064-5.177.634a17.85 17.85 0 00-2.501 1.04c-.92-.625-2.066-1.068-3.481-1.348-1.797-.354-3.562-.454-5.261-.297-2.13.2-3.496.658-4.478 1.513 1.654-6.316 2.398-9.156 2.467-9.436l.286-1.137-.468-1.075c-1.19-2.738-4.424-3.445-6.752-3.739-3.02-.38-5.567-.04-7.614 1.01l-1.291.66-.428 1.387c-.112.364-.514 1.83-2.644 10.008-1.567 6.018-2.741 10.298-3.49 12.722-.797 2.575-1.695 4.428-2.667 5.509l-.001.001a29.65 29.65 0 01.47-2.048c2.858-11.147 4.985-19.087 6.32-23.598l.375-1.269-.57-1.194c-1.296-2.707-4.571-3.31-6.921-3.529-3.15-.292-5.53.092-7.363 1.18l-.455.27-.352.394c-.845.944-2.172 1.739-3.945 2.362-2.129.748-4.123 1.268-5.926 1.543a20.196 20.196 0 00-6.962 2.439c-2.666 1.519-4.377 3.727-5.086 6.565-1.033 4.127.206 7.732 3.487 10.15 3.013 2.222 6.512 2.835 10.14 1.764l.191-.057.308-.134c.156-.074.308-.154.456-.241-1.578 5.996-1.344 10.515.71 13.8 2.17 3.475 5.797 5.237 10.777 5.237.13 0 .263-.001.398-.005 3.036-.058 5.747-.858 8.074-2.377 1.633 1.56 3.951 2.379 6.76 2.379 1.157 0 2.309-.143 3.442-.426a7050.39 7050.39 0 00-2.67 10.326l-.024.1a4.062 4.062 0 00.607 3.188c1.091 1.612 2.978 2.103 4.5 2.351 1.077.176 2.19.265 3.308.265z"/><path d="M22.12 34.138c1.003-.573 2.519-.734 4.546-.484 2.026.251 3.272.753 3.739 1.506-1.614 2.547-2.995 6.115-4.143 10.706 2.402.072 4.42-.323 6.052-1.183 1.632-.861 2.753-2.51 3.363-4.95.717-2.869.323-5.047-1.184-6.537-1.506-1.487-3.658-2.321-6.456-2.501-1.865-.107-3.595-.027-5.191.242-1.596.27-3.022.745-4.277 1.426-1.256.682-2.144 1.668-2.663 2.959-.52 1.29-.547 2.833-.08 4.626-.144.861-.96 1.73-2.448 2.61-1.49.879-2.861 1.246-4.116 1.102-1.291-.358-2.296-1.013-3.013-1.963-.718-.95-1.058-2.125-1.022-3.524.035-2.833 1.157-5.272 3.363-7.317 2.206-2.044 4.993-3.532 8.365-4.465 3.371-.932 7.101-1.38 11.19-1.345 2.51 0 4.914.315 7.209.942s4.358 1.542 6.187 2.743a11.23 11.23 0 014.116 4.788c.914 1.991 1.156 4.223.726 6.698-.288 1.722-.95 3.354-1.99 4.896-1.042 1.542-2.467 2.932-4.278 4.17-1.811 1.237-4 2.08-6.563 2.528-2.565.449-5.515.422-8.85-.081a271.151 271.151 0 00-.968 4.008 137.84 137.84 0 00-.835 3.793 71.857 71.857 0 01-.457 2.152c-.574.896-2.305 1.39-5.19 1.48-2.889.089-4.458-.35-4.708-1.319 3.73-15.996 6.921-25.231 9.576-27.706zm34.484 2.206c1.756 0 3.191-.475 4.303-1.426 1.112-.95 1.794-2.16 2.045-3.631.215-1.363-.08-2.537-.888-3.524-.807-.986-2-1.497-3.577-1.533-1.579-.036-2.914.43-4.008 1.398-1.095.969-1.785 2.188-2.072 3.659-.287 1.327-.009 2.501.834 3.523.843 1.023 1.964 1.534 3.363 1.534zm-3.282 26.738c5.057-.216 9.414-3.371 13.073-9.469.108-.25-.215-.636-.969-1.156-.753-.52-1.255-.637-1.506-.35-2.151 3.372-4.16 5.057-6.025 5.057-.538 0-.87-.215-.995-.646-.127-.43-.1-1.148.08-2.152.108-.717.323-1.721.646-3.012.323-1.292.761-2.96 1.318-5.004a384.75 384.75 0 001.318-4.95c-.646-1.003-2.251-1.63-4.815-1.882-2.565-.25-4.242-.035-5.03.646-1.794 6.384-3.103 11.423-3.927 15.117-.574 2.475-.35 4.43.672 5.864 1.022 1.434 3.075 2.08 6.16 1.937z"/><path d="M85.332 39.303c1.829.036 3.093.681 3.793 1.937.7 1.255.78 2.958.242 5.11-.108.503-.457 1.704-1.05 3.605-.591 1.901-.977 3.3-1.156 4.196-.215.933-.215 1.668 0 2.206s.52.807.915.807c.86-.036 1.82-.538 2.878-1.507 1.057-.968 1.998-2.133 2.824-3.497.215-.357.717-.277 1.506.243.79.52 1.13.924 1.023 1.21-3.551 6.133-7.909 9.289-13.073 9.469-3.05.107-5.049-.592-6-2.098-.95-1.507-1.084-3.551-.402-6.133.86-3.228 1.452-5.542 1.775-6.94.322-1.184.09-1.776-.7-1.776-.789 0-1.667.377-2.635 1.13-.324 1.183-1.543 6.044-3.659 14.579-.144.538-1.112.932-2.905 1.184-1.793.25-3.523.25-5.191 0-1.668-.252-2.412-.717-2.233-1.399.574-2.187 1.488-5.73 2.744-10.625 1.254-4.896 2.206-8.509 2.851-10.84.968-.646 2.708-.852 5.218-.619 2.51.233 4.053.816 4.627 1.748l-.538 1.776c3.551-2.547 6.6-3.802 9.146-3.766zm18.874 11.513c-.646 0-1.058-.485-1.238-1.453-.18-.969-.072-1.937.323-2.905.394-.969.969-1.453 1.721-1.453h10.115c.753 0 1.237.484 1.453 1.453.215.968.134 1.936-.243 2.905-.376.968-.923 1.453-1.64 1.453zm38.528-24.747c1.147-.681 2.878-.915 5.191-.7 2.314.215 3.667.735 4.062 1.56-1.327 4.484-3.408 12.249-6.24 23.295-.396 1.506-.638 2.753-.727 3.739-.09.987.045 1.82.403 2.502.359.681 1.005 1.022 1.937 1.022 1.184 0 2.421-.717 3.712-2.152 1.292-1.435 2.403-3.659 3.336-6.671.753-2.439 1.91-6.653 3.47-12.643 1.56-5.99 2.412-9.217 2.556-9.684 1.398-.717 3.235-.932 5.514-.645 2.277.287 3.595.843 3.954 1.668-.073.287-.978 3.747-2.717 10.382-1.74 6.636-3.022 11.872-3.847 15.71-.287 1.148-.368 1.99-.242 2.528s.287.87.485.996c.197.126.457.17.78.134 1.614-.18 3.46-1.83 5.541-4.95.179-.179.465-.196.86-.053.395.143.781.385 1.157.726.377.341.53.6.457.78-1.219 2.367-3.048 4.538-5.487 6.51-2.44 1.972-4.985 2.959-7.639 2.959-3.372 0-5.272-1.453-5.703-4.358-2.26 2.833-5.237 4.285-8.93 4.358-3.838.071-6.52-1.112-8.043-3.551-1.525-2.439-1.587-6.204-.189-11.298.143-.573.727-2.788 1.749-6.644a589.097 589.097 0 012.556-9.388c-.503.646-1.408 1.203-2.717 1.668a51.69 51.69 0 00-3.713 1.48c-1.165.52-1.892 1.21-2.178 2.07-.503 1.4-.198 2.548.914 3.444.25.43.17 1.139-.242 2.125-.413.987-.96 1.64-1.64 1.963-2.548.754-4.88.35-6.995-1.21-2.116-1.56-2.833-3.703-2.151-6.429.465-1.864 1.595-3.308 3.389-4.33a16.393 16.393 0 015.675-1.991c1.99-.304 4.134-.86 6.43-1.668 2.295-.807 4.052-1.891 5.272-3.254z"/><path d="M183.298 56.68c-1.436 1.076-2.924 1.076-4.466 0a1733.49 1733.49 0 012.475-9.361c1.65-1.255 2.959-1.542 3.927-.861.969.682 1.857 7.29-1.936 10.221zm7.692-17.377a9.061 9.061 0 00-3.71.457c-1.22.413-2.172.86-2.852 1.345-.682.484-1.543 1.156-2.583 2.017l.7-2.044c-.467-.717-1.426-1.219-2.879-1.506-1.452-.287-2.85-.367-4.196-.243-1.345.127-2.198.369-2.556.727a7170.956 7170.956 0 00-9.63 36.96c-.142.645.61 1.102 2.26 1.371 1.65.269 3.362.287 5.138.054 1.775-.234 2.734-.655 2.878-1.264l3.927-15.44c2.475 1.075 4.923 1.426 7.344 1.049 2.42-.377 4.456-1.265 6.106-2.664 2.796-2.635 4.537-6.885 5.11-8.93.574-2.044.763-3.908.566-5.595-.198-1.685-.78-3.12-1.749-4.304-.968-1.183-2.26-1.847-3.874-1.99z"/></g><path fill="#040405" d="M155.824 4.517c-.645.562-2.607.963-4.506 1.35-3.176.649-7.13 1.456-10.97 3.8-6.858 4.184-9.749 15.22-10.047 16.426l-.24-.122-.48-.046a7.936 7.936 0 00-.735-.032c-1.632 0-3.393.446-3.589.497l-.976.255-.528.859a4.827 4.827 0 00-.023.036c-2.698-2.2-6.018-3.36-9.664-3.36-11.562 0-24.237 11.508-25.118 22.802l-.374 4.807 4.153-2.45c3.188-1.882 5.877-2.758 8.462-2.758 1.883 0 3.617.459 5.453.944 2.042.54 4.356 1.153 7.073 1.153 3.146 0 6.388-.828 9.91-2.53l.59-.284c1.627 1.2 3.176 1.491 4.283 1.491 4.148 0 6.965-3.78 7.272-4.211l.173-.243.112-.276c.27-.668.517-1.473.704-2.364l1.071-.256c11.457-2.727 21.03-7.13 22.153-33.491l.25-5.848z"/><path fill="#dc061f" d="M124.528 29.144c-10.565-9.773-30.265 3.89-31.299 17.17 14.24-8.405 16.625 3.696 31.082-3.29-2.232-2.383-1.3-15.15.215-13.378zm9.97-3.239s2.642-11.119 8.935-14.96c6.294-3.84 13.275-3.178 15.82-5.401-1.086 25.511-10.088 28.742-20.227 31.156-1.63-7.809-4.528-10.795-4.528-10.795z"/><path fill="#dc061f" d="M127.668 27.956s-5.75 9.341-1.147 14.171c4.605 4.831 8.984-1.305 8.984-1.305s3.687-9.132-4.381-13.26c-1.427-.135-3.456.394-3.456.394z"/><g clip-path="url(#a)"><path fill="#fff" d="M137.507 22.325a3.764 3.764 0 117.528 0 3.764 3.764 0 01-7.528 0zm12.115-13.624a3.764 3.764 0 117.527 0 3.764 3.764 0 01-7.527 0zm-1.923 18.876a3.764 3.764 0 117.527 0 3.764 3.764 0 01-7.527 0z"/></g><g clip-path="url(#b)"><path fill="#fff" d="M123.957 32.05a3.764 3.764 0 117.527 0 3.764 3.764 0 01-7.527 0zm6.958 9.225a2.702 2.702 0 115.403 0 2.702 2.702 0 01-5.403 0z"/></g><g clip-path="url(#c)"><path fill="#fff" d="M112.35 29.68a2.661 2.661 0 115.322 0 2.661 2.661 0 01-5.323 0zm-12.871 6.54a3.764 3.764 0 117.527 0 3.764 3.764 0 01-7.527 0zm11.481 7.069a3.764 3.764 0 117.528 0 3.764 3.764 0 01-7.528 0z"/></g></svg>