<svg xmlns="http://www.w3.org/2000/svg" width="217" height="51"><path fill="#328a27" d="M12.132 25.122l1.44-6.91h.34l1.353 6.774.805 3.668h-4.828zm7.07 16.142c.088.34.24.562.467.663.227.09.51.138.849.138h6.391c.344 0 .53-.113.574-.329a1.07 1.07 0 00-.024-.568l-8.34-29.17c-.2-.694-.418-1.23-.657-1.619-.24-.395-.508-.688-.807-.877a2.331 2.331 0 00-1.012-.354c-.383-.047-.83-.065-1.332-.065h-3.433c-.962 0-1.708.18-2.245.537-.536.364-.99 1.171-1.354 2.42L-.064 41.168c-.056.251-.05.466.021.64.069.173.248.257.529.257h6.222c.484 0 .801-.084.955-.256.156-.175.291-.437.404-.784l1.395-5.412h8.346zm36.394-.19c0 .382-.053.632-.149.776-.098.143-.388.215-.866.215h-6.016c-.648 0-.97-.34-.97-.991V16.748h-9.404v24.326c0 .382-.047.632-.146.776-.102.143-.391.215-.865.215h-6.02c-.649 0-.974-.34-.974-.991V12.231c0-1.034.17-1.81.508-2.33.341-.52 1.088-.776 2.247-.776h19.902c1.158 0 1.908.256 2.246.776.337.52.507 1.296.507 2.33zM81.443 16.61h-7.241v24.464c0 .381-.05.632-.145.775-.102.144-.392.216-.87.216h-6.013c-.651 0-.973-.34-.973-.991V16.61h-7.074c-.591 0-.89-.365-.89-1.082V10.26c0-.539.066-.861.191-.975.123-.1.359-.16.699-.16h22.316c.34 0 .573.06.7.16.124.114.191.436.191.975v5.268c0 .717-.294 1.082-.89 1.082m23.871 25.455H92.229c-1.69 0-3.067-.275-4.128-.8-1.058-.533-1.89-1.231-2.495-2.097a7.706 7.706 0 01-1.25-2.891 15.12 15.12 0 01-.341-3.155V18.068c0-1.136.14-2.234.424-3.322a7.99 7.99 0 011.374-2.867c.636-.831 1.478-1.5 2.521-2.001 1.045-.503 2.315-.753 3.812-.753h12.494c.338 0 .558.06.654.16.102.114.15.436.15.975v5.304c0 .419-.057.687-.17.837-.114.137-.326.209-.634.209H94.563c-.568 0-1.02.09-1.357.256a1.933 1.933 0 00-.765.634c-.17.257-.28.532-.34.848a5.69 5.69 0 00-.084.938v1.983h11.35c.341 0 .56.061.658.186.098.131.149.453.149.986v4.893c0 .723-.269 1.08-.806 1.08h-11.35v3.532c0 .596.065 1.069.193 1.409.126.347.302.604.528.777.225.179.494.286.805.334.31.042.648.066 1.019.066h10.752c.34 0 .56.06.657.167.102.114.15.43.15.968v5.317c0 .722-.27 1.081-.807 1.081m23.182-17.504c.732.281 1.338.603 1.819.962.48.359.876.771 1.19 1.224.31.454.554.975.737 1.548.182.591.361 1.225.529 1.912l2.625 10.914c.057.162.066.358.021.585-.042.245-.248.36-.613.36h-6.353c-.14 0-.295-.03-.463-.097-.17-.065-.299-.25-.382-.567l-2.667-9.875c-.197-.76-.445-1.374-.744-1.858a3.563 3.563 0 00-1.057-1.14 3.859 3.859 0 00-1.461-.532c-.564-.102-1.216-.144-1.948-.144h-1.908l.044 13.46c0 .346-.057.555-.17.639-.114.072-.313.113-.594.113h-6.516c-.256 0-.444-.041-.575-.113-.126-.084-.188-.293-.188-.64V9.879c0-.347.062-.557.188-.634.131-.077.319-.12.575-.12h6.557c.285 0 .481.043.595.12.114.077.143.287.084.634v11.667h2.034c.421 0 .872-.025 1.334-.09a3.37 3.37 0 001.333-.49c.424-.275.812-.662 1.168-1.183.35-.514.642-1.23.867-2.139l1.95-7.951c.054-.317.176-.496.359-.567.18-.06.345-.096.487-.096h6.266c.367 0 .573.126.615.352.039.24.033.436-.02.592l-2.035 8.423c-.284 1.315-.74 2.485-1.374 3.507-.636 1.021-1.407 1.822-2.309 2.425zm20.915.561l1.443-6.91h.337l1.357 6.774.803 3.668h-4.824zm7.074 16.142c.086.34.241.562.468.663a2.3 2.3 0 00.846.138h6.398c.334 0 .525-.113.568-.329.04-.22.035-.412-.022-.568l-8.343-29.17c-.196-.694-.415-1.23-.66-1.619-.235-.395-.505-.688-.798-.877a2.391 2.391 0 00-1.017-.354 11 11 0 00-1.336-.065h-3.432c-.956 0-1.705.18-2.24.537-.537.364-.988 1.171-1.359 2.42l-8.337 29.128c-.06.251-.05.466.02.64.07.173.243.257.527.257h6.224c.481 0 .801-.084.956-.256.153-.175.287-.437.4-.784l1.399-5.412h8.34z"/><path fill="#c10010" d="M192.22.77c-12.675 0-24.785 10.318-24.647 24.095.152 15.28 14.491 24.133 28.557 22.542.146-.02.282-.055.42-.078v.016c-.134.016-.276.043-.42.062a33.552 33.552 0 01-22.46-5.476c4.54 5.14 11.16 8.393 18.55 8.393 13.688 0 24.78-11.092 24.78-24.776C217 11.858 205.908.77 192.22.77"/><path fill="#fff" d="M201.626 6.996l-.073 3.485c-.011.46-.134.744-.363.856-.135.062-.233.024-.298-.101a.97.97 0 01-.085-.475l.081-3.384c-.008-.217.111-.385.368-.512.187-.09.307-.086.363.027zm3.06 1.937a1.865 1.865 0 01-.463.35c-.16.082-.275.06-.336-.061a.529.529 0 01-.046-.258c.01-.552.015-1.026.03-1.439.009-.411.016-.75.016-1.018l.04-1.77-1.522.751-.011.358c-.436-.172-.929-.129-1.472.14-.738.365-1.304.964-1.699 1.804a5.689 5.689 0 00-.531 2.307l-.015.552c-.013.731.07 1.276.241 1.626.332.672 1.08.72 2.246.147.508-.253.885-.614 1.128-1.1.185.264.456.307.825.132.553-.28 1.095-.693 1.612-1.225zm-6.266 3.073a2.1 2.1 0 01-.46.35c-.166.081-.281.063-.339-.062a.532.532 0 01-.044-.265l.094-3.526-2.374.013h-.017l-.111 5.22a.623.623 0 01-.375.576c-.153.074-.257.062-.307-.042-.01-.016-.021-.07-.041-.156l.058-2.652-2.372-.02-.075 3.827c-.011.261-.137.451-.391.58-.143.066-.24.054-.293-.055a.665.665 0 01-.033-.151l.085-4.216-2.253-.028-.068 3.54-.012.004-.008.743c-.005.49.07.902.238 1.244.338.688.894.84 1.66.463.802-.385 1.361-.93 1.69-1.63.376.354.856.39 1.424.105.764-.37 1.284-.852 1.553-1.446.156.127.337.205.553.23.21.022.422-.017.643-.13.56-.268 1.103-.68 1.62-1.225zm-12.55 2.722l-.08 3.49c-.008.45-.127.73-.36.852-.136.065-.23.03-.297-.106a.879.879 0 01-.084-.47l.084-3.392c-.017-.214.106-.381.359-.51.191-.089.31-.07.363.035zm3.055 1.934a1.748 1.748 0 01-.46.35c-.167.082-.275.058-.34-.067a.478.478 0 01-.04-.251c.004-.542.017-1.029.022-1.44.009-.405.018-.747.022-1.02l.04-1.765-1.521.747-.012.358c-.44-.168-.93-.118-1.469.144-.74.357-1.305.964-1.707 1.8a5.972 5.972 0 00-.532 2.306l-.009.553c-.013.735.066 1.275.236 1.626.33.673 1.083.723 2.252.147.509-.248.88-.61 1.126-1.096.18.26.453.303.822.124.562-.272 1.097-.685 1.62-1.22zm12.249 21.648c0 .338-.119.509-.348.509h-5.13c-.243 0-.36-.17-.36-.51V37.01c0-.237.019-.392.07-.443.047-.05.146-.074.29-.074h5.13c.146 0 .242.024.281.074.045.05.067.206.067.443zm-2.349-5.815c-.133.269-.33.401-.581.401-.25 0-.45-.12-.584-.35-.126-.238-.194-.63-.194-1.187 0-.995.259-1.493.778-1.493.523 0 .78.513.78 1.54 0 .463-.07.832-.199 1.09m1.964-4.058c-.556-.71-1.41-1.069-2.545-1.069-1.111 0-1.955.358-2.52 1.081-.569.732-.851 1.7-.851 2.937 0 .607.06 1.163.18 1.66.117.498.317.919.588 1.26.275.35.625.612 1.05.802.433.19.948.284 1.553.284 1.156 0 2.014-.354 2.568-1.062.546-.708.824-1.687.824-2.944 0-1.25-.285-2.229-.847-2.949"/><path fill="#fff" d="M213.048 12.12l-24.407 12.542a.996.996 0 00-.056.055c-.05.081-.072.229-.072.432v9.302h-.154l-1.394-3.13-2.552-5.539a3.577 3.577 0 00-.37-.653c-.12-.16-.244-.28-.38-.362a1.33 1.33 0 00-.47-.144 7.616 7.616 0 00-.63-.02h-1.137c-.606 0-1.023.137-1.254.42-.224.28-.333.837-.333 1.654v15.818c0 .37.165.556.496.556h3.098c.247 0 .395-.039.448-.117.05-.085.076-.23.076-.44v-9.302h.15l1.463 3.325 2.483 5.343c.133.284.254.503.374.666.113.151.239.272.375.35.14.082.298.132.47.147.174.016.382.028.629.028h1.136c.653 0 1.077-.202 1.283-.596.208-.388.306-.894.306-1.492V27.245l22.363-11.494a24.622 24.622 0 00-1.94-3.631"/><path fill="#fff" d="M212.99 39.065c-.008-.013-.015-.013-.02-.016-.077-.05-.231-.07-.458-.07h-2.11V25.475c0-.478-.084-.86-.241-1.14a1.408 1.408 0 00-.67-.614 2.43 2.43 0 00-.986-.183c-.364 0-.754.05-1.153.175l-5.096 1.334c-.267.07-.423.187-.462.316-.033.132-.05.284-.05.454v2.621c0 .262.043.428.126.499.084.066.272.073.553.015l2.821-.514v10.54h-1.74c-.23 0-.38.02-.452.07-.081.043-.116.23-.116.557v2.843c0 .241.043.412.13.49.082.074.23.113.438.113h6.254a24.94 24.94 0 003.232-3.986m-44.432-21.062c.127-.408.263-.808.407-1.205l6.94-3.435c1.012-.498 1.702-.669 2.073-.51.325-.532.922-1.01 1.791-1.446.53-.26 1.04-.42 1.53-.482.622-.07 1.018.062 1.185.408.065.133.094.28.086.467l-.025.91c-.01.646-.219 1.31-.628 1.983a5.529 5.529 0 01-1.492 1.646c.902-.187 1.511.035 1.833.689.12.232.171.513.166.836l-.021.836c-.02 1.045-.514 2.053-1.47 3.026-.734.767-1.65 1.412-2.728 1.936l-2.566 1.257.223-9.915a.247.247 0 00-.03-.116c-.046-.093-.152-.152-.312-.175a.677.677 0 00-.43.05l-6.532 3.24m9.739-.848c1.206-1.167 1.815-2.057 1.826-2.68l.045-1.286a.678.678 0 00-.071-.32c-.152-.31-.452-.358-.893-.14-.54.265-.815.716-.82 1.335zm-.107 4.937a.378.378 0 00.025.179c.046.081.123.1.25.038.153-.074.329-.233.527-.47.66-.81.997-1.58 1.02-2.314l.017-.682a1.004 1.004 0 00-.102-.497c-.218-.444-.762-.63-1.643-.549z"/></svg>