<svg xmlns="http://www.w3.org/2000/svg" width="211" height="118"><path fill="#898989" d="M124.996 34.054l10.149 5.781v-5.878l-10.15-5.78z"/><path fill="#efefef" d="M75.067 17.644l36.27-17.11 10.09 4.647 8.732 17.77 7.15-10.38 10.243 4.951-36.227 21.056-10.22-5.9-8.03 9.505L85.14 23.46z"/><path fill="#898989" d="M111.325 38.52l-.119 41.685-11.117-6.44 22.273-29.52-36.3 21.337-11.054-6.372.059-41.624 10.073 5.816 7.935 18.723 8.03-9.505z"/><path fill="#545454" d="M93.341 53.105l-.234 8.336 7.95-4.673-.234-6.724z"/><path fill="#898989" d="M22.432 117.882h-6.805v-11.655l-4.34 6.59-4.341-6.59v11.655H.14V94.408h6.22l4.927 7.922 4.928-7.922h6.218zm13.061-18.344v8.15h-3.128v-8.15zm-3.128 18.344v-5.325h3.128v5.325h7.118V94.408H30.879l-5.632 4.675v18.799zm20.178 0h-7.117V94.408h13.413v5.195h-6.296z"/><path fill="#d90010" d="M83.24 117.882h-6.804v-11.655l-4.34 6.59-4.342-6.59v11.655H60.95V94.408h6.218l4.927 7.922 4.928-7.922h6.218z"/><path fill="#898989" d="M96.302 99.538v8.15h-3.128v-8.15zm-3.128 18.344v-5.325h3.128v5.325h7.118V94.408H91.688l-5.631 4.675v18.799zm22.798-8.702h-9.385v-4.025h9.385z"/><path fill="#d90010" d="M123.558 94.408h7.822l4.653 3.344v5.065h-7.117v-3.214h-2.815v13.084h2.815v-3.311h7.117v5.13l-4.653 3.376h-7.822l-4.575-3.376V97.752z"/><path fill="#898989" d="M149.134 117.882h-7.118v-18.28h-4.224v-5.194h15.525v5.195h-4.183zm13.334-18.279h2.23v5.65h-2.23zm0 10.714h4.42l4.926-3.376v-9.189l-4.966-3.344h-11.497v23.474h7.117zm21.625-10.714v13.084h-2.698V99.603zm2.582 18.279l4.535-3.376V97.752l-4.535-3.344h-7.822l-4.575 3.344v16.754l4.575 3.376zm13.569-24.091h4.106l3.52-2.921v-1.462h-5.006v1.396h-1.134v-1.396h-4.927v1.494zm-6.374 24.09h6.14l4.34-7.661v7.662h6.335V94.408h-6.335v5.13l-4.145 6.591V94.41h-6.335z"/><path fill="#dcdcdc" d="M85.133 23.524L121.427 5.18 111.337.535l-36.25 17.128zm15.924 9.25l36.252-20.202 10.243 4.95-36.448 21.112zm46.489 11.642l-10.15-5.782-12.4 7.076 10.149 5.78z"/><path fill="#898989" d="M124.996 51.587l10.149 5.782V51.49l-10.15-5.781z"/><path fill="#dcdcdc" d="M123.726 63.883l11.419-6.514-10.15-5.782-11.418 6.515z"/><path fill="#d90010" d="M111.084 38.654l.122 41.551 36.34-21.012V44.416l-12.401 7.075v5.878l-11.419 6.514V40.66l11.419-6.515v5.705l12.4-7.075v-8.99l.007-6.263z"/><path fill="#a50011" d="M111.206 80.206l-11.116-6.383V53.175l-6.983 8.266-7.046-16.448V65.64l-11.053-6.373.059-41.623 10.047 5.86 7.961 18.678 7.963-9.389 10.046 5.86z"/></svg>