<svg xmlns="http://www.w3.org/2000/svg" width="141" height="138"><path fill="#d9000d" d="M23.771 131.221c0-.661-.011-1.23-.046-1.752h.894l.034 1.102h.047c.255-.754.87-1.23 1.555-1.23.116 0 .197.011.29.035v.963a1.541 1.541 0 00-.348-.035c-.72 0-1.23.546-1.37 1.312a2.9 2.9 0 00-.046.476v2.994h-1.01zm4.259.511c.082-.708.534-1.66 1.567-1.66 1.15 0 1.428 1.01 1.416 1.66zm3.935.73c.012-.104.035-.266.035-.475 0-1.033-.487-2.646-2.321-2.646-1.637 0-2.635 1.335-2.635 3.029 0 1.695 1.033 2.844 2.762 2.844.894 0 1.51-.197 1.869-.36l-.174-.731c-.383.162-.824.29-1.555.29-1.022 0-1.904-.57-1.927-1.95zm5.13.268c0 .163-.012.302-.047.441-.186.766-.812 1.219-1.497 1.219-1.103 0-1.66-.94-1.66-2.078 0-1.242.627-2.17 1.683-2.17.766 0 1.323.534 1.474 1.184.035.127.047.301.047.43zm0-5.885v3.355h-.024c-.255-.453-.835-.86-1.694-.86-1.37 0-2.53 1.15-2.519 3.018 0 1.707 1.045 2.856 2.403 2.856.917 0 1.601-.476 1.915-1.103h.023l.047.975h.916a18.226 18.226 0 01-.046-1.45v-6.79zm3.295 4.887c.081-.708.535-1.66 1.567-1.66 1.15 0 1.428 1.01 1.416 1.66zm3.935.73c.011-.104.035-.266.035-.475 0-1.033-.488-2.646-2.322-2.646-1.636 0-2.634 1.335-2.634 3.029 0 1.695 1.033 2.844 2.762 2.844.894 0 1.51-.197 1.869-.36l-.174-.731c-.383.162-.824.29-1.555.29-1.022 0-1.904-.57-1.927-1.95zm1.16 1.579c.302.198.836.407 1.346.407.744 0 1.092-.371 1.092-.836 0-.488-.29-.755-1.045-1.033-1.01-.36-1.486-.917-1.486-1.59 0-.906.731-1.648 1.938-1.648.57 0 1.068.162 1.382.348l-.256.743a2.185 2.185 0 00-1.149-.325c-.603 0-.94.348-.94.765 0 .465.337.674 1.068.953.975.37 1.474.859 1.474 1.694 0 .987-.766 1.695-2.1 1.695-.616 0-1.185-.163-1.58-.395zm4.735 1.045v-5.617h1.022v5.617zm1.138-7.196c.011.348-.244.627-.65.627a.608.608 0 01-.615-.627c0-.36.267-.638.638-.638.383 0 .627.278.627.638zm5.362 4.805c0 .174-.023.371-.081.546-.22.65-.79 1.044-1.417 1.044-1.102 0-1.66-.916-1.66-2.02 0-1.3.697-2.124 1.672-2.124.743 0 1.242.488 1.428 1.08.046.14.058.29.058.464zm1.01-1.683c0-.685.022-1.138.046-1.543h-.894l-.046.847h-.024c-.243-.465-.777-.975-1.752-.975-1.288 0-2.53 1.08-2.53 2.983 0 1.555.998 2.739 2.39 2.739.871 0 1.474-.418 1.788-.94h.023v.627c0 1.415-.766 1.961-1.81 1.961-.697 0-1.277-.209-1.648-.441l-.256.778c.453.301 1.196.464 1.869.464.708 0 1.497-.163 2.043-.674.545-.487.8-1.276.8-2.564zm1.624-.023c0-.58-.012-1.057-.047-1.52h.906l.058.928h.023c.279-.534.928-1.056 1.857-1.056.778 0 1.985.464 1.985 2.39v3.355h-1.022v-3.238c0-.905-.336-1.66-1.3-1.66-.673 0-1.195.476-1.37 1.045a1.473 1.473 0 00-.069.475v3.378h-1.021zm11.211-3.157c.638 0 .905.534.905 1.01 0 .661-.51 1.08-1.3 1.532-.336-.418-.592-.847-.592-1.404 0-.604.337-1.138.975-1.138zm-.22 6.616c-.94 0-1.603-.685-1.603-1.579 0-.824.593-1.323 1.01-1.59.87.998 1.741 1.95 2.205 2.46-.37.407-.94.709-1.601.709zm4.05.638c-.464-.499-.87-.94-1.288-1.381.58-.685.916-1.66 1.125-2.89h-.928c-.151.986-.394 1.74-.754 2.286a187.973 187.973 0 01-1.904-2.182v-.034c1.242-.616 1.718-1.266 1.718-2.09 0-1.01-.754-1.66-1.73-1.66-1.3 0-1.984.976-1.984 1.927 0 .557.243 1.126.65 1.637v.035c-.894.487-1.532 1.219-1.532 2.286 0 1.172.882 2.194 2.402 2.194.859 0 1.614-.267 2.287-.894.302.325.51.546.731.766zm3.342-3.865c0-.661-.012-1.23-.047-1.752h.894l.035 1.102h.047c.255-.754.87-1.23 1.554-1.23.117 0 .198.011.291.035v.963a1.544 1.544 0 00-.348-.035c-.72 0-1.23.546-1.37 1.312a2.9 2.9 0 00-.046.476v2.994h-1.01zm4.259.511c.081-.708.534-1.66 1.567-1.66 1.149 0 1.427 1.01 1.416 1.66zm3.935.73c.012-.104.035-.266.035-.475 0-1.033-.488-2.646-2.322-2.646-1.637 0-2.635 1.335-2.635 3.029 0 1.695 1.034 2.844 2.763 2.844.894 0 1.509-.197 1.868-.36l-.173-.731c-.383.162-.825.29-1.556.29-1.02 0-1.904-.57-1.926-1.95zm5.304 2.415c-.267.14-.86.337-1.614.337-1.695 0-2.797-1.161-2.797-2.879 0-1.73 1.184-2.983 3.018-2.983.603 0 1.137.151 1.416.291l-.232.789c-.244-.14-.627-.267-1.184-.267-1.289 0-1.985.952-1.985 2.124 0 1.3.836 2.1 1.95 2.1.58 0 .963-.15 1.253-.278zm1.752-2.588c0-1.068.523-2.182 1.729-2.182 1.208 0 1.683 1.207 1.683 2.158 0 1.266-.731 2.183-1.706 2.183-.998 0-1.706-.929-1.706-2.159zm1.752-2.948c-1.555 0-2.785 1.103-2.785 2.983 0 1.776 1.172 2.89 2.693 2.89 1.358 0 2.797-.906 2.797-2.983 0-1.718-1.091-2.89-2.705-2.89zm4.306.128l1.103 3.157c.185.51.336.975.452 1.439h.036c.127-.464.289-.929.475-1.44l1.091-3.156h1.068l-2.206 5.617h-.974l-2.136-5.617zm5.652 2.263c.082-.708.534-1.66 1.567-1.66 1.15 0 1.428 1.01 1.416 1.66zm3.935.73c.011-.104.034-.266.034-.475 0-1.033-.487-2.646-2.321-2.646-1.636 0-2.634 1.335-2.634 3.029 0 1.695 1.032 2.844 2.761 2.844.895 0 1.51-.197 1.87-.36l-.175-.731c-.383.162-.824.29-1.555.29-1.021 0-1.903-.57-1.927-1.95zm1.298-1.241c0-.661-.011-1.23-.046-1.752h.894l.035 1.102h.046c.255-.754.87-1.23 1.556-1.23.116 0 .197.011.29.035v.963a1.536 1.536 0 00-.348-.035c-.72 0-1.231.546-1.37 1.312a2.9 2.9 0 00-.046.476v2.994h-1.01zm4.457-1.752l1.23 3.319c.128.372.268.813.36 1.149h.024c.104-.336.22-.766.36-1.172l1.114-3.296h1.08l-1.533 4.004c-.731 1.927-1.23 2.913-1.927 3.516-.499.442-.998.616-1.253.662l-.255-.858a2.73 2.73 0 00.893-.5c.279-.22.627-.615.859-1.137.046-.105.082-.186.082-.244a.895.895 0 00-.07-.267l-2.078-5.176z"/><path fill="#161615" d="M6.353 99.737v.73c-.872.035-1.427.296-1.664.782-.236.486-.355 1.08-.355 1.781v6.993l6.49-7.157c.043-.04.106-.117.187-.234.081-.116.172-.235.273-.358a1.97 1.97 0 00.332-.463c.103-.19.155-.352.155-.483 0-.184-.1-.364-.3-.539-.199-.175-.531-.274-.996-.296-.144 0-.278-.008-.4-.026v-.73h5.95v.73c-.794.105-1.438.33-1.934.676-.495.347-1.01.814-1.545 1.4l-4.227 4.601 5.063 8.696c.092.144.271.414.538.808.57.806 1.315 1.21 2.236 1.21v.73h-5.812v-.73h.375c.609 0 .914-.18.914-.54 0-.214-.189-.661-.566-1.34l-4.28-7.19-2.453 2.694v3.819c0 .7.119 1.293.355 1.778.237.484.792.744 1.664.778v.73h-6.2v-.73c.85-.021 1.4-.267 1.65-.736.25-.468.375-1.075.375-1.82v-12.27c0-.746-.125-1.354-.375-1.825-.25-.47-.8-.717-1.65-.739v-.73zm12.842 0h5.713v.723h-.348c-.72 0-1.079.18-1.079.54 0 .258.081.6.244 1.025l4.497 9.777h.158l3.635-8.594c.378-.88.566-1.481.566-1.8 0-.373-.151-.625-.454-.754a2.186 2.186 0 00-.861-.194h-.164v-.723h5.141v.723c-1.254.176-2.25 1.138-2.986 2.887l-5.282 12.571c-.5 1.188-1.088 1.992-1.766 2.413a4.171 4.171 0 01-2.246.631c-.873 0-1.58-.196-2.125-.589a3.287 3.287 0 01-1.164-1.456 4.655 4.655 0 01-.348-1.749c0-.451.126-.9.378-1.348.253-.447.63-.67 1.13-.67.774 0 1.16.438 1.16 1.315 0 .456-.162.914-.487 1.374-.215.333-.323.594-.323.782 0 .312.172.591.516.839.345.247.784.37 1.32.37.424 0 .826-.087 1.203-.262.377-.175.744-.522 1.102-1.039.357-.517.673-1.249.95-2.196l-5.494-11.69c-.316-.679-.666-1.187-1.05-1.525-.384-.338-.896-.557-1.536-.658zm19.531 0h6.22v.73c-.837.079-1.304.223-1.4.433v.348c.043.154.214.469.513.946l2.88 4.65 3.07-4.354c.504-.722.756-1.18.756-1.373 0-.28-.241-.46-.723-.539a11.53 11.53 0 00-.835-.111v-.73h5.595v.73c-.846.153-1.521.373-2.025.657-.505.285-.995.767-1.473 1.446l-3.715 5.304 5.037 8.045c.31.517.681.943 1.11 1.278.43.336 1.037.556 1.822.66v.73h-6.594v-.73c.534-.065.927-.134 1.18-.207.251-.072.378-.218.378-.437 0-.355-.233-.903-.697-1.644l-3.558-5.812-3.74 5.438c-.487.692-.73 1.185-.73 1.48 0 .726.53 1.121 1.59 1.182v.73h-5.549v-.73c1.153-.324 2.22-1.211 3.203-2.661l4.497-6.599-3.932-6.35c-.245-.38-.617-.767-1.114-1.16-.498-.391-1.086-.598-1.766-.62zm26.607 0v.73c-.723.026-1.236.243-1.539.65-.302.408-.453 1.045-.453 1.912v4.815h9.83v-4.815c0-.876-.151-1.516-.454-1.919-.302-.402-.815-.617-1.539-.643v-.73h6.115v.73c-.81.048-1.341.293-1.591.736s-.375 1.052-.375 1.827v12.27c0 .776.125 1.384.375 1.825.25.44.78.684 1.591.732v.73h-6.115v-.73c.724-.039 1.237-.258 1.539-.657.302-.4.454-1.032.454-1.9v-6.325h-9.83v6.325c0 .86.151 1.49.453 1.893.303.404.816.625 1.54.664v.73h-6.142v-.73c.829-.034 1.368-.274 1.618-.72.25-.444.375-1.056.375-1.836v-12.27c0-.78-.125-1.394-.375-1.841-.25-.447-.79-.688-1.618-.723v-.73zm26.07 9.75a13.85 13.85 0 01-1.828.132c-1.652 0-3.04-.36-4.162-1.078-1.122-.719-1.683-1.867-1.683-3.445 0-1.175.286-2.077.858-2.706.572-.629 1.208-1.04 1.91-1.233a7.458 7.458 0 011.973-.29h.755c.557 0 .982.037 1.276.11.294.072.517.24.67.506.154.265.23.678.23 1.24zm-3.577-9.75c-1.731 0-3.088.302-4.07.904-.982.603-1.645 1.315-1.988 2.137-.345.822-.517 1.63-.517 2.423 0 1.446.428 2.59 1.282 3.429a6.226 6.226 0 002.972 1.66l-3.228 5.549a18.35 18.35 0 01-.54.809c-.57.806-1.314 1.21-2.235 1.21v.73h6.003v-.73h-.348c-.824 0-1.236-.18-1.236-.54 0-.118.03-.24.092-.365.06-.125.159-.283.292-.476.134-.193.238-.36.313-.5l3.096-5.253h1.591c.877-.027 1.576-.09 2.098-.191v4.767c0 .754-.124 1.356-.372 1.808-.247.452-.797.701-1.647.75v.73h6.194v-.73c-.82-.035-1.361-.264-1.624-.684-.263-.421-.395-1.046-.395-1.874v-12.25c0-.775.147-1.366.44-1.77.294-.407.82-.68 1.579-.82v-.723zm16.589 3.255c0-.106.009-.195.027-.27v-.322c0-.39.05-.685.15-.884.102-.2.352-.358.753-.474.402-.116 1.051-.174 1.95-.174.745 0 1.472.08 2.18.243.708.163 1.365.594 1.972 1.295.607.702.91 1.76.91 3.176 0 1.434-.294 2.5-.884 3.202-.59.701-1.282 1.137-2.077 1.308-.796.171-1.746.257-2.85.257h-2.13v-7.357zm2.801 8.494l1.183-.059c.921-.04 1.855-.2 2.801-.483.947-.283 1.795-.853 2.542-1.71.747-.858 1.12-2.074 1.12-3.649 0-1.596-.472-2.97-1.416-4.121-.945-1.151-2.68-1.727-5.204-1.727h-7.95v.723c.82.036 1.353.279 1.598.73.246.451.369 1.043.369 1.775v12.387c0 .72-.12 1.308-.362 1.766-.24.458-.776.705-1.604.74v.73h6.28v-.73c-.742 0-1.287-.202-1.635-.605-.349-.403-.523-1.035-.523-1.898v-3.869zm27.256-11.019c.832.035 1.373.285 1.62.75.248.464.372 1.068.372 1.813v12.27c0 .75-.123 1.355-.369 1.815-.245.46-.786.708-1.623.742v.73h6.167v-.73c-.776-.034-1.307-.263-1.591-.683-.286-.42-.428-1.045-.428-1.873v-12.27c0-.829.142-1.454.428-1.874.284-.42.815-.65 1.59-.69v-.73h-6.166zm-12.039 8.047zm0 0c1.082-.162 2.016-.243 2.801-.243 1.2 0 2.178.159 2.932.477.754.318 1.322.733 1.703 1.246.382.512.633 1.05.756 1.61.123.562.184 1.156.184 1.782 0 1.153-.291 2.03-.874 2.634-.583.602-1.246.993-1.989 1.17a9.338 9.338 0 01-2.173.266 83.549 83.549 0 01-1.447-.02 3.798 3.798 0 01-1.018-.141 1.109 1.109 0 01-.648-.506c-.151-.252-.227-.613-.227-1.081zm.46-7.38c.307-.405.835-.628 1.585-.667v-.73h-6.227v.73c.855.048 1.406.302 1.654.763.248.46.371 1.068.371 1.826v12.218c0 .758-.123 1.366-.371 1.824-.248.458-.799.711-1.654.76v.73h9.46c1.183 0 2.199-.255 3.044-.764.847-.508 1.48-1.157 1.902-1.946.42-.789.63-1.6.63-2.432 0-.82-.141-1.68-.426-2.581-.285-.9-1.004-1.747-2.157-2.538-1.153-.79-2.877-1.187-5.174-1.187-.925 0-1.957.081-3.097.243v-4.328c0-.876.153-1.516.46-1.921z"/><g fill="#d9000d"><path d="M46.098 45.413l-2.023-2.023.758-.758 2.023 2.023zm11.474 7.864L37.036 32.742 26.99 42.79l12.1 12.1c4.659 4.658 12.211 4.658 16.87 0zm-7.854-11.485l-2.022-2.023.757-.758 2.023 2.023zm18.34.998l-12.1-12.1c-4.658-4.659-12.21-4.659-16.869 0l-1.168 1.167 20.535 20.535zM99.2 53.62a10.064 10.064 0 01-7.166 2.969c-1.845 0-3.615-.491-5.161-1.41l17.773-17.773 5.384 5.384zm-14.331 0l-4.45-4.449 17.953-17.953c.287.23.564.477.828.74l4.689 4.69-17.924 17.923a10.33 10.33 0 01-1.096-.95zM74.038 42.79l10.831-10.831a10.066 10.066 0 017.165-2.968c1.964 0 3.841.558 5.456 1.593l-17.829 17.83zm26.43-12.1c-4.658-4.659-12.21-4.659-16.868 0l-12.1 12.1 12.1 12.1c4.658 4.658 12.21 4.658 16.869 0l12.1-12.1z"/><path d="M90.632 44.95l-.758-.758 4.326-4.326.758.758zm-6.286-6.286l-.758-.758 4.326-4.325.758.757zm12.09 12.711l-.757-.758 4.326-4.326.757.758zM58.525 13.82l6.549 6.549-3.424 10.033-2.702-2.702a10.067 10.067 0 01-2.968-7.165c0-2.5.9-4.86 2.545-6.714zm9.592-9.62l9.865 9.866-8.369 1.763-6.562-6.563zm1.662 36.87l1.27-1.27-9.119-9.118 16.335-16.334 7.072 7.072a11.898 11.898 0 00-3.458-9.32L69.78 0l-12.1 12.1c-4.659 4.658-4.659 12.211 0 16.87zm9.099 12.053L61.056 70.945l-1.613-1.613c-3.166-3.165-4.173-7.666-3.037-11.689-3.326 4.66-2.91 11.167 1.27 15.349l12.101 12.1 2.688-2.687-8.564-8.564L79.85 57.893l1.612 1.613a11.877 11.877 0 013.482 8.187c1.085-3.992.07-8.436-3.066-11.57z"/><path d="M65.002 57.324c-1.243 1.244-1.778 2.727-1.192 3.313.585.585 2.068.051 3.312-1.193 1.244-1.244 1.778-2.727 1.193-3.312-.585-.586-2.068-.052-3.313 1.192z"/></g></svg>