<svg xmlns="http://www.w3.org/2000/svg" width="160" height="73"><path d="M.686 0h13.278v19.918L27.748 0h17.61l-15.59 19.918 16.31 32.837h-16.31l-9.02-21.65-6.857 8.804v12.846H.686z"/><path fill="#005b02" d="M48.605 0h13.278v52.755H48.605z"/><path d="M80.43 30.238c-1.37-1.804-2.092-3.247-2.02-4.185 0-.722.216-1.372.721-1.949.433-.577 1.083-.866 1.877-.866s1.443.217 1.876.722c.433.505.65 1.154.65 1.876s-.289 1.443-.794 2.237a8.374 8.374 0 01-2.31 2.165zm3.537 15.011c-1.732 1.3-3.248 1.949-4.619 1.949-1.299 0-2.31-.433-3.103-1.3-.794-.865-1.155-1.876-1.155-3.03 0-.722.144-1.444.505-2.093.361-.65 1.01-1.371 2.093-2.31 2.598 3.031 4.691 5.269 6.279 6.784zm5.268-9.02c-.217 1.01-.577 2.02-1.01 3.03a65.149 65.149 0 01-4.186-4.618c1.66-1.3 2.742-2.31 3.392-2.96a8.876 8.876 0 001.587-2.597 8.774 8.774 0 00.65-3.32c0-2.093-.722-3.825-2.165-5.34-1.443-1.516-3.753-2.238-6.856-2.238-3.031 0-5.268.722-6.784 2.31-1.515 1.587-2.237 3.608-2.237 5.99 0 1.154.217 2.309.577 3.392.361 1.082 1.083 2.381 2.093 3.897-2.381 1.226-4.113 2.67-5.196 4.402-1.082 1.732-1.587 3.536-1.587 5.484 0 2.67.866 4.98 2.67 6.856 1.804 1.877 4.546 2.815 8.227 2.815 2.31 0 4.402-.36 6.278-1.01 1.3-.506 2.67-1.3 3.97-2.382.65.433 1.299 1.01 2.165 1.66.866.65 1.66 1.227 2.381 1.732l4.114-5.846c-.578-.433-1.01-.721-1.372-1.01l-2.886-2.454c.505-1.082.938-2.093 1.227-2.886.288-.794.65-1.877.938-3.248l-5.99-1.66zM97.534 0h13.856l9.67 37.96L130.588 0h13.423L128.06 52.755H113.7z"/><path fill="#005b02" d="M146.464 0h13.278v52.755h-13.278z"/><path d="M159.165 57.229v15.3h-3.175V60.836l-2.454 11.691h-2.887l-2.453-11.69V72.6h-3.176V57.229h5.052l1.949 9.31 1.948-9.31zm-55.713 9.454l-1.371-5.485-1.371 5.485zm.866-9.454l4.69 15.372h-4.04l-.65-2.526h-4.402l-.578 2.526H95.37l4.691-15.372h4.258zM53.007 69.064h6.64v3.537H49.11V57.229h10.392v3.247h-6.495v2.454h5.99v3.103h-5.99zM.83 57.157h11.763v3.825h-3.97v11.546H4.8V60.982H.83z"/><path fill="#13c80b" d="M48.605 2.67c.144 0 .144-.144.216-.216.217-.433.433-.866.65-1.227a1.22 1.22 0 00.216-.722c0-.144 0-.36.145-.505h2.02c.072.361 0 .794 0 1.155-.072.938-.144 1.948-.144 2.887.072 1.66.505 3.175 1.515 4.546.217.289.433.577.578.866.288.433.577.794.938 1.155 1.299 1.227 2.526 2.526 3.825 3.753.721.721 1.443 1.37 2.237 1.948.289.217.65.433 1.01.577v3.176c-1.515.505-2.886.216-4.185-.65-.361-.216-.65-.505-1.01-.794-.65-.577-1.372-1.154-2.094-1.732-.505-.36-1.01-.793-1.299-1.37-.144-.29-.36-.578-.433-.939-.072-.577-.433-1.082-.793-1.516-1.01-1.299-1.588-2.742-1.732-4.33-.073-1.154-.145-2.309-.29-3.464a5.38 5.38 0 01.145-1.876c.072-.505 0-1.01.217-1.515-.361.072-.578.216-.722.433a5.9 5.9 0 00-.866 1.443c-.072.144 0 .289-.144.36V2.67zm0 12.702c.36.505.794.794 1.299 1.155.721.577 1.515 1.226 2.237 1.804.722.577 1.155 1.299 1.66 2.02.433.578.866 1.155 1.299 1.805.505.721 1.227 1.082 2.093 1.226.866.145 1.732.29 2.453.65.217.072.361.216.578.289.433.288.866.577 1.37.793.145.073.29.145.29.29v2.38c-.434-.144-.867-.36-1.227-.432-.506-.145-.939-.145-1.444-.073-.505.073-.938.073-1.37-.072-.723-.288-1.516-.288-2.31-.216-.433.072-.794.288-1.155.433-.938.36-1.804.794-2.67 1.154-.36.145-.65.145-.938-.072-.289-.216-.505-.36-.722-.577-.36-.36-.866-.65-1.371-.722v-7.794c.144.145.144.361.216.505.289.939.578 1.949.65 2.96 0 .216.072.504.144.72.145.434.433.723.866.867.289.072.578.144.866.144.505 0 .938-.144 1.01-.866 0-.216.073-.433.073-.721-.072-.866-.361-1.588-.938-2.31a18.23 18.23 0 00-2.67-2.598c-.073-.072-.145-.144-.217-.072-.072-.794-.072-1.732-.072-2.67zm0 29.228c.36 0 .65-.073.938-.217.36-.216.794-.36 1.155-.577a2.77 2.77 0 012.598-.217c.938.361 1.804.433 2.814.433.794 0 1.588 0 2.382.072.721.145 1.443.361 2.092.794.433.289.794.578 1.227.866.145.145.217.217.217.433v3.753c-.145.072-.217-.072-.289-.072-.938-.505-1.804-1.01-2.814-1.155-.506-.072-1.01-.144-1.516-.144-.65 0-1.371-.072-2.02 0-.722 0-1.372-.144-1.95-.433-.288-.145-.649-.289-.937-.433-.433-.217-.938-.361-1.444-.217-.721.145-1.515.289-2.237.433-.216-1.154-.216-2.237-.216-3.32z"/><path fill="#14c80b" d="M48.605 37.816c.505.072 1.01-.072 1.443-.36.722-.506 1.516-.795 2.31-1.083.793-.361 1.587-.65 2.453-.794.722-.145 1.371-.217 2.093-.289 1.155-.144 2.31-.505 3.392-.866.505-.216 1.082-.289 1.587-.36v3.968c-.36.145-.721.145-1.154.145-.505-.072-.938-.145-1.444-.217-1.66-.216-3.247.072-4.835.505-1.01.29-1.804.866-2.598 1.516-.433.36-.938.794-1.371 1.155-.433.36-1.01.65-1.588.866-.144 0-.216.072-.36 0 .072-1.444.072-2.815.072-4.186z"/><path fill="#15c80c" d="M48.605 29.589c.505 0 1.01.216 1.515.216.866.072 1.732.145 2.598 0 .361-.072.65-.072 1.01-.072.939 0 1.95-.144 2.887-.144 1.732 0 3.392.36 4.98 1.154.216.073.36.145.288.433-.216.073-.433.073-.649.073-1.443-.073-2.815.144-4.114.433-.577.144-1.154.216-1.732.36-.793.217-1.587.506-2.237.939-.505.288-1.082.288-1.66.433-.072 0-.216-.072-.288-.072-.866-.217-1.732-.217-2.598-.217v-3.536z"/><path fill="#1ac911" d="M48.605 51.528c.072 0 .144 0 .216.072.433.36.938.722 1.371 1.155h-1.587v-1.227z"/><path fill="#13c80a" d="M146.464 37.31c.072 0 .144-.071.144-.071 1.515.072 3.031-.073 4.619-.217.794-.072 1.587-.216 2.309-.505.289-.072.577-.289.794-.505 1.01-.938 1.876-2.021 2.742-3.031.289-.361.578-.65.938-1.01.506-.506 1.01-.939 1.444-1.444.072-.072.144-.217.36-.289v4.763c0 .289-.072.506-.216.65-.65.722-1.082 1.515-1.66 2.237-.721 1.01-1.443 1.876-2.381 2.742-.794.722-1.804 1.083-2.815 1.227-.144 0-.288.072-.433.072-.288 0-.577.073-.866 0a84.88 84.88 0 01-4.041-1.154c-.145-.072-.289 0-.433-.072-.289-.073-.433-.145-.433-.506-.072-.938-.072-1.876-.072-2.886zm13.062-31.103c0-.217-.36 0-.505.072-.578.433-1.227.866-1.804 1.37-.217.145-.361.29-.578.434-1.227.866-2.093 1.948-2.598 3.32-.216.505-.505.938-.794 1.37-.577.867-1.082 1.805-1.443 2.815a8.845 8.845 0 01-1.516 2.67c-.938 1.155-2.525 2.526-3.824 3.176-.073-.072-.073-.217-.073-.289v-3.103c0-.216 0-.433.145-.65.216-.432.36-.793.577-1.226.433-.866.938-1.804 1.371-2.67.505-.939 1.155-1.733 1.804-2.599.65-.938 1.372-1.876 2.021-2.886.722-1.227 1.804-2.02 3.176-2.454.577-.216 1.082-.433 1.66-.577a4.988 4.988 0 002.164-1.444l.217-.216h.216v2.67c0 .144-.144.289-.216.217z"/><path fill="#15c80c" d="M159.742 6.134v6.423c0 .289-.072.505-.288.794-.505.577-.866 1.227-1.155 1.949-.505 1.082-1.155 2.02-2.165 2.742a225.193 225.193 0 01-4.33 3.175c-.794.578-1.516 1.372-2.31 1.949-.938.722-1.876 1.515-3.103 1.876v-1.66c0-.144.145-.216.29-.36 1.803-1.949 3.247-2.815 4.979-4.908.866-1.01 1.804-3.247 2.381-4.402a19.53 19.53 0 011.516-2.67c.433-.65 1.01-1.155 1.66-1.444.144-.072.288-.144.433 0 .144.145.216.361.144.506-.217.433-.433.938-.65 1.299a15.957 15.957 0 00-1.299 2.453c-.072.072-.072.217-.072.361.145.145.217.072.289-.072.144-.217.36-.433.505-.65.722-1.01 1.516-2.02 2.02-3.103.362-.794.65-1.66.795-2.526 0-.144.072-.36.072-.505.144-.433.072-.866.072-1.299"/><path fill="#13c80a" d="M146.464 3.031V0h2.742c.217 0 .433.072.577.145.073 0 .145.072.145.072.721.433 1.299.721 2.093.65.216 0 .866-.217 1.226-.434.578-.433 1.444-.288 1.66-.144 1.01.794 2.165.36 3.392 0 .65-.144 1.227-.289 1.443-.289v1.732a.397.397 0 01-.216.361c-.505.505-1.01 1.01-1.516 1.443-.433.361-.866.506-1.37.578-1.66.36-3.32.433-4.98.433-.433 0-.866-.145-1.3-.289-1.298-.289-2.597-.65-3.896-1.227z"/><path fill="#14c80b" d="M158.66 43.95c-.072.072-.072 0-.072 0h.072s0 .072 0 0zm1.082-4.402c-.144.072-.144.144-.144.216-.505.866-.866 1.732-1.227 2.598-.577 1.372-1.154 2.598-2.093 3.753-1.154 1.443-2.453 2.743-3.68 4.042-.217.288-.577.433-.938.577-1.083.36-2.093.433-3.176.072-.505-.144-.721-.36-1.443-.577-.289-.072-.433-.072-.577-.145v2.743h8.443c1.01 0 1.01 0 1.444-.938.505-1.155.938-2.238 1.587-3.248.145-.144.217-.36.361-.577.505-.794.866-1.732 1.371-2.526.072-.145.072-.217.072-.361V42.94c-.36.36-.577.794-1.01 1.01-.072-.072-.072-.144-.072-.216.216-.722.433-1.372.866-2.021a1.22 1.22 0 00.216-.722v-1.443z"/><path fill="#13c80a" d="M146.464 42.723c.433.145 1.082.361 1.804.578 1.299.36 1.948.505 2.598.505 1.227.072 2.31-.289 3.32-.866.216-.145.505-.289.793-.361.29.216.361.505.361.866 0 1.01-.216 1.948-.721 2.887-.361.577-.722 1.154-1.155 1.66-.433.505-.938.793-1.516 1.01-.793.216-1.226.36-2.093.36-.288 0-1.226-.216-1.515-.36-.577-.289-.866-.433-1.083-.65-.072-.072-.36-.288-.433-.36-.072-.073-.216-.145-.288-.361-.145-.217-.145-.505-.145-.578v-3.68c.073-.289.073-.505.073-.65z"/><path fill="#16c80d" d="M159.742 24.826v3.68c0 .217-.072.433-.288.578-.361.36-.722.721-1.155 1.082-1.082 1.083-2.093 2.165-3.031 3.392-.577.65-1.155 1.227-2.093 1.371l-1.299.217c-.288.072-.433-.145-.288-.361.433-1.083 1.01-2.093 1.876-2.887.36-.288.722-.65 1.082-1.01a1.72 1.72 0 00.433-.794c.433-1.155.361-2.382.361-3.536 0-.722.072-1.516.505-2.165.433-.794.866-1.516 1.3-2.31.216-.433.432-.793.649-1.226.144-.361.289-.722.36-1.083.217-1.082.65-2.02 1.011-3.103 0-.072.072-.144.072-.144.145-.145.289-.145.361 0 .072.144.072.216.072.36v5.485c0 .289-.144.36-.288.505-1.155.866-1.949 1.949-2.526 3.248-.145.36-.289.794-.433 1.154-.145.433-.072.866.36 1.155.361.289.722.361 1.083.217.289-.145.433-.361.577-.578a9.072 9.072 0 001.083-2.742c.072-.144.144-.289.216-.505z"/><path fill="#13c80b" d="M146.464 32.115c1.226-.145 2.02-.794 2.598-1.877.144-.288.288-.577.433-.794a4.348 4.348 0 011.804-1.804c.866-.505 1.66-1.154 2.381-1.876.145-.144.29-.36.506-.433a.655.655 0 01.216.505c.072.361.072.722.072 1.01-.072 1.01-.144 2.021-.433 3.032-.216.649-.505 1.154-1.154 1.443-.145.072-.361.216-.506.072-.216-.144-.144-.36-.144-.505 0-.217.072-.433.144-.65.073-.216.073-.505 0-.793-.433.36-.577.866-.721 1.37-.145.506-.145 1.011-.217 1.516a6.14 6.14 0 01-.65 2.237c-.36.65-.865 1.01-1.587 1.155-.938.144-1.804.144-2.67-.144-.072 0-.145-.072-.217-.072.145-1.227.145-2.31.145-3.392z"/><path fill="#14c80b" d="M53.44 0h2.814c.145.361.145.794.217 1.155.289 1.515.794 2.887 1.732 4.041.577.65 1.01 1.371 1.515 2.093.433.65.939 1.3 1.516 1.804.65.65.65.65.65 1.588v2.887c-.434-.145-.722-.361-1.01-.65a12.297 12.297 0 01-1.877-2.454c-.722-1.299-1.588-2.453-2.454-3.536-.289-.433-.722-.794-1.082-1.082-.794-.578-1.227-1.3-1.372-2.31-.216-1.082-.433-2.092-.577-3.175-.072-.072-.072-.216-.072-.36zm93.024 28.218V25.98c0-.144.072-.288.216-.36 1.227-.722 2.454-1.444 3.753-2.021.216-.144.505-.144.794-.217.288-.072.577-.144.866-.36.866-.722 1.587-1.516 2.02-2.526a2.548 2.548 0 011.083-1.227c.289-.144.36-.072.433.216.144.506 0 1.01 0 1.516-.072.433-.144.938-.289 1.371-.144.65-.433 1.155-.866 1.66a22.437 22.437 0 01-2.381 2.093c-.866.65-1.804 1.01-2.887 1.082-.722 0-1.371.217-1.949.65-.288.072-.505.216-.793.36z"/><path fill="#13c80b" d="M146.464 5.196c.505-.144 1.948-.433 3.103-.36.216 0 .577.072.866.216.289.216.505.577.65 1.01.432 1.371 0 2.526-.867 3.536-.866 1.01-1.804 1.372-3.175 2.165-.217.145-.577.433-.577.578V10.32c0-.433 0-.65.144-.866.072-.144.072-.144.216-.289a1.72 1.72 0 00.433-.793c-.144 0-.216 0-.36-.073h-.433V5.196z"/><path fill="#14c80b" d="M48.893 49.074c.433-.072.866-.216 1.372-.289.721-.144 1.37 0 2.02.217.722.216 1.371.505 2.093.722 1.083.36 2.237.649 3.32 1.01.36.072.65.216.938.36.722.434 1.515.65 2.31.939l.577.144c.288.072.433.505.433.505h-7.939a1.22 1.22 0 01-.721-.216c-.217-.217-.433-.36-.65-.577-.794-.939-1.804-1.66-2.887-2.238-.288-.144-.577-.36-.866-.577-.072.072-.072 0 0 0z"/><path fill="#16c80d" d="M61.883 42.579c-1.66 0-3.32.072-4.98-.144a10.112 10.112 0 01-2.02-.433c-.36-.145-.65-.29-.866-.578.072-.144.217-.216.433-.288a72.789 72.789 0 013.536-1.444c.866-.36 1.805-.433 2.815-.505.36 0 .722 0 1.082-.144v3.536z"/><path fill="#1ac911" d="M57.77 0h.577c.505.794 1.083 1.588 1.66 2.382.289.36.65.577 1.083.794.65.216.793 1.154.793 1.226v1.444c0 .072-1.154-1.083-1.66-1.588a7.644 7.644 0 00-.721-.866c-.794-.866-1.227-1.948-1.66-2.959V.217C57.77.145 57.77.072 57.77 0zM157 52.755c.072-.217.144-.361.289-.433.65-.65 1.082-1.444 1.515-2.238.217-.433.505-.866.794-1.299.072-.072.072-.144.217-.144v4.114H157zM61.883 1.227a4.764 4.764 0 01-1.587-.866c-.072-.072-.072-.144-.072-.289h1.154c.361 0 .505.217.505.578v.577zm84.581 12.413c.288-.145.577-.289 1.01-.217-.217.578-.65 1.01-1.01 1.516v-1.3zm-85.591 7.794c.433-.072.722.072 1.01.072.073.36 0 .65 0 1.01-.433-.36-.793-.65-1.01-1.082z"/><path fill="#fefefe" d="M158.66 44.022c-.072.072-.072.072 0 0h-.072.072c-.072 0 0 0 0 0z"/><path fill="#040404" d="M49.47 39.62c.217-.072.145-.289.145-.433.072-.36.217-.794.433-1.082.217-.361.505-.29.722.072.288.65.36 1.299.288 1.948 0 .217-.144.289-.36.361-.361 0-.794.144-1.083-.216-.072-.073-.072-.217-.217-.217.073-.216.073-.289.073-.433z"/><path fill="#050504" d="M152.02 24.826c-.216 0-.505 0-.649-.217-.144-.216.072-.433.217-.577.36-.505.793-.794 1.299-1.01.433-.217.577.072.721.433.145.288.361.65-.072.938-.433.216-.938.433-1.515.433z"/><path fill="#040403" d="M54.234 32.043c-.433 0-.433-.29-.505-.578-.073-.288-.217-.721.216-.866.65-.216 1.3-.216 1.876 0 .433.145.506.433.145.722-.361.36-1.227.722-1.732.722zm-2.31-5.773c0 .504-.072.865-.288 1.226-.145.289-.433.36-.65.072-.433-.577-.65-1.227-.65-1.876 0-.433.362-.433.722-.505.289-.073.65-.145.794.288.072.361.072.65.072.794zm104.499 4.907c-.361 0-.578-.073-.65-.433-.072-.65-.072-1.227.145-1.805.216-.433.433-.433.721-.072.433.505.578 1.155.65 1.804.072.289-.289.433-.866.506z"/><path fill="#030303" d="M153.608 8.444c0-.578.072-1.083.361-1.516.217-.36.505-.36.722 0 .36.578.433 1.227.433 1.877 0 .433-.361.433-.65.433-.288 0-.721.072-.794-.361-.072-.145-.072-.289-.072-.433z"/><path fill="#040403" d="M54.522 36.084c.506 0 .939.144 1.372.289.505.144.36.505.288.866-.144.36-.216.721-.721.577-.506-.144-1.01-.433-1.444-.794-.144-.144-.36-.36-.288-.577.072-.217.36-.217.577-.289.072 0 .144 0 .216-.072z"/><path fill="#030303" d="M53.584 45.321c0 .578-.072 1.083-.36 1.516-.217.36-.506.36-.722 0-.361-.578-.433-1.227-.433-1.877 0-.433.36-.433.65-.433.288 0 .72-.072.793.361.072.145.072.289.072.433z"/><path fill="#040403" d="M154.546 18.33c-.36 0-.721-.071-1.01-.216-.577-.216-.65-.288-.505-.938.216-.65.36-.722.938-.505.433.144.866.36 1.227.722.144.144.36.36.289.577-.073.216-.361.216-.578.289-.072.072-.216.072-.36.072z"/><path fill="#050504" d="M58.203 41.93c-.794 0-.938-.145-.866-.794.072-.578.216-.722.794-.65.505.072 1.082.144 1.515.433.433.289.361.577-.072.794a4.202 4.202 0 01-1.371.216zm94.323-29.228c0 .721-.145.866-.938.793-.433-.072-.939-.144-1.3-.433-.144-.072-.36-.216-.36-.433 0-.216.216-.288.433-.36a3.598 3.598 0 011.732-.217c.36.072.433.217.433.65z"/><path fill="#040404" d="M157.794 12.846c.722 0 .866.144.794.938-.072.505-.217 1.01-.505 1.444-.217.36-.506.288-.722-.073-.289-.577-.36-1.299-.289-1.948.072-.289.289-.361.722-.361z"/><path fill="#040403" d="M151.082 7.506c0 .36-.144.505-.505.36-.65-.216-1.227-.65-1.66-1.154-.216-.289-.072-.505.145-.65.216-.216.505-.65.866-.36a3.037 3.037 0 011.154 1.804zM57.481 46.187c0-.216.145-.36.433-.216.722.216 1.227.65 1.66 1.154.217.29 0 .506-.144.65-.217.216-.433.577-.866.36-.433-.143-1.155-1.37-1.083-1.948z"/><path fill="#060604" d="M157.217 35.29c-.217 0-.506.072-.65-.289-.144-.288.144-.433.289-.65.36-.36.866-.649 1.37-.865.434-.144.578.144.723.433.144.289.288.65-.145.866-.505.36-1.01.505-1.587.505z"/><path fill="#040403" d="M154.763 3.248c-.65 0-1.155-.289-1.732-.578-.433-.288-.217-.577-.072-.866.144-.288.36-.65.794-.433.505.289 1.01.65 1.299 1.155.072.144.216.36.072.577 0 .217-.217.145-.361.145zM53.729 50.59c.65 0 1.226.288 1.732.577.433.289.216.577.072.866-.145.289-.361.65-.794.433-.505-.289-1.01-.65-1.3-1.155-.071-.144-.216-.36-.071-.577.072-.217.288-.144.36-.144z"/><path fill="#060603" d="M152.093 44.96c.288.073.65.217.866.506.216.288-.072.505-.145.721a3.09 3.09 0 01-1.01 1.155c-.36.217-.577.144-.65-.289-.072-.721.217-1.299.578-1.876 0-.144.144-.217.36-.217z"/><path fill="#040403" d="M148.773 39.98c.144-.72.433-1.298.938-1.803.289-.289.578 0 .794.144.217.217.577.433.36.794-.36.577-.865 1.082-1.515 1.299-.433 0-.577-.144-.577-.433zm-1.227-21.505c.144-.722.433-1.299.938-1.804.289-.289.578 0 .794.216.217.217.505.433.289.722-.361.577-.866 1.01-1.516 1.227-.288.144-.505 0-.505-.361zM58.42 16.31c-.073.722-.434 1.371-1.01 1.876-.29.289-.578-.072-.795-.288-.216-.145-.433-.361-.216-.722.36-.577.866-1.01 1.515-1.227.289-.072.505-.072.505.361zm2.525 18.98c-.072.722-.433 1.371-1.01 1.876-.289.29-.577-.072-.794-.288-.216-.145-.433-.361-.216-.722.36-.577.866-1.01 1.515-1.227.217-.072.505 0 .505.361z"/><path fill="#040404" d="M150 34.713c-.722-.072-1.371-.433-1.877-.938-.288-.29 0-.578.217-.794.144-.217.36-.505.722-.289.577.36 1.082.866 1.299 1.516.072.288 0 .505-.361.505zM57.77 24.61c.722.071 1.371.432 1.876.937.289.29 0 .578-.144.794-.144.217-.36.505-.722.289-.577-.36-1.082-.866-1.299-1.516-.216-.288-.072-.505.289-.505z"/><path fill="#050404" d="M52.43 10.104c.721.072 1.37.433 1.876.938.289.288 0 .577-.144.794-.145.216-.361.505-.722.288-.577-.36-1.083-.866-1.3-1.515-.216-.289-.143-.505.29-.505z"/><path fill="#060604" d="M148.773 46.692c-.505 0-1.66-.866-1.804-1.299-.145-.433.288-.577.505-.793.216-.145.433-.289.65-.073.505.433.865.939 1.01 1.66.072.361 0 .505-.361.505zm9.237-.432c0 .649-.288 1.226-.577 1.732-.289.433-.577.216-.866.072-.289-.145-.65-.361-.433-.794.289-.505.65-1.01 1.155-1.3.144-.071.36-.216.577-.071.144 0 .072.216.144.36z"/><path fill="#050503" d="M154.186 50.373c.505 0 .938.072 1.37.289.362.216.362.433 0 .65-.577.432-1.226.504-1.948.504-.216 0-.288-.144-.36-.36-.145-.722.072-1.083.938-1.083z"/><path fill="#030303" d="M55.028 3.97c0-.506.072-1.01.36-1.444.073-.216.217-.36.433-.36.217 0 .29.216.361.36.289.577.361 1.155.361 1.804 0 .433-.36.433-.722.433-.288 0-.721.072-.793-.433v-.36zm2.382 18.258c0 .505-.073 1.082-.362 1.515-.216.361-.505.361-.721 0-.361-.577-.433-1.227-.361-1.948.072-.433.433-.361.721-.361.29 0 .65 0 .722.433.072.144 0 .289 0 .36zm95.982 16.165c0-.216-.072-.577.216-.721a1.403 1.403 0 011.083 0 .397.397 0 01.216.36c0 .65-.072 1.3-.36 1.805-.29.433-.506.433-.794 0-.29-.433-.361-.939-.361-1.444z"/><path fill="#f6d000" d="M50.409 38.465c.216.361.216.794.289 1.155 0 .36-.217.36-.433.36-.361 0-.145-.288-.145-.36-.072-.433 0-.794.289-1.155z"/><path fill="#f2d100" d="M151.948 24.32c.361-.288.65-.649 1.083-.793.144-.072.216 0 .289.072.072.144.144.36 0 .36-.433.073-.794.506-1.372.362z"/><path fill="#f6d000" d="M55.605 31.032c-.433.145-.722.433-1.227.505-.216 0-.216-.072-.289-.216 0-.145 0-.361.145-.289.505 0 .938-.288 1.37 0z"/><path fill="#f9d300" d="M51.275 27.207a3.188 3.188 0 01-.433-1.154c-.072-.217-.072-.361.289-.361.288 0 .36.144.288.36 0 .361.217.794-.144 1.155zm105.148 1.949c.216.36.36.721.433 1.154.072.217.072.361-.289.361-.289 0-.36-.144-.289-.36 0-.361-.144-.794.145-1.155z"/><path fill="#f8d200" d="M154.33 7.217c.289.36.216.866.36 1.227.073.216-.071.36-.288.36-.216 0-.289-.072-.289-.36-.072-.361-.072-.794.217-1.227z"/><path fill="#f6d100" d="M54.306 36.59c.433-.073.866 0 1.227.143.216.073.216.29.216.433-.072.217-.216.145-.36.145-.361-.145-.794-.289-1.083-.722z"/><path fill="#f8d200" d="M52.935 46.548c-.289-.36-.217-.866-.361-1.299-.072-.216.072-.289.289-.36.216 0 .36.071.36.288-.072.505-.072.938-.288 1.371z"/><path fill="#f6d100" d="M154.907 17.826c-.433.072-.866 0-1.227-.145-.216-.072-.216-.216-.216-.433.072-.288.216-.144.36-.144.434.216.795.36 1.083.722z"/><path fill="#f7d100" d="M59.358 41.28c-.433.289-.866.216-1.3.216-.288 0-.216-.288-.216-.433-.072-.216.072-.144.217-.144.433 0 .866.072 1.299.36zm91.219-28.578c.433-.217.794-.217 1.155-.217.36 0 .36.217.36.433 0 .289-.288.217-.432.217-.361-.073-.722-.145-1.083-.433z"/><path fill="#f6d000" d="M157.794 14.867c-.217-.361-.217-.794-.289-1.155 0-.36.217-.36.433-.36.361 0 .145.288.145.36.072.36-.073.794-.29 1.155z"/><path fill="#f4cf00" d="M150.433 7.361c-.505-.072-.722-.433-1.083-.65-.216-.216 0-.288.072-.432.073-.145.217-.289.361-.072.361.288.65.65.65 1.154zM58.059 46.548c.36.072.65.361.866.578.072.072.288.144.216.36-.072.145-.144.289-.289.361-.216.072-.288-.144-.36-.288-.145-.361-.506-.578-.433-1.01z"/><path fill="#f2d100" d="M157.072 34.785c.361-.361.65-.577 1.01-.722.217-.072.434-.072.506.217.144.288-.072.36-.289.433-.36.072-.722.144-1.227.072z"/><path fill="#f3ce00" d="M154.69 2.887c-.504-.072-.865-.217-1.298-.433-.289-.144-.145-.361 0-.505.144-.217.288-.145.433 0 .288.288.721.433.866.938zM53.8 51.023c.434 0 .867.216 1.228.433.216.144.144.288.072.505-.145.216-.289.144-.433 0-.289-.289-.722-.433-.866-.938z"/><path fill="#f7d400" d="M151.588 47.053c-.073-.577.144-1.01.288-1.37.072-.217.217-.29.433-.145.145.072.361.144.217.433-.289.36-.505.721-.938 1.082z"/><path fill="#f5cf00" d="M150.433 38.826c0 .145-.938 1.01-1.083.938-.144 0-.072-.144-.072-.216.144-.36.361-.722.577-1.01.073-.145.217-.073.29 0 .144.072.288.144.288.288zm-2.237-20.423c-.145 0-.145-.072-.145-.217.145-.36.289-.721.506-1.01.216-.216.36 0 .505.072.144.072.144.217 0 .361-.217.289-.433.65-.866.794zm-91.003-.65c-.145-.072-.29-.144-.361-.288-.072-.145.072-.217.144-.289.217-.216.433-.505.722-.65.072-.072.144-.072.216-.072.072.073.072.145 0 .217-.144.289-.288.65-.505.938 0 .144-.072.217-.216.144zm2.525 19.053c-.144-.073-.36-.145-.433-.29-.072-.143.073-.216.145-.288.216-.216.433-.433.65-.577.071-.072.216-.144.288-.072.072.072 0 .216 0 .288l-.433.866s-.072.073-.217.073z"/><path fill="#f3ce00" d="M149.856 34.28c-.434-.072-.794-.289-1.155-.505-.217-.145-.217-.29-.072-.506.216-.288.36-.144.505 0 .288.289.577.506.721 1.01zm-92.014-9.166c.433.073.794.29 1.155.578.216.144.216.288.072.505-.217.289-.36.072-.505 0-.289-.36-.578-.65-.722-1.083zm-5.268-14.577c.505.144.866.288 1.227.577.216.144.144.289 0 .505-.145.217-.289.144-.433 0-.361-.289-.65-.505-.794-1.082z"/><path fill="#f5d300" d="M148.7 46.26c-.577-.145-.937-.506-1.298-.867-.145-.216.072-.288.216-.36.072-.145.217-.145.361 0 .361.288.65.65.722 1.226z"/><path fill="#f5d100" d="M157.577 46.187c.073.578-.216 1.01-.433 1.444-.144.216-.288 0-.433-.072-.144-.073-.288-.145-.144-.361a2.696 2.696 0 011.01-1.01z"/><path fill="#f7d200" d="M155.34 51.023c-.433.288-.938.36-1.443.433-.217 0-.289-.073-.289-.29 0-.216-.072-.432.289-.432.505 0 1.01 0 1.443.289z"/><path fill="#f5d000" d="M55.821 2.598c.217.433.361.866.361 1.3 0 .216 0 .432-.288.432-.29 0-.361-.144-.361-.433-.072-.36 0-.794.288-1.299zm.866 21.001c-.216-.433-.36-.866-.36-1.3 0-.288.072-.432.36-.432.29 0 .361.144.361.433 0 .433-.072.866-.36 1.299zm97.426 16.093c-.288-.433-.36-.938-.36-1.443 0-.289.144-.289.36-.289.217 0 .361 0 .361.289 0 .505-.072 1.01-.36 1.443z"/></svg>