<svg xmlns="http://www.w3.org/2000/svg" width="77" height="124"><path fill="#899bb0" d="M12.458 123.58L.027 22.34l64.515-7.92 12.431 101.239z"/><path fill="#161615" d="M36.419 31.647a2.176 2.176 0 00-2.612 1.645l-8.072 35.535c-1.349 5.933-5.871 11.198-12.926 9.598-7.057-1.603-8.857-8.307-7.508-14.24l11.412-50.233a12.141 12.141 0 015.406-7.636 12.143 12.143 0 019.222-1.576 12.138 12.138 0 017.634 5.406 12.123 12.123 0 011.692 8.57h4.424c1.05-8.354-4.404-16.33-12.784-18.233a16.493 16.493 0 00-12.515 2.14 16.483 16.483 0 00-7.336 10.362L1.043 63.218c-2.163 9.524 2.277 17.529 10.8 19.465a16.01 16.01 0 002.067.33c7.64.71 14.095-4.474 16.08-13.22l8.074-35.533a2.182 2.182 0 00-1.645-2.613z"/></svg>