<svg xmlns="http://www.w3.org/2000/svg" width="322" height="322"><defs><clipPath id="a"><path fill="#fff" d="M0 322.025V0h322.025v322.025z"/></clipPath></defs><path fill="#fff" d="M0 322.025V0h322.025v322.025z"/><path fill="none" d="M0 322.025V0h322.025v322.025z" clip-path="url(&quot;#a&quot;)"/><path d="M158.52 180.196c-1.67.037-1.156.271-2.604.377-.874.064-2.075-.005-2.986-.005-.087.027-2.195 1.435-2.608 2.981 2.79 0 4.51.746 7.452.746.28-1.197.716-2.708.745-4.1zm-11.552.372h-2.609c.089 1.053-.007 1.49 1.118 1.49.617 0 1.21-1.069 1.49-1.49zm14.532 3.727zm0 0c3.387 0 6.532-.317 9.48-.955 2.425-.527 1.937-.558 3.12-2.096.786-1.02 1.559-1.422 2.306-2.539l-14.16 1.49c-.031 1.392-.466 2.903-.746 4.1zm21.986-6.335c.948.22 1.094.658 2.462-.513.798-.68.05.035.519-.605-1.534.357-2.217.076-2.981 1.118zm-20.495-1.49c3.728 0 6.434-.746 10.061-.746l-8.943-6.335c-.05 2.252-.933 4.862-1.118 7.08zm-32.046-1.864c-.3-1.122.004-.818-1.197-1.037m30.262-.826c-1.247.835-2.96 2.955-3.726 4.099h2.98c.032-1.391.468-2.9.746-4.1zm-21.613 4.472h2.236v-4.472c-3.455 0-2.436.203-4.472.373.764 1.444 1.472 2.655 2.236 4.099zm48.815-4.1c2.405 0 4.054-.928 6.335-1.117-.73-1.382-1.408-3.592-2.608-4.472-.348 1.303-.22.632-.966 1.641l-2.76 3.949zm-31.301-2.235c-2.194.05-9.837 1.49-12.297 1.49l.373 4.845h6.707c1.371-2.59 2.94-2.933 5.217-6.335zm-30.556-7.825zm0 0c-.661.484-2.452 2.934-2.894 3.639l2.521 2.695h3.354zm17.886 5.216c2.494 0 15.078-1.603 16.396-2.235l-5.496-5.31c-8.041-8.04-3.722-4.604-10.9-4.006zm44.344-4.471c-1.77.147-3.088.776-4.702 1.26-2.597.778-12.1 3.171-13.93 3.211l5.52 4.17c.992.651 1.756 1.081 2.759 1.729 2.69 1.737 3.53-.621 6.779-5.001.759-1.022 1.111-1.587 1.858-2.613.742-1.019 1.37-1.457 1.716-2.756zm.435-.062l-.435-.31v.372zm9.253 4.16c2.162-1.446.786-2.11-.372-7.08-.856.072-.965.063-1.488.376l-.573.544c-.028-.062-.115.135-.175.199.815 1.54 2.187 4.154 2.608 5.962zm-76.39-7.825c-1.4.327-1.527.153-2.266 1.139l.489.81zm10.41-1.14c-1.308.133-1.988-.027-1.63 1.241l4.263 8.843 6.334-.373-.372-11.179zm56.292.768c-1.273-2.407-2.492-4.66-3.72-7.085-2.132-4.204-2.256-3.225-5.223-5.212-.29 1.082-.729 1.472-1.342 2.385l-7.754 10.878c-1.105 1.493-2.248 2.829-3.201 4.25zm16.768-1.863c-.809.388-2.298 1.03-3.353 1.118.55.751 1.192 1.212 2.235 1.49.468-.882.865-1.518 1.118-2.608zm-81.979-1.118c-.337-.702-.93-2.172-1.118-2.981-.414.598.082-.404-.42.698l-.698 2.655c1.135-.026 1.359-.167 2.236-.372zm69.62-.808l-.31.435h.372zm-30.494 6.77zm0 0c0-3.69 1.118-7.293 1.118-11.18l-4.897 1.439c-1.436.453-3.608.975-4.791 1.543 1.152 1.72 6.763 6.988 8.57 8.198zm-29.81-7.08c1.376 0 2.545-.261 3.951-.52 5.323-.983 4.247.424 4.247-8.05-1.53 1.024-7.012 6.798-8.198 8.57zm14.905-2.609l-3.354-4.099v4.472c1.688-.04 1.485-.373 3.354-.373zm27.202-5.216c-2.96 0-4.794 1.616-7.452 2.235 0 3.387-.746 6.236-.746 8.944 1.389-.93 6.7-8.942 8.198-11.18zm-23.475 4.099c.703-.337 1.877-.6 2.84-.885 1.069-.317 1.873-.54 2.898-.83 1.415-.399 4.816-1.64 5.813-1.64v-.372c-2.6 0-5.243.048-7.838.014-1.756-.023-2.782-.386-7.067-.386.92 1.375 2.484 2.799 3.354 4.099zm48.442 3.726zm0 0c1.464-.34 7.844-2.624 8.42-3.504.155-.24 1.374-4.056 1.422-4.52.106-1.02-.969-2.6-1.272-3.9H205.1c-1.249 1.864-2.14 3.91-3.227 6.09zm-11.415-7.59c1.234 2.146 4.256 5.503 6.943 5.727-.067-3.022-2.012-5.141-2.236-7.826-1.136.266-3.943.718-5.216.746.169.38.104.649.509 1.354zm-57.45 1.7l2.909-3.426c-7.133 0-12.362-4.683-6.335 6.707 1.104-.737 2.567-2.183 3.425-3.282zm68.865-4.544c-1.887 0-1.916.253-3.354.373.35 1.497.967 1.91 1.258 3.796zm-87.196-2.236c.663 5.163 2.625 8.8 3.353 11.925 1.047-.767.634-.519 1.076-1.905 1.146-3.593 3.894-8.257-.023-9.21l-4.406-.81zm60.366.746c-.613-.837-3.603-2.505-4.844-2.609v2.981h1.49c1.873 0 1.67-.335 3.354-.372zm18.632-1.49c-.356-.742-.534-1.333-.745-2.237-1.767.148-4.783 1.88-5.59 2.981 1.984-.043 4.253-.745 6.335-.745zm-36.89-8.571c-1.285 1.919-7.92 6.491-10.062 9.688 3.068.714 15.783.745 19.75.745 0-7.418 3.12-3.656-9.689-10.433zm-24.352-.876l-3.596 8.7 10.806 1.491a16.48 16.48 0 001.118-1.863l-7.08-11.551c-.124 1.504-.637 1.989-1.248 3.223zm-18.129 6.092c1.703.04 2.882.614 4.472.746-1.191-2.483-1.79-6.088-2.981-8.57-2.185 1.601-1.864 3.632-1.864 5.961 0 1.006.179 1.028.373 1.863zm56.65-5.954c0 2.112-.382 2.568-.382 4.836l7.004 3.803c5.682 3.64 1.41-2.343 1.07-2.935-.912-1.597-6.747-10.602-7.702-11.301 0 1.866.01 3.732.01 5.597zm20.485 4.091c-.121-1.448-.59-2.321-1.49-2.98l-2.609 4.843c2.065-.48 2.227-1.426 4.1-1.863zm14.905-1.863c0-.01-.939-1.843-1.118-2.608-2.12 1.122-7.544 4.804-9.315 5.216.042 1.854.715 2.373 1.118 4.1.883-.423 5.587-1.118 7.08-1.118.327-1.402 2.235-4.961 2.235-5.59zm5.67-.697c-.065 1.048.758 2.554 1.41 3.305v-6.707c-.69.797-1.38 2.882-1.41 3.402zm-64.918.697zm0 0c3.131-1.657 2.382-2.795 4.471-3.354v-.745c-1.812-.422-2.166-1.329-4.099-1.49 0 2.49-.372 3.434-.372 5.59zm52.094-2.683c.692-.432 4.173-2.358 4.173-2.906 0-.974-4.886-8.823-5.217-10.061h-.745c-.53 2.277-4.844 9.157-4.844 10.433 0 .547 1.573 3.97 1.863 5.217 1.747-.924 3.068-1.624 4.77-2.683zm-31.6-7.005l-8.197 6.334c2.954.688 4.872 3.039 7.825 3.727zm-31.673 0c0 .796 2.967 6.063 3.501 6.932.75 1.219 1.152 2.115 1.938 3.28 2.007 2.979.754 2.394 2.386 2.83 0-2.321.152-3.486.348-5.242l.397-5.192c-1.437-.76-2.784-1.272-4.42-1.913-1.727-.678-4.15-2.14-4.15-.695zm-4.844-2.236c0-1-6.577-3.064-7.826-3.354l-3.726 5.217c0 1.587 3.987 12.078 4.472 14.16zm42.48-1.863zm0 0c1.71 2.552 3.386 4.892 5.142 7.527l4.919 7.75c1.61-1.077 2.557-3.91 3.65-5.667l1.194-1.785-5.962-13.787c-1.321.352-8.165 4.8-8.943 5.962zm-19.377 7.825zm0 0c.74-.495.748-.657 1.422-1.186.7-.552.722-.43 1.469-1.14l5.831-4.602c1.103-.815 2.157-1.383 2.83-2.388a34.16 34.16 0 00-1.421-1.931l-2.374-2.845c-.438-.556-.168-.332-.609-.88-.85-1.058-.798-.346-1.186-1.797-1.477 0-4.605.327-6.11.598-2.813.51-3.8-.835-4.37 1.964-.583 2.86-1.444 8.594-1.444 11.599 1.807.42 4.423 1.794 5.962 2.608zm-35.028-10.806h-1.49c.085 1.024.035.81.372 1.49.834-.815.67.194 1.118-1.49zm9.316-1.864c-1.435.12-1.202.373-2.981.373v.745c1.59.132 1.56.468 3.15.6-.083-1.006.03-.868-.169-1.718zm17.886-2.608c-1.858 0-2.58.373-4.844.373-.382 1.64-3.128 5.262-3.726 7.825 2.214.515 5.294 2.46 7.08 2.608zm-11.178 1.49c-1.437.12-1.468.373-3.354.373.18.773.317 1.222.626 1.984l.864 1.743c.303-1.297 1.27-2.977 1.864-4.1zm72.663 11.552c2.69-1.8 4.17-4.57 3.125-7.59-1.104-3.194-2.079-5.377-3.498-8.06h-6.334c-.238 1.023-.746 1.515-.746 2.235 0 .062 7.026 11.583 7.453 13.415zm-20.003-7.572c.964 2.023 1.85 4.594 2.862 5.336.35-1.495.602-1.246 1.17-2.555 4.17-9.599 4.3-5.12 1.066-11.232-4.054 0-2.84-.29-5.467 1.24-.938.547-1.483.906-2.359 1.368zm-20.241-6.215v-1.49c-.49.293-.429.189-1.198.453zm3.726 2.98zm0 0c1.217-.813 2.254-1.502 3.577-2.384 1.652-1.1 2.865-1.588 3.503-2.46-2.947 0-4.374.373-7.08.373zm-47.978-2.889c3.599-4.007 2.3-4.167 2.144-6.053-1.469.032-1.854.324-2.947.78-1.885.785-3.686 4.758-4.133 6.672 1.402-.116 4.158-.53 4.936-1.399zm33.445-4.19c-.26-.974-3.936-4.983-4.844-5.59-.356 1.528-1.08 4.31-1.118 5.962 2.607 0 3.563-.372 5.962-.372zm46.207-1.49h2.235c-.649-1.227-.361-1.463-1.863-1.864-.202.846-.288.859-.372 1.863zm-4.1-1.491c-1.154.27-1.078.476-2.235.745v.745l1.818-.014.418-1.476m.434-.062l-.434-.31v.372zm-51.5-2.19c-.247.404-.257.427-.58.912l-3.504 5.811c3.234-.753 3.323.674 3.885-2.45.357-1.982.96-3.383.96-5.375zm23.49 4.115c2.844 0 4.157-.373 7.08-.373l-6.334-12.297h-1.118v4.1c0 3.389.373 5.244.373 8.57zm-22.295-5.28l-.435-.31v.373zm-18.694 9.751c1.24-.027 1.65-.201 2.944-.411.972-.157 1.408-.186 2.626-.354 2.184-.3 2.122-1.424 3.007-2.956l4.465-7.458c-6.64 1.548-5.61 1.226-7.91 3.641-.548.576-.994.889-1.475 1.505-.637.813-.553.834-1.33 1.653-2.285 2.406-2.327 2.654-2.327 4.38zm32.792-4.099h4.472c0-4.606-.373-7.806-.373-12.296-2.902.242-10.612 2.198-12.297 2.235.854 1.275 7.835 8.703 8.198 10.062zm-19.377-12.296h1.118v-.746c-1.047.31-.53-.099-1.118.746zm38.381 11.551c4.195 0 4.003-.804 6.708-2.236-.325-1.395-2.641-4.418-3.624-5.69-.777-1.001-1.269-1.812-2.028-2.816-.75-.99-1.227-1.587-1.801-2.673-1.658.038-3.978.612-5.59.746zm8.5-9.243l3.052 4.399c1.467-.776 4.322-1.76 5.217-2.981-.789-1.178-6.69-6.335-8.198-6.335-1.654 0-1.46.373-3.354.373 1.08 1.611 2.19 2.908 3.282 4.544zm-63.277 2.908zm0 0c2.033-.975 7.298-2.023 8.68-3.245l5.401-5.99-1.039-1.198c-2.09 1.105-12.376 7.938-13.042 10.433zm39.5-10.06c0-1.72-.122-2.298-.286-3.44-.423-2.923 1.138-2.523-6.05-2.523l-5.962 8.198zm-18.632-.373c.347 1.302.142.837 1.118 1.49.425-1.59 2.105-2.585 2.608-4.471-2.107 1.411-1.899 2.493-3.726 2.98zm4.533-3.416l-.434-.31v.372zm18.821.557c.586 1.005.962 1.288 1.24 2.486 1.169-.272 3.59-.64 4.844-.745-2.15-3.213-3.019-4.1-7.453-4.1.463.875.823 1.422 1.37 2.36zM105.606 132.5c0-7.684 2.712-16.241 5.342-21.487 3.1-6.184 6.397-10.894 11.147-15.683.742-.75.964-1 1.77-1.584l2.881-2.337c3.008-2.512 7.836-5.575 11.328-6.93 17.124-6.64 28.238-6.64 45.364 0 3.838 1.49 8.963 4.982 12.416 7.706 4.355 3.436 4.115 3.998 6.723 6.692 1.312 1.356 1.846 2.216 2.997 3.71 10.69 13.9 13.383 35.375 6.758 52.05-2.212 5.568-4.779 10.241-8.623 14.854-3.355 4.026-9.889 9.973-14.27 12.56-.774.456-1.269.798-2.098 1.256-7.647 4.217-17.7 6.95-26.586 6.95-9.207 0-21.286-3.227-28.915-8.348-.82-.55-1.38-.76-2.085-1.268-6.255-4.51-6.864-5.728-10.643-9.478-2.622-2.6-6.327-8.679-8.043-12.08-4.527-8.984-5.463-16.233-5.463-26.583zm58.503 88.888c0-11.867-11.29-15.283-15.882-8.43-2.45 3.657-2.377 5.373-2.377 9.92 0 4.963 4.057 10.436 8.943 10.436 5.84 0 9.316-6.631 9.316-11.926zm-20.195-12.742c3.745-4.756 7.311-5.515 12.37-5.515 3.96 0 7.718 3.158 9.918 6.103 5.138 6.88 5.105 17.352-.376 24.678-9.069 12.121-25.938 3.425-25.938-11.033v-2.98c0-4.378 2.046-8.74 4.026-11.253zm65.291 22.067c2.606-5.193 2.554-21.62-4.48-21.62H201v24.592h3.353c2.74 0 3.93-1.132 4.852-2.972zm-13.064-26.468c6.006 0 13.207-1.17 16.859 4.397 4.61 7.03 4.197 20.224.53 25.65-3.968 5.875-10.771 4.989-18.493 4.989v-35.03zm-27.75.016l5.954-.036 6.399 11.749 5.164-11.724 5.987-.012-8.037 18.268v16.804l-6.334-.03v-16.027c0-1.44-8.007-16.744-9.133-18.992zm-63.161-.02l16.026.008v5.589h-10.06v8.198h9.315v5.217h-9.316v16.021l-5.976.004zm20.125.008h5.962v29.436h8.943v5.59h-14.905z"/></svg>