<svg width="77" height="118" fill="none" xmlns="http://www.w3.org/2000/svg"><path d="M0 22l.5 2.5H51V118l26-3L64.5 14 0 22z" fill="#899BB0"/><path d="M37.919 31.582a2.176 2.176 0 00-2.612 1.645l-8.073 35.536c-1.348 5.932-5.87 11.197-12.925 9.597-7.057-1.603-8.857-8.306-7.508-14.24l11.412-50.233a12.139 12.139 0 015.406-7.636 12.143 12.143 0 019.222-1.575 12.138 12.138 0 017.634 5.405 12.123 12.123 0 011.692 8.57h4.424c1.05-8.354-4.404-16.33-12.784-18.233a16.493 16.493 0 00-12.515 2.14 16.485 16.485 0 00-7.336 10.363L2.543 63.153c-2.163 9.524 2.277 17.53 10.8 19.465.681.156 1.372.266 2.067.33 7.64.71 14.095-4.473 16.08-13.22l8.074-35.532a2.18 2.18 0 00-1.645-2.613z" fill="#161615"/></svg>