<svg width="5940" height="1080" fill="none" xmlns="http://www.w3.org/2000/svg"><path d="M31.29 440.035c1.517-3.513 4.978-5.97 9.001-5.97 5.421 0 9.324 4.542 9.817 9.95 0 0 .266 1.342-.316 3.76-.796 3.294-2.66 6.22-5.179 8.453l-11.165 9.749a3.264 3.264 0 01-4.297-.018l-10.956-9.731c-2.518-2.232-4.383-5.16-5.179-8.453-.584-2.418-.32-3.76-.32-3.76.493-5.412 4.4-9.95 9.82-9.95 4.024 0 7.262 2.457 8.773 5.97h.001zM701.505 90.683c3.578-8.331 11.743-14.158 21.233-14.158 12.788 0 21.995 10.771 23.158 23.596 0 0 .627 3.183-.746 8.917-1.877 7.811-6.277 14.75-12.217 20.045l-26.338 23.119a7.668 7.668 0 01-10.136-.042l-25.845-23.077c-5.94-5.293-10.34-12.236-12.217-20.045-1.378-5.734-.755-8.917-.755-8.917 1.163-12.834 10.379-23.596 23.163-23.596 9.494 0 17.133 5.827 20.697 14.158h.003zM510.666 873.256c2.412-5.621 7.914-9.552 14.309-9.552 8.618 0 14.823 7.267 15.607 15.92 0 0 .423 2.147-.502 6.016-1.266 5.27-4.231 9.952-8.234 13.525l-17.749 15.598a5.165 5.165 0 01-6.831-.029l-17.418-15.569c-4.003-3.572-6.967-8.256-8.233-13.525-.928-3.869-.509-6.016-.509-6.016.784-8.659 6.995-15.92 15.61-15.92 6.399 0 11.546 3.931 13.949 9.552h.001zm657.604-493.417c1.67-3.915 5.49-6.651 9.92-6.651 5.98 0 10.28 5.06 10.83 11.086 0 0 .29 1.496-.35 4.19-.88 3.671-2.94 6.93-5.71 9.418l-12.31 10.864a3.573 3.573 0 01-4.74-.019l-12.08-10.845c-2.78-2.487-4.83-5.748-5.71-9.418-.64-2.694-.35-4.19-.35-4.19.54-6.031 4.85-11.086 10.82-11.086 4.44 0 8.01 2.736 9.68 6.651zm715 315c1.67-3.915 5.49-6.651 9.92-6.651 5.98 0 10.28 5.06 10.83 11.086 0 0 .29 1.496-.35 4.19-.88 3.671-2.94 6.931-5.71 9.419l-12.31 10.863a3.573 3.573 0 01-4.74-.019l-12.08-10.844c-2.78-2.487-4.83-5.749-5.71-9.419-.64-2.694-.35-4.19-.35-4.19.54-6.031 4.85-11.086 10.82-11.086 4.44 0 8.01 2.736 9.68 6.651zm-529.45 344.391c1.32-3.11 4.34-5.29 7.84-5.29 4.73 0 8.13 4.03 8.56 8.82 0 0 .23 1.18-.27 3.33-.7 2.91-2.32 5.51-4.52 7.48l-9.73 8.64c-.52.46-1.19.71-1.88.7-.69 0-1.35-.25-1.87-.72l-9.55-8.62c-2.19-1.97-3.82-4.57-4.51-7.48-.51-2.15-.28-3.33-.28-3.33.43-4.8 3.83-8.82 8.56-8.82 3.51 0 6.33 2.18 7.65 5.29zm2637.47-599.195c1.52-3.513 4.98-5.97 9-5.97 5.42 0 9.33 4.542 9.82 9.95 0 0 .26 1.342-.32 3.76-.79 3.294-2.66 6.22-5.18 8.453l-11.16 9.749a3.265 3.265 0 01-4.3-.018l-10.95-9.731c-2.52-2.232-4.39-5.16-5.18-8.453-.59-2.418-.32-3.76-.32-3.76.49-5.412 4.4-9.95 9.82-9.95 4.02 0 7.26 2.457 8.77 5.97zM4661.5 90.683c3.58-8.331 11.75-14.158 21.24-14.158 12.79 0 21.99 10.771 23.16 23.596 0 0 .62 3.183-.75 8.917-1.88 7.811-6.28 14.75-12.22 20.045l-26.34 23.119a7.645 7.645 0 01-5.07 1.893 7.666 7.666 0 01-5.06-1.935l-25.85-23.077c-5.94-5.293-10.34-12.236-12.21-20.045-1.38-5.734-.76-8.917-.76-8.917 1.16-12.834 10.38-23.596 23.16-23.596 9.5 0 17.14 5.827 20.7 14.158zm-190.83 782.573c2.41-5.621 7.91-9.552 14.31-9.552 8.61 0 14.82 7.267 15.6 15.92 0 0 .43 2.147-.5 6.016-1.27 5.27-4.23 9.952-8.23 13.525l-17.75 15.598a5.179 5.179 0 01-3.42 1.277 5.153 5.153 0 01-3.41-1.306l-17.42-15.569c-4-3.572-6.97-8.256-8.23-13.525-.93-3.869-.51-6.016-.51-6.016.78-8.659 6.99-15.92 15.61-15.92 6.4 0 11.54 3.931 13.95 9.552zm657.6-493.417c1.67-3.915 5.49-6.651 9.92-6.651 5.98 0 10.28 5.06 10.83 11.086 0 0 .29 1.496-.35 4.19-.88 3.671-2.94 6.93-5.71 9.418l-12.31 10.864a3.573 3.573 0 01-4.74-.019l-12.08-10.845c-2.78-2.487-4.83-5.748-5.71-9.418-.64-2.694-.35-4.19-.35-4.19.54-6.031 4.85-11.086 10.82-11.086 4.44 0 8.01 2.736 9.68 6.651zm715 315c1.67-3.915 5.49-6.651 9.92-6.651 5.98 0 10.28 5.06 10.83 11.086 0 0 .29 1.496-.35 4.19-.88 3.671-2.94 6.931-5.71 9.419l-12.31 10.863a3.573 3.573 0 01-4.74-.019l-12.08-10.844c-2.78-2.487-4.83-5.749-5.71-9.419-.64-2.694-.35-4.19-.35-4.19.54-6.031 4.85-11.086 10.82-11.086 4.44 0 8.01 2.736 9.68 6.651zm-529.45 344.391c1.32-3.11 4.34-5.29 7.84-5.29 4.73 0 8.13 4.03 8.56 8.82 0 0 .23 1.18-.27 3.33-.7 2.91-2.32 5.51-4.52 7.48l-9.73 8.64c-.52.46-1.19.71-1.88.7-.69 0-1.35-.25-1.87-.72l-9.55-8.62c-2.19-1.97-3.82-4.57-4.51-7.48-.51-2.15-.28-3.33-.28-3.33.43-4.8 3.83-8.82 8.56-8.82 3.51 0 6.33 2.18 7.65 5.29zM2011.29 440.035c1.52-3.513 4.98-5.97 9-5.97 5.42 0 9.33 4.542 9.82 9.95 0 0 .26 1.342-.32 3.76-.79 3.294-2.66 6.22-5.18 8.453l-11.16 9.749a3.265 3.265 0 01-4.3-.018l-10.95-9.731c-2.52-2.232-4.39-5.16-5.18-8.453-.59-2.418-.32-3.76-.32-3.76.49-5.412 4.4-9.95 9.82-9.95 4.02 0 7.26 2.457 8.77 5.97zm670.22-349.352c3.57-8.331 11.74-14.158 21.23-14.158 12.79 0 21.99 10.771 23.16 23.596 0 0 .62 3.183-.75 8.917-1.88 7.811-6.28 14.75-12.22 20.045l-26.33 23.119a7.69 7.69 0 01-5.08 1.893 7.686 7.686 0 01-5.06-1.935l-25.85-23.077c-5.94-5.293-10.34-12.236-12.21-20.045-1.38-5.734-.76-8.917-.76-8.917 1.17-12.834 10.38-23.596 23.17-23.596 9.49 0 17.13 5.827 20.69 14.158h.01zm-190.84 782.573c2.41-5.621 7.91-9.552 14.31-9.552 8.61 0 14.82 7.267 15.6 15.92 0 0 .43 2.147-.5 6.016-1.27 5.27-4.23 9.952-8.23 13.525l-17.75 15.598a5.179 5.179 0 01-3.42 1.277 5.153 5.153 0 01-3.41-1.306l-17.42-15.569c-4-3.572-6.97-8.256-8.23-13.525-.93-3.869-.51-6.016-.51-6.016.78-8.659 6.99-15.92 15.61-15.92 6.4 0 11.54 3.931 13.95 9.552zm657.6-493.417c1.67-3.915 5.49-6.651 9.92-6.651 5.98 0 10.28 5.06 10.83 11.086 0 0 .29 1.496-.35 4.19-.88 3.671-2.94 6.93-5.71 9.418l-12.31 10.864a3.573 3.573 0 01-4.74-.019l-12.08-10.845c-2.78-2.487-4.83-5.748-5.71-9.418-.64-2.694-.35-4.19-.35-4.19.54-6.031 4.85-11.086 10.82-11.086 4.44 0 8.01 2.736 9.68 6.651zm715 315c1.67-3.915 5.49-6.651 9.92-6.651 5.98 0 10.28 5.06 10.83 11.086 0 0 .29 1.496-.35 4.19-.88 3.671-2.94 6.931-5.71 9.419l-12.31 10.863a3.573 3.573 0 01-4.74-.019l-12.08-10.844c-2.78-2.487-4.83-5.749-5.71-9.419-.64-2.694-.35-4.19-.35-4.19.54-6.031 4.85-11.086 10.82-11.086 4.44 0 8.01 2.736 9.68 6.651zm-529.45 344.391c1.32-3.11 4.34-5.29 7.84-5.29 4.73 0 8.13 4.03 8.56 8.82 0 0 .23 1.18-.27 3.33-.7 2.91-2.32 5.51-4.52 7.48l-9.73 8.64c-.52.46-1.19.71-1.88.7-.69 0-1.35-.25-1.87-.72l-9.55-8.62c-2.19-1.97-3.82-4.57-4.51-7.48-.51-2.15-.28-3.33-.28-3.33.43-4.8 3.83-8.82 8.56-8.82 3.51 0 6.33 2.18 7.65 5.29z" fill="#062B57" fill-opacity=".47"/></svg>