<svg xmlns="http://www.w3.org/2000/svg" width="39" height="35"><path fill="#062b57" fill-opacity=".47" d="M19.29 7.035c1.517-3.513 4.978-5.97 9.001-5.97 5.421 0 9.324 4.542 9.817 9.95 0 0 .266 1.342-.316 3.76-.796 3.294-2.661 6.22-5.179 8.453l-11.165 9.749a3.263 3.263 0 01-4.297-.018L6.195 23.228c-2.518-2.232-4.383-5.16-5.179-8.453-.584-2.418-.32-3.76-.32-3.76.493-5.412 4.4-9.95 9.819-9.95 4.025 0 7.263 2.457 8.774 5.97z"/><path fill="none" stroke="#fefefe" stroke-miterlimit="20" d="M19.29 7.035c1.517-3.513 4.978-5.97 9.001-5.97 5.421 0 9.324 4.542 9.817 9.95 0 0 .266 1.342-.316 3.76-.796 3.294-2.661 6.22-5.179 8.453l-11.165 9.749a3.263 3.263 0 01-4.297-.018L6.195 23.228c-2.518-2.232-4.383-5.16-5.179-8.453-.584-2.418-.32-3.76-.32-3.76.493-5.412 4.4-9.95 9.819-9.95 4.025 0 7.263 2.457 8.774 5.97z"/></svg>