<svg xmlns="http://www.w3.org/2000/svg" width="87" height="71"><path fill="#062b57" fill-opacity=".47" d="M1.354 33.676c0-.687.687-1.374 1.374-1.374h17.644c.687 0 1.374.687 1.374 1.374v35.122c0 .687-.687 1.374-1.374 1.374H2.728c-.687 0-1.374-.687-1.374-1.374z"/><path fill="none" stroke="#fefefe" stroke-miterlimit="20" d="M1.354 33.676c0-.687.687-1.374 1.374-1.374h17.644c.687 0 1.374.687 1.374 1.374v35.122c0 .687-.687 1.374-1.374 1.374H2.728c-.687 0-1.374-.687-1.374-1.374z"/><path fill="#062b57" fill-opacity=".47" d="M27.572 32.745a.45.45 0 01.429-.457c2.103-.102 11.224-.993 11.224-8.726V5.858c0-4.3 5.125-6.613 8.283-3.697 3.245 2.992 6.217 9.624 6.28 23.85a.463.463 0 00.455.465h23.42c4.79 0 8.649 3.86 8.715 8.648.17 12.738-2.201 35.048-20.936 35.048H28.03a.459.459 0 01-.458-.458z"/><path fill="none" stroke="#fefefe" stroke-miterlimit="20" d="M27.572 32.745a.45.45 0 01.429-.457c2.103-.102 11.224-.993 11.224-8.726V5.858c0-4.3 5.125-6.613 8.283-3.697 3.245 2.992 6.217 9.624 6.28 23.85a.463.463 0 00.455.465h23.42c4.79 0 8.649 3.86 8.715 8.648.17 12.738-2.201 35.048-20.936 35.048H28.03a.459.459 0 01-.458-.458z"/></svg>