<svg width="5940" height="1080" fill="none" xmlns="http://www.w3.org/2000/svg"><path d="M123.996 755.664c0-.503.505-1.006 1.011-1.006h12.979c.506 0 1.011.503 1.011 1.006v25.723c0 .503-.505 1.006-1.011 1.006h-12.979c-.506 0-1.011-.503-1.011-1.006v-25.723z" fill="#062B57" fill-opacity=".47"/><path d="M123.996 755.664c0-.503.505-1.006 1.011-1.006h12.979c.506 0 1.011.503 1.011 1.006v25.723c0 .503-.505 1.006-1.011 1.006h-12.979c-.506 0-1.011-.503-1.011-1.006v-25.723z" stroke="#FEFEFE" stroke-miterlimit="20"/><path d="M143.283 754.982a.328.328 0 01.315-.334c1.548-.075 8.257-.728 8.257-6.391V735.29c0-3.149 3.77-4.843 6.093-2.707 2.388 2.191 4.574 7.048 4.62 17.467 0 .089.035.175.097.239.063.064.148.1.238.102h17.228a6.409 6.409 0 016.411 6.334c.126 9.329-1.619 25.669-15.401 25.669H143.62a.335.335 0 01-.337-.336v-27.076z" fill="#062B57" fill-opacity=".47"/><path d="M143.283 754.982a.328.328 0 01.315-.334c1.548-.075 8.257-.728 8.257-6.391V735.29c0-3.149 3.77-4.843 6.093-2.707 2.388 2.191 4.574 7.048 4.62 17.467 0 .089.035.175.097.239.063.064.148.1.238.102h17.228a6.409 6.409 0 016.411 6.334c.126 9.329-1.619 25.669-15.401 25.669H143.62a.335.335 0 01-.337-.336v-27.076z" stroke="#FEFEFE" stroke-miterlimit="20"/><path d="M429.354 252.676c0-.687.687-1.374 1.374-1.374h17.644c.687 0 1.374.687 1.374 1.374v35.122c0 .687-.687 1.374-1.374 1.374h-17.644c-.687 0-1.374-.687-1.374-1.374v-35.122z" fill="#062B57" fill-opacity=".47"/><path d="M429.354 252.676c0-.687.687-1.374 1.374-1.374h17.644c.687 0 1.374.687 1.374 1.374v35.122c0 .687-.687 1.374-1.374 1.374h-17.644c-.687 0-1.374-.687-1.374-1.374v-35.122z" stroke="#FEFEFE" stroke-miterlimit="20"/><path d="M455.572 251.745a.449.449 0 01.429-.457c2.103-.102 11.224-.993 11.224-8.726v-17.704c0-4.3 5.125-6.613 8.283-3.697 3.245 2.992 6.217 9.624 6.28 23.85a.461.461 0 00.455.465h23.42c4.79 0 8.649 3.86 8.715 8.648.17 12.738-2.201 35.048-20.936 35.048H456.03a.463.463 0 01-.324-.134.463.463 0 01-.134-.324v-36.969z" fill="#062B57" fill-opacity=".47"/><path d="M455.572 251.745a.449.449 0 01.429-.457c2.103-.102 11.224-.993 11.224-8.726v-17.704c0-4.3 5.125-6.613 8.283-3.697 3.245 2.992 6.217 9.624 6.28 23.85a.461.461 0 00.455.465h23.42c4.79 0 8.649 3.86 8.715 8.648.17 12.738-2.201 35.048-20.936 35.048H456.03a.463.463 0 01-.324-.134.463.463 0 01-.134-.324v-36.969z" stroke="#FEFEFE" stroke-miterlimit="20"/><path d="M942.852 563.008c0-.939.94-1.877 1.879-1.877h24.134c.94 0 1.88.938 1.88 1.877v47.984c0 .938-.94 1.877-1.88 1.877h-24.134c-.939 0-1.879-.939-1.879-1.877v-47.984z" fill="#062B57" fill-opacity=".47"/><path d="M942.852 563.008c0-.939.94-1.877 1.879-1.877h24.134c.94 0 1.88.938 1.88 1.877v47.984c0 .938-.94 1.877-1.88 1.877h-24.134c-.939 0-1.879-.939-1.879-1.877v-47.984z" stroke="#FEFEFE" stroke-miterlimit="20"/><path d="M978.713 561.736a.616.616 0 01.587-.624c2.877-.139 15.353-1.357 15.353-11.922v-24.187c0-5.874 7.007-9.034 11.327-5.051 4.44 4.088 8.51 13.149 8.59 32.584 0 .167.07.327.18.445a.65.65 0 00.44.191h32.04c6.55 0 11.83 5.273 11.92 11.814.23 17.403-3.01 47.883-28.64 47.883h-51.17a.63.63 0 01-.627-.626v-50.507z" fill="#062B57" fill-opacity=".47"/><path d="M978.713 561.736a.616.616 0 01.587-.624c2.877-.139 15.353-1.357 15.353-11.922v-24.187c0-5.874 7.007-9.034 11.327-5.051 4.44 4.088 8.51 13.149 8.59 32.584 0 .167.07.327.18.445a.65.65 0 00.44.191h32.04c6.55 0 11.83 5.273 11.92 11.814.23 17.403-3.01 47.883-28.64 47.883h-51.17a.63.63 0 01-.627-.626v-50.507z" stroke="#FEFEFE" stroke-miterlimit="20"/><path d="M1703.61 979.178c0-.31.3-.619.61-.619h7.91c.31 0 .62.309.62.619v15.83c0 .309-.31.619-.62.619h-7.91c-.31 0-.61-.31-.61-.619v-15.83z" fill="#062B57" fill-opacity=".47"/><path d="M1703.61 979.178c0-.31.3-.619.61-.619h7.91c.31 0 .62.309.62.619v15.83c0 .309-.31.619-.62.619h-7.91c-.31 0-.61-.31-.61-.619v-15.83z" stroke="#FEFEFE" stroke-miterlimit="20"/><path d="M1715.36 978.758c0-.052.02-.103.05-.142a.226.226 0 01.14-.064c.94-.046 5.03-.447 5.03-3.932v-7.98c0-1.938 2.3-2.98 3.72-1.666 1.45 1.349 2.78 4.338 2.81 10.749 0 .055.02.108.06.147.04.039.09.062.15.063h10.49c2.15 0 3.88 1.74 3.91 3.898.08 5.741-.99 15.796-9.38 15.796h-16.77a.208.208 0 01-.21-.207v-16.662z" fill="#062B57" fill-opacity=".47"/><path d="M1715.36 978.758c0-.052.02-.103.05-.142a.226.226 0 01.14-.064c.94-.046 5.03-.447 5.03-3.932v-7.98c0-1.938 2.3-2.98 3.72-1.666 1.45 1.349 2.78 4.338 2.81 10.749 0 .055.02.108.06.147.04.039.09.062.15.063h10.49c2.15 0 3.88 1.74 3.91 3.898.08 5.741-.99 15.796-9.38 15.796h-16.77a.208.208 0 01-.21-.207v-16.662z" stroke="#FEFEFE" stroke-miterlimit="20"/><path d="M1498.92 351.768c0-.464.46-.929.93-.929h11.97c.46 0 .93.465.93.929v23.744c0 .465-.47.929-.93.929h-11.97c-.47 0-.93-.464-.93-.929v-23.744z" fill="#062B57" fill-opacity=".47"/><path d="M1498.92 351.768c0-.464.46-.929.93-.929h11.97c.46 0 .93.465.93.929v23.744c0 .465-.47.929-.93.929h-11.97c-.47 0-.93-.464-.93-.929v-23.744z" stroke="#FEFEFE" stroke-miterlimit="20"/><path d="M1516.7 351.138c0-.08.03-.156.08-.214a.319.319 0 01.21-.095c1.43-.069 7.61-.672 7.61-5.9V332.96c0-2.907 3.48-4.47 5.62-2.499 2.2 2.023 4.21 6.506 4.26 16.124 0 .082.03.161.09.22.05.059.13.093.22.094h15.88c3.25 0 5.86 2.61 5.91 5.847.11 8.612-1.49 23.694-14.2 23.694h-25.37a.32.32 0 01-.22-.091.3.3 0 01-.09-.218v-24.993z" fill="#062B57" fill-opacity=".47"/><path d="M1516.7 351.138c0-.08.03-.156.08-.214a.319.319 0 01.21-.095c1.43-.069 7.61-.672 7.61-5.9V332.96c0-2.907 3.48-4.47 5.62-2.499 2.2 2.023 4.21 6.506 4.26 16.124 0 .082.03.161.09.22.05.059.13.093.22.094h15.88c3.25 0 5.86 2.61 5.91 5.847.11 8.612-1.49 23.694-14.2 23.694h-25.37a.32.32 0 01-.22-.091.3.3 0 01-.09-.218v-24.993z" stroke="#FEFEFE" stroke-miterlimit="20"/><path d="M1853.45 132.383c0-.232.23-.464.46-.464h5.88c.23 0 .46.232.46.464v11.873c0 .232-.23.464-.46.464h-5.88c-.23 0-.46-.232-.46-.464v-11.873z" fill="#062B57" fill-opacity=".47"/><path d="M1853.45 132.383c0-.232.23-.464.46-.464h5.88c.23 0 .46.232.46.464v11.873c0 .232-.23.464-.46.464h-5.88c-.23 0-.46-.232-.46-.464v-11.873z" stroke="#FEFEFE" stroke-miterlimit="20"/><path d="M1862.19 132.069c0-.04.01-.078.04-.107a.148.148 0 01.1-.048c.7-.034 3.75-.336 3.75-2.95v-5.984c0-1.454 1.7-2.235 2.76-1.25 1.08 1.012 2.07 3.253 2.09 8.062 0 .041.02.081.04.11.03.03.07.047.11.047h7.81c1.59 0 2.88 1.305 2.9 2.924.06 4.306-.73 11.847-6.98 11.847h-12.47c-.04 0-.08-.017-.1-.046a.155.155 0 01-.05-.109v-12.496z" fill="#062B57" fill-opacity=".47"/><path d="M1862.19 132.069c0-.04.01-.078.04-.107a.148.148 0 01.1-.048c.7-.034 3.75-.336 3.75-2.95v-5.984c0-1.454 1.7-2.235 2.76-1.25 1.08 1.012 2.07 3.253 2.09 8.062 0 .041.02.081.04.11.03.03.07.047.11.047h7.81c1.59 0 2.88 1.305 2.9 2.924.06 4.306-.73 11.847-6.98 11.847h-12.47c-.04 0-.08-.017-.1-.046a.155.155 0 01-.05-.109v-12.496z" stroke="#FEFEFE" stroke-miterlimit="20"/><path d="M4084 755.664c0-.503.5-1.006 1.01-1.006h12.98c.5 0 1.01.503 1.01 1.006v25.723c0 .503-.51 1.006-1.01 1.006h-12.98c-.51 0-1.01-.503-1.01-1.006v-25.723z" fill="#062B57" fill-opacity=".47"/><path d="M4084 755.664c0-.503.5-1.006 1.01-1.006h12.98c.5 0 1.01.503 1.01 1.006v25.723c0 .503-.51 1.006-1.01 1.006h-12.98c-.51 0-1.01-.503-1.01-1.006v-25.723z" stroke="#FEFEFE" stroke-miterlimit="20"/><path d="M4103.28 754.982c0-.085.03-.168.09-.231a.337.337 0 01.23-.103c1.55-.075 8.26-.728 8.26-6.391V735.29c0-3.149 3.77-4.843 6.09-2.707 2.39 2.191 4.57 7.048 4.62 17.467 0 .089.03.175.1.239.06.064.14.1.23.102h17.23c3.53 0 6.36 2.827 6.41 6.334.13 9.329-1.62 25.669-15.4 25.669h-27.52a.358.358 0 01-.24-.099.35.35 0 01-.1-.237v-27.076z" fill="#062B57" fill-opacity=".47"/><path d="M4103.28 754.982c0-.085.03-.168.09-.231a.337.337 0 01.23-.103c1.55-.075 8.26-.728 8.26-6.391V735.29c0-3.149 3.77-4.843 6.09-2.707 2.39 2.191 4.57 7.048 4.62 17.467 0 .089.03.175.1.239.06.064.14.1.23.102h17.23c3.53 0 6.36 2.827 6.41 6.334.13 9.329-1.62 25.669-15.4 25.669h-27.52a.358.358 0 01-.24-.099.35.35 0 01-.1-.237v-27.076z" stroke="#FEFEFE" stroke-miterlimit="20"/><path d="M4389.35 252.676c0-.687.69-1.374 1.38-1.374h17.64c.69 0 1.38.687 1.38 1.374v35.122c0 .687-.69 1.374-1.38 1.374h-17.64c-.69 0-1.38-.687-1.38-1.374v-35.122z" fill="#062B57" fill-opacity=".47"/><path d="M4389.35 252.676c0-.687.69-1.374 1.38-1.374h17.64c.69 0 1.38.687 1.38 1.374v35.122c0 .687-.69 1.374-1.38 1.374h-17.64c-.69 0-1.38-.687-1.38-1.374v-35.122z" stroke="#FEFEFE" stroke-miterlimit="20"/><path d="M4415.57 251.745a.45.45 0 01.43-.457c2.1-.102 11.22-.993 11.22-8.726v-17.704c0-4.3 5.13-6.613 8.29-3.697 3.24 2.992 6.21 9.624 6.28 23.85 0 .122.04.239.13.326.08.087.2.137.32.139h23.42c4.79 0 8.65 3.86 8.72 8.648.17 12.738-2.2 35.048-20.94 35.048h-37.41a.445.445 0 01-.32-.134.448.448 0 01-.14-.324v-36.969z" fill="#062B57" fill-opacity=".47"/><path d="M4415.57 251.745a.45.45 0 01.43-.457c2.1-.102 11.22-.993 11.22-8.726v-17.704c0-4.3 5.13-6.613 8.29-3.697 3.24 2.992 6.21 9.624 6.28 23.85 0 .122.04.239.13.326.08.087.2.137.32.139h23.42c4.79 0 8.65 3.86 8.72 8.648.17 12.738-2.2 35.048-20.94 35.048h-37.41a.445.445 0 01-.32-.134.448.448 0 01-.14-.324v-36.969z" stroke="#FEFEFE" stroke-miterlimit="20"/><path d="M4902.85 563.008c0-.939.94-1.877 1.88-1.877h24.14c.94 0 1.88.938 1.88 1.877v47.984c0 .938-.94 1.877-1.88 1.877h-24.14c-.94 0-1.88-.939-1.88-1.877v-47.984z" fill="#062B57" fill-opacity=".47"/><path d="M4902.85 563.008c0-.939.94-1.877 1.88-1.877h24.14c.94 0 1.88.938 1.88 1.877v47.984c0 .938-.94 1.877-1.88 1.877h-24.14c-.94 0-1.88-.939-1.88-1.877v-47.984z" stroke="#FEFEFE" stroke-miterlimit="20"/><path d="M4938.71 561.736a.616.616 0 01.59-.624c2.88-.139 15.35-1.357 15.35-11.922v-24.187c0-5.874 7.01-9.034 11.33-5.051 4.44 4.088 8.51 13.149 8.59 32.584 0 .167.07.327.18.445a.65.65 0 00.44.191h32.04c6.55 0 11.83 5.273 11.92 11.814.23 17.403-3.01 47.883-28.64 47.883h-51.17a.603.603 0 01-.44-.184.62.62 0 01-.19-.442v-50.507z" fill="#062B57" fill-opacity=".47"/><path d="M4938.71 561.736a.616.616 0 01.59-.624c2.88-.139 15.35-1.357 15.35-11.922v-24.187c0-5.874 7.01-9.034 11.33-5.051 4.44 4.088 8.51 13.149 8.59 32.584 0 .167.07.327.18.445a.65.65 0 00.44.191h32.04c6.55 0 11.83 5.273 11.92 11.814.23 17.403-3.01 47.883-28.64 47.883h-51.17a.603.603 0 01-.44-.184.62.62 0 01-.19-.442v-50.507z" stroke="#FEFEFE" stroke-miterlimit="20"/><path d="M5663.61 979.178c0-.31.3-.619.61-.619h7.91c.31 0 .62.309.62.619v15.83c0 .309-.31.619-.62.619h-7.91c-.31 0-.61-.31-.61-.619v-15.83z" fill="#062B57" fill-opacity=".47"/><path d="M5663.61 979.178c0-.31.3-.619.61-.619h7.91c.31 0 .62.309.62.619v15.83c0 .309-.31.619-.62.619h-7.91c-.31 0-.61-.31-.61-.619v-15.83z" stroke="#FEFEFE" stroke-miterlimit="20"/><path d="M5675.36 978.758c0-.052.02-.103.05-.142a.226.226 0 01.14-.064c.94-.046 5.03-.447 5.03-3.932v-7.98c0-1.938 2.3-2.98 3.72-1.666 1.45 1.349 2.78 4.338 2.81 10.749 0 .055.02.108.06.147.04.039.09.062.15.063h10.49c2.15 0 3.88 1.74 3.91 3.898.08 5.741-.99 15.796-9.38 15.796h-16.77a.208.208 0 01-.21-.207v-16.662z" fill="#062B57" fill-opacity=".47"/><path d="M5675.36 978.758c0-.052.02-.103.05-.142a.226.226 0 01.14-.064c.94-.046 5.03-.447 5.03-3.932v-7.98c0-1.938 2.3-2.98 3.72-1.666 1.45 1.349 2.78 4.338 2.81 10.749 0 .055.02.108.06.147.04.039.09.062.15.063h10.49c2.15 0 3.88 1.74 3.91 3.898.08 5.741-.99 15.796-9.38 15.796h-16.77a.208.208 0 01-.21-.207v-16.662z" stroke="#FEFEFE" stroke-miterlimit="20"/><path d="M5458.92 351.768c0-.464.46-.929.93-.929h11.97c.46 0 .93.465.93.929v23.744c0 .465-.47.929-.93.929h-11.97c-.47 0-.93-.464-.93-.929v-23.744z" fill="#062B57" fill-opacity=".47"/><path d="M5458.92 351.768c0-.464.46-.929.93-.929h11.97c.46 0 .93.465.93.929v23.744c0 .465-.47.929-.93.929h-11.97c-.47 0-.93-.464-.93-.929v-23.744z" stroke="#FEFEFE" stroke-miterlimit="20"/><path d="M5476.7 351.138c0-.08.03-.156.08-.214a.319.319 0 01.21-.095c1.43-.069 7.61-.672 7.61-5.9V332.96c0-2.907 3.48-4.47 5.62-2.499 2.2 2.023 4.21 6.506 4.26 16.124 0 .082.03.161.09.22.05.059.13.093.22.094h15.88c3.25 0 5.86 2.61 5.91 5.847.11 8.612-1.49 23.694-14.2 23.694h-25.37a.32.32 0 01-.22-.091.3.3 0 01-.09-.218v-24.993z" fill="#062B57" fill-opacity=".47"/><path d="M5476.7 351.138c0-.08.03-.156.08-.214a.319.319 0 01.21-.095c1.43-.069 7.61-.672 7.61-5.9V332.96c0-2.907 3.48-4.47 5.62-2.499 2.2 2.023 4.21 6.506 4.26 16.124 0 .082.03.161.09.22.05.059.13.093.22.094h15.88c3.25 0 5.86 2.61 5.91 5.847.11 8.612-1.49 23.694-14.2 23.694h-25.37a.32.32 0 01-.22-.091.3.3 0 01-.09-.218v-24.993z" stroke="#FEFEFE" stroke-miterlimit="20"/><path d="M5813.45 132.383c0-.232.23-.464.46-.464h5.88c.23 0 .46.232.46.464v11.873c0 .232-.23.464-.46.464h-5.88c-.23 0-.46-.232-.46-.464v-11.873z" fill="#062B57" fill-opacity=".47"/><path d="M5813.45 132.383c0-.232.23-.464.46-.464h5.88c.23 0 .46.232.46.464v11.873c0 .232-.23.464-.46.464h-5.88c-.23 0-.46-.232-.46-.464v-11.873z" stroke="#FEFEFE" stroke-miterlimit="20"/><path d="M5822.19 132.069c0-.04.01-.078.04-.107a.148.148 0 01.1-.048c.7-.034 3.75-.336 3.75-2.95v-5.984c0-1.454 1.7-2.235 2.76-1.25 1.08 1.012 2.07 3.253 2.09 8.062 0 .041.02.081.04.11.03.03.07.047.11.047h7.81c1.59 0 2.88 1.305 2.9 2.924.06 4.306-.73 11.847-6.98 11.847h-12.47c-.04 0-.08-.017-.1-.046a.155.155 0 01-.05-.109v-12.496z" fill="#062B57" fill-opacity=".47"/><path d="M5822.19 132.069c0-.04.01-.078.04-.107a.148.148 0 01.1-.048c.7-.034 3.75-.336 3.75-2.95v-5.984c0-1.454 1.7-2.235 2.76-1.25 1.08 1.012 2.07 3.253 2.09 8.062 0 .041.02.081.04.11.03.03.07.047.11.047h7.81c1.59 0 2.88 1.305 2.9 2.924.06 4.306-.73 11.847-6.98 11.847h-12.47c-.04 0-.08-.017-.1-.046a.155.155 0 01-.05-.109v-12.496z" stroke="#FEFEFE" stroke-miterlimit="20"/><path d="M2104 755.664c0-.503.5-1.006 1.01-1.006h12.98c.5 0 1.01.503 1.01 1.006v25.723c0 .503-.51 1.006-1.01 1.006h-12.98c-.51 0-1.01-.503-1.01-1.006v-25.723z" fill="#062B57" fill-opacity=".47"/><path d="M2104 755.664c0-.503.5-1.006 1.01-1.006h12.98c.5 0 1.01.503 1.01 1.006v25.723c0 .503-.51 1.006-1.01 1.006h-12.98c-.51 0-1.01-.503-1.01-1.006v-25.723z" stroke="#FEFEFE" stroke-miterlimit="20"/><path d="M2123.28 754.982c0-.085.03-.168.09-.231a.337.337 0 01.23-.103c1.55-.075 8.26-.728 8.26-6.391V735.29c0-3.149 3.77-4.843 6.09-2.707 2.39 2.191 4.57 7.048 4.62 17.467 0 .089.03.175.1.239.06.064.14.1.23.102h17.23c3.53 0 6.36 2.827 6.41 6.334.13 9.329-1.62 25.669-15.4 25.669h-27.52a.358.358 0 01-.24-.099.35.35 0 01-.1-.237v-27.076z" fill="#062B57" fill-opacity=".47"/><path d="M2123.28 754.982c0-.085.03-.168.09-.231a.337.337 0 01.23-.103c1.55-.075 8.26-.728 8.26-6.391V735.29c0-3.149 3.77-4.843 6.09-2.707 2.39 2.191 4.57 7.048 4.62 17.467 0 .089.03.175.1.239.06.064.14.1.23.102h17.23c3.53 0 6.36 2.827 6.41 6.334.13 9.329-1.62 25.669-15.4 25.669h-27.52a.358.358 0 01-.24-.099.35.35 0 01-.1-.237v-27.076z" stroke="#FEFEFE" stroke-miterlimit="20"/><path d="M2409.35 252.676c0-.687.69-1.374 1.38-1.374h17.64c.69 0 1.38.687 1.38 1.374v35.122c0 .687-.69 1.374-1.38 1.374h-17.64c-.69 0-1.38-.687-1.38-1.374v-35.122z" fill="#062B57" fill-opacity=".47"/><path d="M2409.35 252.676c0-.687.69-1.374 1.38-1.374h17.64c.69 0 1.38.687 1.38 1.374v35.122c0 .687-.69 1.374-1.38 1.374h-17.64c-.69 0-1.38-.687-1.38-1.374v-35.122z" stroke="#FEFEFE" stroke-miterlimit="20"/><path d="M2435.57 251.745a.45.45 0 01.43-.457c2.1-.102 11.22-.993 11.22-8.726v-17.704c0-4.3 5.13-6.613 8.29-3.697 3.24 2.992 6.21 9.624 6.28 23.85 0 .122.04.239.13.326.08.087.2.137.32.139h23.42c4.79 0 8.65 3.86 8.72 8.648.17 12.738-2.2 35.048-20.94 35.048h-37.41a.445.445 0 01-.32-.134.448.448 0 01-.14-.324v-36.969z" fill="#062B57" fill-opacity=".47"/><path d="M2435.57 251.745a.45.45 0 01.43-.457c2.1-.102 11.22-.993 11.22-8.726v-17.704c0-4.3 5.13-6.613 8.29-3.697 3.24 2.992 6.21 9.624 6.28 23.85 0 .122.04.239.13.326.08.087.2.137.32.139h23.42c4.79 0 8.65 3.86 8.72 8.648.17 12.738-2.2 35.048-20.94 35.048h-37.41a.445.445 0 01-.32-.134.448.448 0 01-.14-.324v-36.969z" stroke="#FEFEFE" stroke-miterlimit="20"/><path d="M2922.85 563.008c0-.939.94-1.877 1.88-1.877h24.14c.94 0 1.88.938 1.88 1.877v47.984c0 .938-.94 1.877-1.88 1.877h-24.14c-.94 0-1.88-.939-1.88-1.877v-47.984z" fill="#062B57" fill-opacity=".47"/><path d="M2922.85 563.008c0-.939.94-1.877 1.88-1.877h24.14c.94 0 1.88.938 1.88 1.877v47.984c0 .938-.94 1.877-1.88 1.877h-24.14c-.94 0-1.88-.939-1.88-1.877v-47.984z" stroke="#FEFEFE" stroke-miterlimit="20"/><path d="M2958.71 561.736a.616.616 0 01.59-.624c2.88-.139 15.35-1.357 15.35-11.922v-24.187c0-5.874 7.01-9.034 11.33-5.051 4.44 4.088 8.51 13.149 8.59 32.584 0 .167.07.327.18.445a.65.65 0 00.44.191h32.04c6.55 0 11.83 5.273 11.92 11.814.23 17.403-3.01 47.883-28.64 47.883h-51.17a.603.603 0 01-.44-.184.62.62 0 01-.19-.442v-50.507z" fill="#062B57" fill-opacity=".47"/><path d="M2958.71 561.736a.616.616 0 01.59-.624c2.88-.139 15.35-1.357 15.35-11.922v-24.187c0-5.874 7.01-9.034 11.33-5.051 4.44 4.088 8.51 13.149 8.59 32.584 0 .167.07.327.18.445a.65.65 0 00.44.191h32.04c6.55 0 11.83 5.273 11.92 11.814.23 17.403-3.01 47.883-28.64 47.883h-51.17a.603.603 0 01-.44-.184.62.62 0 01-.19-.442v-50.507z" stroke="#FEFEFE" stroke-miterlimit="20"/><path d="M3683.61 979.178c0-.31.3-.619.61-.619h7.91c.31 0 .62.309.62.619v15.83c0 .309-.31.619-.62.619h-7.91c-.31 0-.61-.31-.61-.619v-15.83z" fill="#062B57" fill-opacity=".47"/><path d="M3683.61 979.178c0-.31.3-.619.61-.619h7.91c.31 0 .62.309.62.619v15.83c0 .309-.31.619-.62.619h-7.91c-.31 0-.61-.31-.61-.619v-15.83z" stroke="#FEFEFE" stroke-miterlimit="20"/><path d="M3695.36 978.758c0-.052.02-.103.05-.142a.226.226 0 01.14-.064c.94-.046 5.03-.447 5.03-3.932v-7.98c0-1.938 2.3-2.98 3.72-1.666 1.45 1.349 2.78 4.338 2.81 10.749 0 .055.02.108.06.147.04.039.09.062.15.063h10.49c2.15 0 3.88 1.74 3.91 3.898.08 5.741-.99 15.796-9.38 15.796h-16.77a.208.208 0 01-.21-.207v-16.662z" fill="#062B57" fill-opacity=".47"/><path d="M3695.36 978.758c0-.052.02-.103.05-.142a.226.226 0 01.14-.064c.94-.046 5.03-.447 5.03-3.932v-7.98c0-1.938 2.3-2.98 3.72-1.666 1.45 1.349 2.78 4.338 2.81 10.749 0 .055.02.108.06.147.04.039.09.062.15.063h10.49c2.15 0 3.88 1.74 3.91 3.898.08 5.741-.99 15.796-9.38 15.796h-16.77a.208.208 0 01-.21-.207v-16.662z" stroke="#FEFEFE" stroke-miterlimit="20"/><path d="M3478.92 351.768c0-.464.46-.929.93-.929h11.97c.46 0 .93.465.93.929v23.744c0 .465-.47.929-.93.929h-11.97c-.47 0-.93-.464-.93-.929v-23.744z" fill="#062B57" fill-opacity=".47"/><path d="M3478.92 351.768c0-.464.46-.929.93-.929h11.97c.46 0 .93.465.93.929v23.744c0 .465-.47.929-.93.929h-11.97c-.47 0-.93-.464-.93-.929v-23.744z" stroke="#FEFEFE" stroke-miterlimit="20"/><path d="M3496.7 351.138c0-.08.03-.156.08-.214a.319.319 0 01.21-.095c1.43-.069 7.61-.672 7.61-5.9V332.96c0-2.907 3.48-4.47 5.62-2.499 2.2 2.023 4.21 6.506 4.26 16.124 0 .082.03.161.09.22.05.059.13.093.22.094h15.88c3.25 0 5.86 2.61 5.91 5.847.11 8.612-1.49 23.694-14.2 23.694h-25.37a.32.32 0 01-.22-.091.3.3 0 01-.09-.218v-24.993z" fill="#062B57" fill-opacity=".47"/><path d="M3496.7 351.138c0-.08.03-.156.08-.214a.319.319 0 01.21-.095c1.43-.069 7.61-.672 7.61-5.9V332.96c0-2.907 3.48-4.47 5.62-2.499 2.2 2.023 4.21 6.506 4.26 16.124 0 .082.03.161.09.22.05.059.13.093.22.094h15.88c3.25 0 5.86 2.61 5.91 5.847.11 8.612-1.49 23.694-14.2 23.694h-25.37a.32.32 0 01-.22-.091.3.3 0 01-.09-.218v-24.993z" stroke="#FEFEFE" stroke-miterlimit="20"/><path d="M3833.45 132.383c0-.232.23-.464.46-.464h5.88c.23 0 .46.232.46.464v11.873c0 .232-.23.464-.46.464h-5.88c-.23 0-.46-.232-.46-.464v-11.873z" fill="#062B57" fill-opacity=".47"/><path d="M3833.45 132.383c0-.232.23-.464.46-.464h5.88c.23 0 .46.232.46.464v11.873c0 .232-.23.464-.46.464h-5.88c-.23 0-.46-.232-.46-.464v-11.873z" stroke="#FEFEFE" stroke-miterlimit="20"/><path d="M3842.19 132.069c0-.04.01-.078.04-.107a.148.148 0 01.1-.048c.7-.034 3.75-.336 3.75-2.95v-5.984c0-1.454 1.7-2.235 2.76-1.25 1.08 1.012 2.07 3.253 2.09 8.062 0 .041.02.081.04.11.03.03.07.047.11.047h7.81c1.59 0 2.88 1.305 2.9 2.924.06 4.306-.73 11.847-6.98 11.847h-12.47c-.04 0-.08-.017-.1-.046a.155.155 0 01-.05-.109v-12.496z" fill="#062B57" fill-opacity=".47"/><path d="M3842.19 132.069c0-.04.01-.078.04-.107a.148.148 0 01.1-.048c.7-.034 3.75-.336 3.75-2.95v-5.984c0-1.454 1.7-2.235 2.76-1.25 1.08 1.012 2.07 3.253 2.09 8.062 0 .041.02.081.04.11.03.03.07.047.11.047h7.81c1.59 0 2.88 1.305 2.9 2.924.06 4.306-.73 11.847-6.98 11.847h-12.47c-.04 0-.08-.017-.1-.046a.155.155 0 01-.05-.109v-12.496z" stroke="#FEFEFE" stroke-miterlimit="20"/></svg>