<svg xmlns="http://www.w3.org/2000/svg" width="463" height="256"><defs><clipPath id="c"><path fill="#fff" d="M5 249V1h453v248zM453 6.8H10V192h315.337l65.003 51.48 34.146-43.117-10.56-8.363H453z"/></clipPath><filter id="a" width="475" height="273" x="-6" y="-10" filterUnits="userSpaceOnUse"><feOffset dy="3" in="SourceGraphic" result="FeOffset1023Out"/><feGaussianBlur in="FeOffset1023Out" result="FeGaussianBlur1024Out" stdDeviation="2.4 2.4"/></filter><mask id="b" width="2" height="2" x="-1" y="-1"><path fill="#fff" d="M10 6h443v238H10z"/><path d="M453 6.8H10V192h315.337l65.003 51.48 34.146-43.117-10.56-8.363H453z"/></mask></defs><g filter="url(#a)"><path fill="none" d="M453 6.8H10V192h315.337l65.003 51.48 34.146-43.117-10.56-8.363H453z" mask="url(&quot;#b&quot;)"/><path fill-opacity=".38" d="M453 6.8H10V192h315.337l65.003 51.48 34.146-43.117-10.56-8.363H453z"/></g><path fill="#fff" d="M453 6.8H10V192h315.337l65.003 51.48 34.146-43.117-10.56-8.363H453z"/><path fill="none" stroke="#c10014" stroke-linecap="round" stroke-linejoin="round" stroke-miterlimit="20" stroke-opacity=".66" stroke-width="10" d="M453 6.8v0H10V192h315.337v0l65.003 51.48v0l34.146-43.117v0L413.926 192v0H453v0z" clip-path="url(&quot;#c&quot;)"/></svg>