<svg width="474" height="228" fill="none" xmlns="http://www.w3.org/2000/svg"><g clip-path="url(#clip0)"><path d="M409.458 123.58L397.027 22.34l64.515-7.92 12.431 101.239-64.515 7.921z" fill="#899BB0"/><g filter="url(#filter0_d)"><path d="M448 25H5v146h315.337l65.003 51.48 34.146-43.117-10.56-8.363H448V25z" stroke="#000" stroke-opacity=".38" stroke-width="5" stroke-miterlimit="20" stroke-linecap="round" stroke-linejoin="round"/></g><path d="M448 25H5v146h315.337l65.003 51.48 34.146-43.117-10.56-8.363H448V25z" fill="#fff"/><path d="M448 25H5v146h315.337l65.003 51.48 34.146-43.117-10.56-8.363H448V25z" stroke="#C10014" stroke-opacity=".68" stroke-width="5" stroke-miterlimit="20" stroke-linecap="round" stroke-linejoin="round"/><path d="M433.419 31.647a2.177 2.177 0 00-2.612 1.645l-8.073 35.535c-1.348 5.933-5.87 11.198-12.925 9.598-7.057-1.603-8.857-8.307-7.508-14.24l11.412-50.233a12.135 12.135 0 015.406-7.636 12.145 12.145 0 019.222-1.576 12.142 12.142 0 017.634 5.406 12.123 12.123 0 011.692 8.57h4.424c1.05-8.354-4.404-16.33-12.784-18.233a16.495 16.495 0 00-12.515 2.14 16.495 16.495 0 00-7.336 10.362l-11.413 50.233c-2.163 9.524 2.277 17.529 10.8 19.465.681.155 1.372.265 2.067.33 7.64.71 14.095-4.474 16.08-13.22l8.074-35.533a2.18 2.18 0 00-1.645-2.613z" fill="#161615"/></g><defs><clipPath id="clip0"><path fill="#fff" d="M0 0h474v228H0z"/></clipPath><filter id="filter0_d" x="-3.5" y="19.5" width="460" height="214.48" filterUnits="userSpaceOnUse" color-interpolation-filters="sRGB"><feFlood flood-opacity="0" result="BackgroundImageFix"/><feColorMatrix in="SourceAlpha" values="0 0 0 0 0 0 0 0 0 0 0 0 0 0 0 0 0 0 127 0"/><feOffset dy="3"/><feGaussianBlur stdDeviation="3"/><feColorMatrix values="0 0 0 0 0 0 0 0 0 0 0 0 0 0 0 0 0 0 0.25 0"/><feBlend in2="BackgroundImageFix" result="effect1_dropShadow"/><feBlend in="SourceGraphic" in2="effect1_dropShadow" result="shape"/></filter></defs></svg>