<svg width="5940" height="1080" fill="none" xmlns="http://www.w3.org/2000/svg"><path d="M177.826 181.873a4.678 4.678 0 013.298 1.368 4.678 4.678 0 011.368 3.298v31.951a4.67 4.67 0 01-4.666 4.666h-8.528a6.673 6.673 0 00-6.667 6.667v7.58c0 1.408-1.073 1.963-1.403 2.099-.324.135-1.479.504-2.474-.491l-13.904-13.902a6.712 6.712 0 00-4.714-1.952h-17.1a4.672 4.672 0 01-4.668-4.666v-31.952a4.675 4.675 0 014.668-4.666h54.79zm-22.18 60.246c1.293 1.29 2.954 1.968 4.672 1.968a6.768 6.768 0 002.593-.526c2.539-1.05 4.115-3.41 4.115-6.156v-7.581a2.277 2.277 0 012.272-2.273h8.528c4.996 0 9.06-4.064 9.06-9.06v-31.952c0-4.996-4.064-9.06-9.06-9.06h-54.79c-4.996 0-9.062 4.064-9.062 9.06v31.951c0 4.996 4.066 9.06 9.062 9.06h17.1c.6 0 1.187.242 1.608.665l13.902 13.905v-.001z" fill="#062B57" fill-opacity=".47"/><path d="M134.16 200.197a3.185 3.185 0 012.249 5.433 3.19 3.19 0 01-2.25.933 3.189 3.189 0 01-3.185-3.183 3.187 3.187 0 013.185-3.183h.001zm0 8.563a5.385 5.385 0 005.38-5.38 5.385 5.385 0 00-5.38-5.38 5.384 5.384 0 00-5.383 5.38 5.389 5.389 0 005.382 5.38h.001zm16.271-8.563a3.19 3.19 0 013.185 3.183 3.193 3.193 0 01-3.185 3.183 3.19 3.19 0 01-2.25-.933 3.19 3.19 0 01-.933-2.25 3.19 3.19 0 01.933-2.25 3.19 3.19 0 012.25-.933zm0 8.563a5.388 5.388 0 005.38-5.38 5.388 5.388 0 00-5.38-5.38 5.388 5.388 0 00-5.38 5.38 5.388 5.388 0 005.38 5.38zm15.414-8.563a3.19 3.19 0 013.185 3.183 3.187 3.187 0 01-3.185 3.183 3.19 3.19 0 01-2.25-.933 3.19 3.19 0 01-.933-2.25 3.19 3.19 0 01.933-2.25 3.19 3.19 0 012.25-.933zm0 8.563a5.386 5.386 0 005.382-5.38 5.388 5.388 0 00-5.382-5.38 5.39 5.39 0 00-5.38 5.38 5.388 5.388 0 005.38 5.38zm332.981 313.112a4.679 4.679 0 013.298 1.369 4.678 4.678 0 011.368 3.298v31.951a4.668 4.668 0 01-1.369 3.296 4.671 4.671 0 01-3.297 1.37h-8.528a6.673 6.673 0 00-6.667 6.667v7.58c0 1.408-1.073 1.963-1.403 2.099-.324.135-1.479.503-2.474-.492l-13.904-13.901a6.713 6.713 0 00-4.714-1.953h-17.1a4.67 4.67 0 01-4.668-4.665v-31.952a4.675 4.675 0 014.668-4.667h54.79zm-22.18 60.247c1.293 1.29 2.954 1.967 4.672 1.967a6.768 6.768 0 002.593-.526c2.539-1.05 4.115-3.409 4.115-6.155v-7.582a2.274 2.274 0 012.272-2.272h8.528c4.996 0 9.06-4.064 9.06-9.06v-31.952c0-4.996-4.064-9.06-9.06-9.06h-54.79c-4.996 0-9.062 4.064-9.062 9.06v31.951c0 4.996 4.066 9.059 9.062 9.059h17.1c.6 0 1.187.243 1.608.666l13.902 13.905v-.001z" fill="#062B57" fill-opacity=".47"/><path d="M455.16 540.197a3.185 3.185 0 012.249 5.433 3.19 3.19 0 01-2.25.933 3.189 3.189 0 01-3.185-3.183 3.187 3.187 0 013.185-3.183h.001zm0 8.563a5.385 5.385 0 005.38-5.38 5.385 5.385 0 00-5.38-5.38 5.384 5.384 0 00-5.383 5.38 5.389 5.389 0 005.382 5.38h.001zm16.271-8.563a3.19 3.19 0 013.185 3.183 3.193 3.193 0 01-3.185 3.183 3.19 3.19 0 01-2.25-.933 3.19 3.19 0 01-.933-2.25 3.19 3.19 0 01.933-2.25 3.19 3.19 0 012.25-.933zm0 8.563a5.388 5.388 0 005.38-5.38 5.388 5.388 0 00-5.38-5.38 5.388 5.388 0 00-5.38 5.38 5.388 5.388 0 005.38 5.38zm15.414-8.563a3.19 3.19 0 013.185 3.183 3.187 3.187 0 01-3.185 3.183 3.19 3.19 0 01-2.25-.933 3.19 3.19 0 01-.933-2.25 3.19 3.19 0 01.933-2.25 3.19 3.19 0 012.25-.933zm0 8.563a5.386 5.386 0 005.382-5.38 5.388 5.388 0 00-5.382-5.38 5.39 5.39 0 00-5.38 5.38 5.388 5.388 0 005.38 5.38zM1028.32 69.673c1.44.002 2.82.575 3.84 1.593a5.421 5.421 0 011.59 3.84v37.196c0 1.44-.57 2.82-1.59 3.838a5.443 5.443 0 01-3.84 1.594h-9.93a7.784 7.784 0 00-5.49 2.276 7.776 7.776 0 00-2.27 5.485v8.825c0 1.639-1.25 2.285-1.64 2.443-.38.158-1.72.587-2.88-.571l-16.189-16.185a7.818 7.818 0 00-5.489-2.272h-19.911a5.439 5.439 0 01-5.435-5.432V75.105a5.44 5.44 0 015.435-5.432h63.799zm-25.83 70.137c1.51 1.502 3.44 2.291 5.44 2.291a7.872 7.872 0 003.02-.612c2.96-1.222 4.79-3.97 4.79-7.167v-8.825c0-.702.28-1.374.78-1.87a2.639 2.639 0 011.87-.777h9.93c5.82 0 10.55-4.731 10.55-10.547V75.105c0-5.816-4.73-10.547-10.55-10.547h-63.799c-5.817 0-10.551 4.73-10.551 10.547v37.197c0 5.816 4.734 10.547 10.551 10.547h19.911c.699 0 1.382.282 1.873.774l16.185 16.188v-.001z" fill="#062B57" fill-opacity=".47"/><path d="M977.474 91.006a3.713 3.713 0 013.705 3.705 3.708 3.708 0 01-7.415 0 3.714 3.714 0 013.709-3.705h.001zm0 9.968a6.267 6.267 0 006.264-6.263 6.267 6.267 0 00-6.264-6.263 6.272 6.272 0 00-6.268 6.263 6.27 6.27 0 006.267 6.263h.001zm18.946-9.968a3.714 3.714 0 013.71 3.705 3.714 3.714 0 01-3.71 3.706 3.712 3.712 0 01-3.707-3.706 3.712 3.712 0 013.707-3.706zm0 9.968a6.28 6.28 0 004.43-1.836 6.274 6.274 0 001.83-4.427c0-1.66-.66-3.252-1.83-4.427a6.28 6.28 0 00-4.43-1.836 6.27 6.27 0 00-6.265 6.263 6.269 6.269 0 006.265 6.263zm17.95-9.968c.98 0 1.92.391 2.62 1.086a3.771 3.771 0 011.09 2.62c-.01.982-.4 1.924-1.09 2.619a3.724 3.724 0 01-2.62 1.086 3.691 3.691 0 01-2.62-1.087 3.686 3.686 0 01-1.09-2.619c0-.982.39-1.924 1.09-2.618a3.691 3.691 0 012.62-1.087zm0 9.968a6.288 6.288 0 004.43-1.835 6.275 6.275 0 000-8.855 6.287 6.287 0 00-4.43-1.836 6.271 6.271 0 00-4.43 1.837 6.283 6.283 0 00-1.84 4.426 6.273 6.273 0 006.27 6.263zm536.18 370.117a4.844 4.844 0 00-3.43 1.43 4.891 4.891 0 00-1.43 3.445v33.382a4.934 4.934 0 001.43 3.445 4.844 4.844 0 003.43 1.43h8.88c1.84.002 3.6.737 4.91 2.042a6.979 6.979 0 012.03 4.923v7.92c0 1.471 1.12 2.051 1.46 2.193.34.141 1.54.526 2.58-.513l14.47-14.525a6.992 6.992 0 014.91-2.039h17.8a4.87 4.87 0 003.44-1.429 4.882 4.882 0 001.42-3.446v-33.383c0-1.293-.51-2.532-1.42-3.446a4.87 4.87 0 00-3.44-1.429h-57.04zm23.09 62.944c-1.34 1.348-3.07 2.056-4.86 2.056a6.987 6.987 0 01-2.7-.55c-2.64-1.097-4.29-3.562-4.29-6.431v-7.921a2.39 2.39 0 00-.69-1.678 2.346 2.346 0 00-1.67-.696h-8.88c-5.2 0-9.43-4.246-9.43-9.466v-33.383c0-5.22 4.23-9.466 9.43-9.466h57.04c5.2 0 9.44 4.246 9.44 9.466v33.382c0 5.22-4.24 9.465-9.44 9.465h-17.8c-.62 0-1.24.253-1.67.695l-14.48 14.528v-.001z" fill="#062B57" fill-opacity=".47"/><path d="M1596.01 490.236c-.88.001-1.72.352-2.34.975a3.336 3.336 0 000 4.701 3.304 3.304 0 004.69 0 3.335 3.335 0 000-4.701 3.34 3.34 0 00-2.35-.975zm0 8.946a5.605 5.605 0 01-3.96-1.648 5.628 5.628 0 010-7.945 5.61 5.61 0 013.96-1.649c1.49.002 2.91.594 3.96 1.648a5.682 5.682 0 011.65 3.973 5.683 5.683 0 01-1.65 3.974 5.59 5.59 0 01-3.96 1.647zm-16.94-8.946c-.88.001-1.72.352-2.34.975a3.332 3.332 0 000 4.701c.62.623 1.46.974 2.34.975a3.304 3.304 0 002.34-.975c.63-.624.97-1.469.98-2.351a3.344 3.344 0 00-.98-2.35 3.304 3.304 0 00-2.34-.975zm0 8.946a5.605 5.605 0 01-3.96-1.648 5.63 5.63 0 010-7.946 5.61 5.61 0 013.96-1.648c1.49.002 2.91.594 3.96 1.648a5.63 5.63 0 010 7.946 5.588 5.588 0 01-3.96 1.648zm-16.05-8.946a3.317 3.317 0 00-3.31 3.325 3.321 3.321 0 003.31 3.326 3.327 3.327 0 002.35-.975 3.337 3.337 0 000-4.701 3.327 3.327 0 00-2.35-.975zm0 8.946a5.623 5.623 0 01-3.96-1.648 5.63 5.63 0 010-7.946 5.627 5.627 0 013.96-1.648c1.49.002 2.91.595 3.96 1.649a5.678 5.678 0 011.65 3.972 5.68 5.68 0 01-1.65 3.973 5.588 5.588 0 01-3.96 1.648zM47.551 859.091a4.857 4.857 0 00-3.433 1.43 4.89 4.89 0 00-1.424 3.445v33.382a4.892 4.892 0 001.425 3.445 4.856 4.856 0 003.432 1.43h8.879a6.939 6.939 0 014.906 2.042 6.988 6.988 0 012.035 4.923v7.92c0 1.471 1.117 2.051 1.46 2.193.338.141 1.54.526 2.576-.513l14.476-14.525a6.978 6.978 0 014.907-2.039h17.803a4.862 4.862 0 003.434-1.429 4.892 4.892 0 001.426-3.446v-33.383a4.892 4.892 0 00-1.426-3.446 4.862 4.862 0 00-3.434-1.429H47.551zm23.092 62.944c-1.346 1.348-3.075 2.056-4.864 2.056a7.015 7.015 0 01-2.7-.55c-2.643-1.097-4.284-3.562-4.284-6.431v-7.921a2.38 2.38 0 00-.693-1.678 2.361 2.361 0 00-1.672-.696h-8.88c-5.2 0-9.432-4.246-9.432-9.466v-33.383c0-5.22 4.231-9.466 9.432-9.466h57.042c5.201 0 9.434 4.246 9.434 9.466v33.382c0 5.22-4.233 9.465-9.434 9.465H86.79c-.624 0-1.235.253-1.674.695l-14.473 14.528v-.001z" fill="#062B57" fill-opacity=".47"/><path d="M93.012 878.236a3.311 3.311 0 00-2.341.975 3.338 3.338 0 00-.972 2.35c.002.882.351 1.727.972 2.351a3.313 3.313 0 002.342.975 3.316 3.316 0 002.343-.975 3.336 3.336 0 00.973-2.351 3.334 3.334 0 00-.973-2.35 3.312 3.312 0 00-2.343-.975zm0 8.946a5.593 5.593 0 01-3.959-1.648 5.637 5.637 0 01-1.642-3.973 5.635 5.635 0 011.642-3.972 5.598 5.598 0 013.96-1.649 5.602 5.602 0 013.96 1.648 5.639 5.639 0 011.643 3.973 5.64 5.64 0 01-1.643 3.974 5.6 5.6 0 01-3.96 1.647zm-16.939-8.946a3.315 3.315 0 00-2.343.975 3.336 3.336 0 00-.973 2.35 3.34 3.34 0 00.973 2.351 3.315 3.315 0 002.343.975 3.313 3.313 0 002.342-.975c.621-.624.97-1.469.972-2.351a3.335 3.335 0 00-.972-2.35 3.313 3.313 0 00-2.342-.975zm0 8.946a5.594 5.594 0 01-3.96-1.648 5.634 5.634 0 01-1.641-3.973 5.637 5.637 0 011.642-3.973 5.598 5.598 0 013.959-1.648 5.598 5.598 0 013.959 1.648 5.637 5.637 0 011.642 3.973 5.634 5.634 0 01-1.642 3.973 5.594 5.594 0 01-3.96 1.648zm-16.048-8.946a3.312 3.312 0 00-2.343.975 3.334 3.334 0 00-.973 2.35c.002.882.351 1.728.973 2.351a3.316 3.316 0 002.343.975 3.313 3.313 0 002.342-.975c.621-.624.97-1.469.972-2.351a3.335 3.335 0 00-.972-2.35 3.313 3.313 0 00-2.342-.975zm0 8.946a5.596 5.596 0 01-3.96-1.648 5.636 5.636 0 01-1.643-3.973 5.64 5.64 0 011.643-3.973 5.6 5.6 0 013.96-1.648 5.598 5.598 0 013.959 1.649 5.635 5.635 0 011.642 3.972 5.637 5.637 0 01-1.642 3.973 5.593 5.593 0 01-3.959 1.648zm1855.505-851.2c-.75 0-1.46.302-1.99.837a2.86 2.86 0 00-.82 2.018V58.39c0 .757.29 1.483.82 2.018a2.8 2.8 0 001.99.838h5.14a3.98 3.98 0 012.84 1.196 4.127 4.127 0 011.18 2.883v4.639c0 .862.64 1.201.84 1.284.2.083.9.309 1.49-.3l8.39-8.507a3.995 3.995 0 012.84-1.195h10.3c.75 0 1.46-.302 1.99-.837a2.87 2.87 0 00.83-2.018V38.837c0-.757-.3-1.483-.83-2.018a2.796 2.796 0 00-1.99-.837h-33.02zm13.37 36.867c-.78.79-1.78 1.204-2.82 1.204a4.013 4.013 0 01-1.56-.322c-1.53-.642-2.48-2.087-2.48-3.767v-4.639c0-.369-.15-.722-.4-.983-.26-.26-.61-.407-.97-.408h-5.14c-3.01 0-5.46-2.487-5.46-5.544V38.837c0-3.057 2.45-5.544 5.46-5.544h33.02c3.01 0 5.47 2.487 5.47 5.544V58.39c0 3.057-2.46 5.544-5.47 5.544h-10.3c-.36 0-.72.149-.97.407l-8.38 8.51v-.001z" fill="#062B57" fill-opacity=".47"/><path d="M1941.85 47.195c-.51 0-1 .206-1.36.572-.36.365-.56.86-.56 1.376 0 .516.2 1.011.56 1.377a1.91 1.91 0 002.72 0c.36-.365.56-.86.56-1.377s-.2-1.012-.56-1.377a1.91 1.91 0 00-1.36-.57zm0 5.24a3.203 3.203 0 01-2.29-.965 3.308 3.308 0 01-.95-2.327c0-.873.34-1.71.95-2.327.6-.617 1.43-.964 2.29-.965.86 0 1.68.347 2.29.965.61.617.95 1.454.95 2.327s-.34 1.71-.95 2.327a3.22 3.22 0 01-2.29.965zm-9.81-5.24c-.51 0-.99.206-1.35.571-.36.365-.57.86-.57 1.377 0 .516.21 1.011.57 1.377a1.892 1.892 0 002.71 0c.36-.366.56-.86.56-1.377s-.2-1.012-.56-1.377a1.91 1.91 0 00-1.36-.57zm0 5.24a3.22 3.22 0 01-2.29-.965 3.308 3.308 0 01-.95-2.327c0-.873.34-1.71.95-2.327a3.22 3.22 0 012.29-.965 3.2 3.2 0 012.29.965c.61.617.95 1.454.95 2.327s-.34 1.71-.95 2.327c-.6.617-1.43.964-2.29.965zm-9.29-5.24c-.51 0-1 .206-1.36.571-.36.365-.56.86-.56 1.377 0 .516.2 1.012.56 1.377a1.91 1.91 0 002.72 0c.36-.366.56-.86.56-1.377s-.2-1.012-.56-1.377a1.91 1.91 0 00-1.36-.57zm0 5.24a3.22 3.22 0 01-2.29-.965 3.308 3.308 0 01-.95-2.327c0-.873.34-1.71.95-2.327a3.22 3.22 0 012.29-.965 3.22 3.22 0 012.29.965c.61.617.95 1.454.95 2.327s-.34 1.71-.95 2.327a3.22 3.22 0 01-2.29.965zm-599.22 676.547c-.75.001-1.46.302-1.99.837a2.862 2.862 0 00-.82 2.018v19.552c0 .757.29 1.483.82 2.018a2.8 2.8 0 001.99.838h5.14c1.07.001 2.09.431 2.84 1.196a4.128 4.128 0 011.18 2.884v4.638c0 .862.64 1.201.84 1.285.2.082.9.308 1.49-.301l8.39-8.507a3.996 3.996 0 012.84-1.195h10.3c.75 0 1.46-.301 1.99-.837a2.87 2.87 0 00.83-2.018v-19.553c0-.757-.3-1.483-.83-2.018a2.798 2.798 0 00-1.99-.837h-33.02zm13.37 36.867c-.78.789-1.78 1.204-2.82 1.204a3.997 3.997 0 01-1.56-.322c-1.53-.642-2.48-2.086-2.48-3.767v-4.639c0-.368-.15-.722-.4-.983a1.378 1.378 0 00-.97-.408h-5.14c-3.01 0-5.46-2.487-5.46-5.544v-19.553c0-3.057 2.45-5.544 5.46-5.544h33.02c3.01 0 5.47 2.487 5.47 5.544v19.552c0 3.058-2.46 5.545-5.47 5.545h-10.3c-.36 0-.72.148-.97.407l-8.38 8.509v-.001z" fill="#062B57" fill-opacity=".47"/><path d="M1349.85 740.195c-.51.001-1 .207-1.36.572-.36.365-.56.86-.56 1.376 0 .516.2 1.012.56 1.377.36.365.85.57 1.36.571.51-.001 1-.206 1.36-.571.36-.365.56-.86.56-1.377 0-.516-.2-1.012-.56-1.377-.36-.365-.85-.57-1.36-.571zm0 5.24a3.204 3.204 0 01-2.29-.965 3.307 3.307 0 01-.95-2.327c0-.873.34-1.71.95-2.327.6-.617 1.43-.964 2.29-.965.86 0 1.68.347 2.29.965.61.617.95 1.454.95 2.327s-.34 1.71-.95 2.327c-.61.617-1.43.964-2.29.965zm-9.81-5.24c-.51.001-.99.206-1.35.571-.36.366-.57.861-.57 1.377 0 .517.21 1.012.57 1.377a1.893 1.893 0 002.71 0c.36-.365.56-.861.56-1.377s-.2-1.011-.56-1.377c-.36-.365-.85-.57-1.36-.571zm0 5.24a3.221 3.221 0 01-2.29-.965 3.307 3.307 0 01-.95-2.327c0-.873.34-1.71.95-2.327a3.221 3.221 0 012.29-.965c.86.001 1.69.348 2.29.965.61.617.95 1.454.95 2.327s-.34 1.71-.95 2.327c-.6.617-1.43.964-2.29.965zm-9.29-5.24c-.51.001-1 .206-1.36.571a1.96 1.96 0 00-.56 1.377c0 .517.2 1.012.56 1.377.36.365.85.57 1.36.571.51-.001 1-.206 1.36-.571.36-.365.56-.861.56-1.377s-.2-1.011-.56-1.377c-.36-.365-.85-.57-1.36-.571zm0 5.24a3.221 3.221 0 01-2.29-.965 3.307 3.307 0 01-.95-2.327c0-.873.34-1.71.95-2.327a3.221 3.221 0 012.29-.965c.86.001 1.68.348 2.29.965.61.617.95 1.454.95 2.327s-.34 1.71-.95 2.327c-.61.617-1.43.964-2.29.965zM827.602 966.327a2.246 2.246 0 011.581.654c.419.418.655.984.656 1.575v15.259a2.229 2.229 0 01-.657 1.576 2.24 2.24 0 01-1.58.653h-4.089a3.205 3.205 0 00-2.259.934 3.18 3.18 0 00-.938 2.251v3.62c0 .673-.514.938-.672 1.003-.156.064-.71.24-1.187-.235l-6.666-6.64a3.224 3.224 0 00-2.26-.933h-8.199a2.242 2.242 0 01-1.581-.652 2.226 2.226 0 01-.657-1.575v-15.261a2.226 2.226 0 01.657-1.575 2.244 2.244 0 011.581-.654h26.27zm-10.635 28.775c.62.616 1.417.94 2.24.94.427-.002.85-.088 1.243-.253a3.13 3.13 0 001.973-2.94v-3.62a1.093 1.093 0 011.09-1.086h4.089c2.395 0 4.343-1.94 4.343-4.326v-15.261c0-2.386-1.948-4.327-4.343-4.327h-26.27c-2.395 0-4.344 1.941-4.344 4.327v15.259c0 2.386 1.949 4.328 4.344 4.328h8.199c.288 0 .569.116.771.318l6.665 6.641z" fill="#062B57" fill-opacity=".47"/><path d="M806.666 975.078c.404.001.792.161 1.078.446a1.518 1.518 0 01-1.079 2.595 1.535 1.535 0 01-1.079-.446 1.521 1.521 0 01-.448-1.074c.001-.404.162-.79.448-1.075a1.535 1.535 0 011.079-.446h.001zm0 4.09a2.591 2.591 0 001.823-.753 2.571 2.571 0 00.756-1.816 2.572 2.572 0 00-.756-1.817 2.591 2.591 0 00-1.823-.753 2.59 2.59 0 00-1.824.753 2.569 2.569 0 00-.757 1.817 2.581 2.581 0 002.58 2.569h.001zm7.801-4.09c.405.001.793.161 1.079.446.286.285.447.671.448 1.075a1.521 1.521 0 01-.448 1.074 1.533 1.533 0 01-1.079.446 1.533 1.533 0 01-1.079-.446 1.516 1.516 0 010-2.149 1.533 1.533 0 011.079-.446zm0 4.09c.684 0 1.34-.271 1.823-.753a2.563 2.563 0 000-3.633 2.59 2.59 0 00-1.823-.753 2.59 2.59 0 00-1.823.753 2.569 2.569 0 00-.757 1.817 2.581 2.581 0 002.58 2.569zm7.39-4.09c.405.001.793.161 1.079.446.286.285.448.671.448 1.075 0 .403-.162.789-.448 1.074a1.533 1.533 0 01-1.079.446 1.533 1.533 0 01-1.078-.446 1.521 1.521 0 01-.448-1.074 1.524 1.524 0 011.526-1.521zm0 4.09c.684 0 1.34-.271 1.824-.753a2.568 2.568 0 00.757-1.816 2.569 2.569 0 00-.757-1.817 2.594 2.594 0 00-1.824-.753 2.591 2.591 0 00-1.823.753 2.563 2.563 0 000 3.633 2.591 2.591 0 001.823.753zM2157.83 181.873c1.23.002 2.42.494 3.29 1.368a4.646 4.646 0 011.37 3.298v31.951c0 1.237-.49 2.423-1.37 3.297a4.66 4.66 0 01-3.29 1.369h-8.53a6.665 6.665 0 00-4.71 1.955 6.67 6.67 0 00-1.96 4.712v7.58c0 1.408-1.07 1.963-1.4 2.099-.33.135-1.48.504-2.48-.491l-13.9-13.902a6.71 6.71 0 00-4.71-1.952h-17.1a4.66 4.66 0 01-3.3-1.368 4.646 4.646 0 01-1.37-3.298v-31.952c0-1.237.49-2.423 1.37-3.298a4.66 4.66 0 013.3-1.368h54.79zm-22.18 60.246c1.29 1.29 2.95 1.968 4.67 1.968a6.754 6.754 0 002.59-.526c2.54-1.05 4.12-3.41 4.12-6.156v-7.581c0-.602.24-1.18.66-1.606a2.298 2.298 0 011.61-.667h8.53c4.99 0 9.06-4.064 9.06-9.06v-31.952c0-4.996-4.07-9.06-9.06-9.06h-54.79c-5 0-9.07 4.064-9.07 9.06v31.951c0 4.996 4.07 9.06 9.07 9.06h17.1c.6 0 1.18.242 1.6.665l13.91 13.905v-.001z" fill="#062B57" fill-opacity=".47"/><path d="M2114.16 200.197a3.2 3.2 0 012.25.934c.6.596.93 1.405.93 2.249 0 .844-.33 1.653-.93 2.25-.6.596-1.41.932-2.25.933a3.199 3.199 0 01-2.25-.933 3.219 3.219 0 01-.94-2.25c.01-.844.34-1.653.94-2.25.6-.597 1.41-.932 2.25-.933zm0 8.563a5.377 5.377 0 003.8-1.578 5.374 5.374 0 001.58-3.802c0-1.426-.57-2.794-1.58-3.802a5.377 5.377 0 00-3.8-1.578 5.372 5.372 0 00-3.8 1.577 5.375 5.375 0 00-1.58 3.803c0 1.427.57 2.794 1.58 3.803a5.359 5.359 0 003.8 1.577zm16.27-8.563c.85.001 1.65.337 2.25.933.6.597.93 1.406.94 2.25a3.219 3.219 0 01-.94 2.25c-.6.596-1.4.932-2.25.933a3.203 3.203 0 01-2.25-.933 3.209 3.209 0 01-.93-2.25c0-.844.34-1.653.93-2.25.6-.596 1.41-.932 2.25-.933zm0 8.563a5.359 5.359 0 003.8-1.577 5.378 5.378 0 001.58-3.803c0-1.426-.57-2.794-1.58-3.803a5.359 5.359 0 00-3.8-1.577 5.393 5.393 0 00-5.38 5.38 5.393 5.393 0 005.38 5.38zm15.42-8.563c.84.001 1.65.336 2.25.933.59.597.93 1.406.93 2.25 0 .844-.34 1.653-.93 2.25-.6.597-1.41.932-2.25.933a3.168 3.168 0 01-2.25-.933 3.176 3.176 0 01-.94-2.25c0-.844.34-1.653.94-2.25.59-.596 1.4-.932 2.25-.933zm0 8.563a5.393 5.393 0 005.38-5.38 5.393 5.393 0 00-5.38-5.38 5.4 5.4 0 00-3.81 1.578 5.365 5.365 0 00-1.57 3.802c0 1.426.56 2.794 1.57 3.802a5.4 5.4 0 003.81 1.578zm332.98 313.112c1.23.002 2.42.495 3.29 1.369a4.646 4.646 0 011.37 3.298v31.951a4.64 4.64 0 01-1.37 3.296 4.66 4.66 0 01-3.29 1.37h-8.53a6.665 6.665 0 00-4.71 1.955 6.67 6.67 0 00-1.96 4.712v7.58c0 1.408-1.07 1.963-1.4 2.099-.33.135-1.48.503-2.48-.492l-13.9-13.901a6.71 6.71 0 00-4.71-1.953h-17.1a4.66 4.66 0 01-3.3-1.367 4.646 4.646 0 01-1.37-3.298v-31.952c0-1.237.49-2.423 1.37-3.298a4.661 4.661 0 013.3-1.369h54.79zm-22.18 60.247c1.29 1.29 2.95 1.967 4.67 1.967a6.754 6.754 0 002.59-.526c2.54-1.05 4.12-3.409 4.12-6.155v-7.582c0-.602.24-1.179.66-1.605a2.298 2.298 0 011.61-.667h8.53c4.99 0 9.06-4.064 9.06-9.06v-31.952c0-4.996-4.07-9.06-9.06-9.06h-54.79c-5 0-9.07 4.064-9.07 9.06v31.951c0 4.996 4.07 9.059 9.07 9.059h17.1c.6 0 1.18.243 1.6.666l13.91 13.905v-.001z" fill="#062B57" fill-opacity=".47"/><path d="M2435.16 540.197a3.2 3.2 0 012.25.934c.6.596.93 1.405.93 2.249 0 .844-.33 1.653-.93 2.25-.6.596-1.41.932-2.25.933a3.199 3.199 0 01-2.25-.933 3.219 3.219 0 01-.94-2.25c.01-.844.34-1.653.94-2.25.6-.597 1.41-.932 2.25-.933zm0 8.563a5.377 5.377 0 003.8-1.578 5.374 5.374 0 001.58-3.802c0-1.426-.57-2.794-1.58-3.802a5.377 5.377 0 00-3.8-1.578 5.372 5.372 0 00-3.8 1.577 5.375 5.375 0 00-1.58 3.803c0 1.427.57 2.794 1.58 3.803a5.359 5.359 0 003.8 1.577zm16.27-8.563c.85.001 1.65.337 2.25.933.6.597.93 1.406.94 2.25a3.219 3.219 0 01-.94 2.25c-.6.596-1.4.932-2.25.933a3.203 3.203 0 01-2.25-.933 3.209 3.209 0 01-.93-2.25c0-.844.34-1.653.93-2.25.6-.596 1.41-.932 2.25-.933zm0 8.563a5.359 5.359 0 003.8-1.577 5.378 5.378 0 001.58-3.803c0-1.426-.57-2.794-1.58-3.803a5.359 5.359 0 00-3.8-1.577 5.393 5.393 0 00-5.38 5.38 5.393 5.393 0 005.38 5.38zm15.42-8.563c.84.001 1.65.336 2.25.933.59.597.93 1.406.93 2.25 0 .844-.34 1.653-.93 2.25-.6.597-1.41.932-2.25.933a3.168 3.168 0 01-2.25-.933 3.176 3.176 0 01-.94-2.25c0-.844.34-1.653.94-2.25.59-.596 1.4-.932 2.25-.933zm0 8.563a5.393 5.393 0 005.38-5.38 5.393 5.393 0 00-5.38-5.38 5.4 5.4 0 00-3.81 1.578 5.365 5.365 0 00-1.57 3.802c0 1.426.56 2.794 1.57 3.802a5.4 5.4 0 003.81 1.578zm541.47-479.087c1.44.002 2.82.575 3.84 1.593a5.421 5.421 0 011.59 3.84v37.196c0 1.44-.57 2.82-1.59 3.838a5.443 5.443 0 01-3.84 1.594h-9.93a7.784 7.784 0 00-5.49 2.276 7.776 7.776 0 00-2.27 5.485v8.825c0 1.639-1.25 2.285-1.64 2.443-.38.158-1.72.587-2.88-.571l-16.19-16.185a7.819 7.819 0 00-5.49-2.272h-19.91a5.442 5.442 0 01-3.84-1.593 5.42 5.42 0 01-1.59-3.839V75.105c0-1.44.57-2.821 1.59-3.84a5.443 5.443 0 013.84-1.592h63.8zm-25.83 70.137c1.51 1.502 3.44 2.291 5.44 2.291a7.872 7.872 0 003.02-.612c2.96-1.222 4.79-3.97 4.79-7.167v-8.825c0-.702.28-1.374.78-1.87a2.639 2.639 0 011.87-.777h9.93c5.82 0 10.55-4.731 10.55-10.547V75.105c0-5.816-4.73-10.547-10.55-10.547h-63.8c-5.82 0-10.55 4.73-10.55 10.547v37.197c0 5.816 4.73 10.547 10.55 10.547h19.91c.7 0 1.38.282 1.87.774l16.19 16.188v-.001z" fill="#062B57" fill-opacity=".47"/><path d="M2957.47 91.006a3.69 3.69 0 012.62 1.087 3.686 3.686 0 010 5.237 3.709 3.709 0 01-2.62 1.087c-.98 0-1.92-.392-2.62-1.086a3.772 3.772 0 01-1.09-2.62c.01-.982.4-1.924 1.09-2.619a3.724 3.724 0 012.62-1.086zm0 9.968a6.273 6.273 0 004.43-1.836 6.242 6.242 0 000-8.853 6.271 6.271 0 00-4.43-1.837 6.285 6.285 0 00-4.43 1.836 6.275 6.275 0 000 8.855 6.288 6.288 0 004.43 1.835zm18.95-9.968c.98.001 1.92.392 2.62 1.086a3.728 3.728 0 011.09 2.62c0 .982-.4 1.924-1.09 2.618a3.726 3.726 0 01-2.62 1.087 3.709 3.709 0 01-2.62-1.087 3.728 3.728 0 01-1.09-2.619c0-.982.4-1.924 1.09-2.618a3.709 3.709 0 012.62-1.087zm0 9.968a6.287 6.287 0 004.43-1.836 6.274 6.274 0 001.83-4.427c0-1.66-.66-3.252-1.83-4.427a6.287 6.287 0 00-4.43-1.836 6.287 6.287 0 00-4.43 1.836 6.327 6.327 0 00-1.84 4.427 6.326 6.326 0 001.84 4.427 6.287 6.287 0 004.43 1.836zm17.95-9.968c.98 0 1.92.391 2.62 1.086a3.771 3.771 0 011.09 2.62c-.01.982-.4 1.924-1.09 2.619a3.724 3.724 0 01-2.62 1.086 3.691 3.691 0 01-2.62-1.087 3.686 3.686 0 01-1.09-2.619c0-.982.39-1.924 1.09-2.618a3.691 3.691 0 012.62-1.087zm0 9.968a6.288 6.288 0 004.43-1.835 6.275 6.275 0 000-8.855 6.287 6.287 0 00-4.43-1.836 6.271 6.271 0 00-4.43 1.837 6.283 6.283 0 00-1.84 4.426 6.273 6.273 0 006.27 6.263zm536.18 370.117a4.844 4.844 0 00-3.43 1.43 4.891 4.891 0 00-1.43 3.445v33.382a4.934 4.934 0 001.43 3.445 4.844 4.844 0 003.43 1.43h8.88c1.84.002 3.6.737 4.91 2.042a6.979 6.979 0 012.03 4.923v7.92c0 1.471 1.12 2.051 1.46 2.193.34.141 1.54.526 2.58-.513l14.47-14.525a6.992 6.992 0 014.91-2.039h17.8a4.87 4.87 0 003.44-1.429 4.882 4.882 0 001.42-3.446v-33.383c0-1.293-.51-2.532-1.42-3.446a4.87 4.87 0 00-3.44-1.429h-57.04zm23.09 62.944c-1.34 1.348-3.07 2.056-4.86 2.056a6.987 6.987 0 01-2.7-.55c-2.64-1.097-4.29-3.562-4.29-6.431v-7.921a2.39 2.39 0 00-.69-1.678 2.346 2.346 0 00-1.67-.696h-8.88c-5.2 0-9.43-4.246-9.43-9.466v-33.383c0-5.22 4.23-9.466 9.43-9.466h57.04c5.2 0 9.44 4.246 9.44 9.466v33.382c0 5.22-4.24 9.465-9.44 9.465h-17.8c-.62 0-1.24.253-1.67.695l-14.48 14.528v-.001z" fill="#062B57" fill-opacity=".47"/><path d="M3576.01 490.236c-.88.001-1.72.352-2.34.975a3.336 3.336 0 000 4.701 3.304 3.304 0 004.69 0 3.335 3.335 0 000-4.701 3.34 3.34 0 00-2.35-.975zm0 8.946a5.605 5.605 0 01-3.96-1.648 5.628 5.628 0 010-7.945 5.61 5.61 0 013.96-1.649c1.49.002 2.91.594 3.96 1.648a5.682 5.682 0 011.65 3.973 5.683 5.683 0 01-1.65 3.974 5.59 5.59 0 01-3.96 1.647zm-16.94-8.946c-.88.001-1.72.352-2.34.975a3.332 3.332 0 000 4.701c.62.623 1.46.974 2.34.975a3.304 3.304 0 002.34-.975c.63-.624.97-1.469.98-2.351a3.344 3.344 0 00-.98-2.35 3.304 3.304 0 00-2.34-.975zm0 8.946a5.605 5.605 0 01-3.96-1.648 5.63 5.63 0 010-7.946 5.61 5.61 0 013.96-1.648c1.49.002 2.91.594 3.96 1.648a5.63 5.63 0 010 7.946 5.588 5.588 0 01-3.96 1.648zm-16.05-8.946a3.317 3.317 0 00-3.31 3.325 3.321 3.321 0 003.31 3.326 3.327 3.327 0 002.35-.975 3.337 3.337 0 000-4.701 3.327 3.327 0 00-2.35-.975zm0 8.946a5.623 5.623 0 01-3.96-1.648 5.63 5.63 0 010-7.946 5.627 5.627 0 013.96-1.648c1.49.002 2.91.595 3.96 1.649a5.678 5.678 0 011.65 3.972 5.68 5.68 0 01-1.65 3.973 5.588 5.588 0 01-3.96 1.648zM2027.55 859.091a4.844 4.844 0 00-3.43 1.43 4.891 4.891 0 00-1.43 3.445v33.382a4.934 4.934 0 001.43 3.445 4.844 4.844 0 003.43 1.43h8.88c1.84.002 3.6.737 4.91 2.042a6.979 6.979 0 012.03 4.923v7.92c0 1.471 1.12 2.051 1.46 2.193.34.141 1.54.526 2.58-.513l14.47-14.525a6.992 6.992 0 014.91-2.039h17.8a4.87 4.87 0 003.44-1.429 4.882 4.882 0 001.42-3.446v-33.383c0-1.293-.51-2.532-1.42-3.446a4.87 4.87 0 00-3.44-1.429h-57.04zm23.09 62.944c-1.34 1.348-3.07 2.056-4.86 2.056a6.987 6.987 0 01-2.7-.55c-2.64-1.097-4.29-3.562-4.29-6.431v-7.921a2.39 2.39 0 00-.69-1.678 2.346 2.346 0 00-1.67-.696h-8.88c-5.2 0-9.43-4.246-9.43-9.466v-33.383c0-5.22 4.23-9.466 9.43-9.466h57.04c5.2 0 9.44 4.246 9.44 9.466v33.382c0 5.22-4.24 9.465-9.44 9.465h-17.8c-.62 0-1.24.253-1.67.695l-14.48 14.528v-.001z" fill="#062B57" fill-opacity=".47"/><path d="M2073.01 878.236c-.88.001-1.72.352-2.34.975a3.336 3.336 0 000 4.701 3.304 3.304 0 004.69 0 3.335 3.335 0 000-4.701 3.34 3.34 0 00-2.35-.975zm0 8.946a5.605 5.605 0 01-3.96-1.648 5.628 5.628 0 010-7.945 5.61 5.61 0 013.96-1.649c1.49.002 2.91.594 3.96 1.648a5.682 5.682 0 011.65 3.973 5.683 5.683 0 01-1.65 3.974 5.59 5.59 0 01-3.96 1.647zm-16.94-8.946c-.88.001-1.72.352-2.34.975a3.332 3.332 0 000 4.701c.62.623 1.46.974 2.34.975a3.304 3.304 0 002.34-.975c.63-.624.97-1.469.98-2.351a3.344 3.344 0 00-.98-2.35 3.304 3.304 0 00-2.34-.975zm0 8.946a5.605 5.605 0 01-3.96-1.648 5.63 5.63 0 010-7.946 5.61 5.61 0 013.96-1.648c1.49.002 2.91.594 3.96 1.648a5.63 5.63 0 010 7.946 5.588 5.588 0 01-3.96 1.648zm-16.05-8.946a3.317 3.317 0 00-3.31 3.325 3.321 3.321 0 003.31 3.326 3.327 3.327 0 002.35-.975 3.337 3.337 0 000-4.701 3.327 3.327 0 00-2.35-.975zm0 8.946a5.623 5.623 0 01-3.96-1.648 5.63 5.63 0 010-7.946 5.627 5.627 0 013.96-1.648c1.49.002 2.91.595 3.96 1.649a5.678 5.678 0 011.65 3.972 5.68 5.68 0 01-1.65 3.973 5.588 5.588 0 01-3.96 1.648zm1855.51-851.2c-.75 0-1.46.302-1.99.837a2.86 2.86 0 00-.82 2.018V58.39c0 .757.29 1.483.82 2.018a2.8 2.8 0 001.99.838h5.14a3.98 3.98 0 012.84 1.196 4.127 4.127 0 011.18 2.883v4.639c0 .862.64 1.201.84 1.284.2.083.9.309 1.49-.3l8.39-8.507a3.995 3.995 0 012.84-1.195h10.3c.75 0 1.46-.302 1.99-.837a2.87 2.87 0 00.83-2.018V38.837c0-.757-.3-1.483-.83-2.018a2.796 2.796 0 00-1.99-.837h-33.02zm13.37 36.867c-.78.79-1.78 1.204-2.82 1.204a4.013 4.013 0 01-1.56-.322c-1.53-.642-2.48-2.087-2.48-3.767v-4.639c0-.369-.15-.722-.4-.983-.26-.26-.61-.407-.97-.408h-5.14c-3.01 0-5.46-2.487-5.46-5.544V38.837c0-3.057 2.45-5.544 5.46-5.544h33.02c3.01 0 5.47 2.487 5.47 5.544V58.39c0 3.057-2.46 5.544-5.47 5.544h-10.3c-.36 0-.72.149-.97.407l-8.38 8.51v-.001z" fill="#062B57" fill-opacity=".47"/><path d="M3921.85 47.195c-.51 0-1 .206-1.36.572-.36.365-.56.86-.56 1.376 0 .516.2 1.011.56 1.377a1.91 1.91 0 002.72 0c.36-.365.56-.86.56-1.377s-.2-1.012-.56-1.377a1.91 1.91 0 00-1.36-.57zm0 5.24a3.203 3.203 0 01-2.29-.965 3.308 3.308 0 01-.95-2.327c0-.873.34-1.71.95-2.327.6-.617 1.43-.964 2.29-.965.86 0 1.68.347 2.29.965.61.617.95 1.454.95 2.327s-.34 1.71-.95 2.327a3.22 3.22 0 01-2.29.965zm-9.81-5.24c-.51 0-.99.206-1.35.571-.36.365-.57.86-.57 1.377 0 .516.21 1.011.57 1.377a1.892 1.892 0 002.71 0c.36-.366.56-.86.56-1.377s-.2-1.012-.56-1.377a1.91 1.91 0 00-1.36-.57zm0 5.24a3.22 3.22 0 01-2.29-.965 3.308 3.308 0 01-.95-2.327c0-.873.34-1.71.95-2.327a3.22 3.22 0 012.29-.965 3.2 3.2 0 012.29.965c.61.617.95 1.454.95 2.327s-.34 1.71-.95 2.327c-.6.617-1.43.964-2.29.965zm-9.29-5.24c-.51 0-1 .206-1.36.571-.36.365-.56.86-.56 1.377 0 .516.2 1.012.56 1.377a1.91 1.91 0 002.72 0c.36-.366.56-.86.56-1.377s-.2-1.012-.56-1.377a1.91 1.91 0 00-1.36-.57zm0 5.24a3.22 3.22 0 01-2.29-.965 3.308 3.308 0 01-.95-2.327c0-.873.34-1.71.95-2.327a3.22 3.22 0 012.29-.965 3.22 3.22 0 012.29.965c.61.617.95 1.454.95 2.327s-.34 1.71-.95 2.327a3.22 3.22 0 01-2.29.965zm-599.22 676.547c-.75.001-1.46.302-1.99.837a2.862 2.862 0 00-.82 2.018v19.552c0 .757.29 1.483.82 2.018a2.8 2.8 0 001.99.838h5.14c1.07.001 2.09.431 2.84 1.196a4.128 4.128 0 011.18 2.884v4.638c0 .862.64 1.201.84 1.285.2.082.9.308 1.49-.301l8.39-8.507a3.996 3.996 0 012.84-1.195h10.3c.75 0 1.46-.301 1.99-.837a2.87 2.87 0 00.83-2.018v-19.553c0-.757-.3-1.483-.83-2.018a2.798 2.798 0 00-1.99-.837h-33.02zm13.37 36.867c-.78.789-1.78 1.204-2.82 1.204a3.997 3.997 0 01-1.56-.322c-1.53-.642-2.48-2.086-2.48-3.767v-4.639c0-.368-.15-.722-.4-.983a1.378 1.378 0 00-.97-.408h-5.14c-3.01 0-5.46-2.487-5.46-5.544v-19.553c0-3.057 2.45-5.544 5.46-5.544h33.02c3.01 0 5.47 2.487 5.47 5.544v19.552c0 3.058-2.46 5.545-5.47 5.545h-10.3c-.36 0-.72.148-.97.407l-8.38 8.509v-.001z" fill="#062B57" fill-opacity=".47"/><path d="M3329.85 740.195c-.51.001-1 .207-1.36.572-.36.365-.56.86-.56 1.376 0 .516.2 1.012.56 1.377.36.365.85.57 1.36.571.51-.001 1-.206 1.36-.571.36-.365.56-.86.56-1.377 0-.516-.2-1.012-.56-1.377-.36-.365-.85-.57-1.36-.571zm0 5.24a3.204 3.204 0 01-2.29-.965 3.307 3.307 0 01-.95-2.327c0-.873.34-1.71.95-2.327.6-.617 1.43-.964 2.29-.965.86 0 1.68.347 2.29.965.61.617.95 1.454.95 2.327s-.34 1.71-.95 2.327c-.61.617-1.43.964-2.29.965zm-9.81-5.24c-.51.001-.99.206-1.35.571-.36.366-.57.861-.57 1.377 0 .517.21 1.012.57 1.377a1.893 1.893 0 002.71 0c.36-.365.56-.861.56-1.377s-.2-1.011-.56-1.377c-.36-.365-.85-.57-1.36-.571zm0 5.24a3.221 3.221 0 01-2.29-.965 3.307 3.307 0 01-.95-2.327c0-.873.34-1.71.95-2.327a3.221 3.221 0 012.29-.965c.86.001 1.69.348 2.29.965.61.617.95 1.454.95 2.327s-.34 1.71-.95 2.327c-.6.617-1.43.964-2.29.965zm-9.29-5.24c-.51.001-1 .206-1.36.571a1.96 1.96 0 00-.56 1.377c0 .517.2 1.012.56 1.377.36.365.85.57 1.36.571.51-.001 1-.206 1.36-.571.36-.365.56-.861.56-1.377s-.2-1.011-.56-1.377c-.36-.365-.85-.57-1.36-.571zm0 5.24a3.221 3.221 0 01-2.29-.965 3.307 3.307 0 01-.95-2.327c0-.873.34-1.71.95-2.327a3.221 3.221 0 012.29-.965c.86.001 1.68.348 2.29.965.61.617.95 1.454.95 2.327s-.34 1.71-.95 2.327c-.61.617-1.43.964-2.29.965zM2807.6 966.327c.59.001 1.16.236 1.58.654.42.418.66.984.66 1.575v15.259c0 .591-.24 1.158-.66 1.576-.42.418-.99.652-1.58.653h-4.09c-.85.001-1.66.337-2.26.934-.6.597-.93 1.407-.93 2.251v3.62c0 .673-.52.938-.68 1.003-.15.064-.71.24-1.18-.235l-6.67-6.64a3.217 3.217 0 00-2.26-.933h-8.2a2.247 2.247 0 01-1.58-.652 2.225 2.225 0 01-.66-1.575v-15.261c0-.591.24-1.157.66-1.575.42-.418.99-.653 1.58-.654h26.27zm-10.63 28.775a3.15 3.15 0 003.48.687 3.124 3.124 0 001.97-2.94v-3.62c0-.287.12-.564.32-.768.21-.203.48-.318.77-.318h4.09c2.4 0 4.34-1.94 4.34-4.326v-15.261a4.334 4.334 0 00-4.34-4.327h-26.27c-2.39 0-4.34 1.941-4.34 4.327v15.259c0 2.386 1.95 4.328 4.34 4.328h8.2c.29 0 .57.116.77.318l6.67 6.641z" fill="#062B57" fill-opacity=".47"/><path d="M2786.67 975.078c.4.001.79.161 1.07.446a1.505 1.505 0 010 2.149 1.517 1.517 0 01-2.15 0 1.502 1.502 0 01-.45-1.074c0-.404.16-.79.45-1.075a1.51 1.51 0 011.07-.446h.01zm0 4.09a2.602 2.602 0 001.82-.753 2.574 2.574 0 000-3.633 2.602 2.602 0 00-1.82-.753c-.69.001-1.34.271-1.83.753a2.627 2.627 0 00-.76 1.817c.01.681.28 1.334.76 1.816s1.14.753 1.82.753h.01zm7.8-4.09c.4.001.79.161 1.08.446a1.535 1.535 0 010 2.149c-.29.285-.68.445-1.08.446-.41-.001-.8-.161-1.08-.446a1.505 1.505 0 010-2.149c.28-.285.67-.445 1.08-.446zm0 4.09a2.584 2.584 0 002.58-2.569 2.584 2.584 0 00-4.41-1.817 2.574 2.574 0 000 3.633 2.6 2.6 0 001.83.753zm7.39-4.09c.4.001.79.161 1.08.446a1.535 1.535 0 010 2.149c-.29.285-.68.445-1.08.446-.41-.001-.8-.161-1.08-.446a1.505 1.505 0 010-2.149c.28-.285.67-.445 1.08-.446zm0 4.09a2.584 2.584 0 002.58-2.569 2.584 2.584 0 00-4.41-1.817 2.574 2.574 0 000 3.633c.49.481 1.14.752 1.83.753zm1335.97-797.295c1.23.002 2.42.494 3.29 1.368a4.646 4.646 0 011.37 3.298v31.951c0 1.237-.49 2.423-1.37 3.297a4.66 4.66 0 01-3.29 1.369h-8.53a6.665 6.665 0 00-4.71 1.955 6.67 6.67 0 00-1.96 4.712v7.58c0 1.408-1.07 1.963-1.4 2.099-.33.135-1.48.504-2.48-.491l-13.9-13.902a6.71 6.71 0 00-4.71-1.952h-17.1a4.66 4.66 0 01-3.3-1.368 4.646 4.646 0 01-1.37-3.298v-31.952c0-1.237.49-2.423 1.37-3.298a4.66 4.66 0 013.3-1.368h54.79zm-22.18 60.246c1.29 1.29 2.95 1.968 4.67 1.968a6.754 6.754 0 002.59-.526c2.54-1.05 4.12-3.41 4.12-6.156v-7.581c0-.602.24-1.18.66-1.606a2.298 2.298 0 011.61-.667h8.53c4.99 0 9.06-4.064 9.06-9.06v-31.952c0-4.996-4.07-9.06-9.06-9.06h-54.79c-5 0-9.07 4.064-9.07 9.06v31.951c0 4.996 4.07 9.06 9.07 9.06h17.1c.6 0 1.18.242 1.6.665l13.91 13.905v-.001z" fill="#062B57" fill-opacity=".47"/><path d="M4094.16 200.197a3.2 3.2 0 012.25.934c.6.596.93 1.405.93 2.249 0 .844-.33 1.653-.93 2.25-.6.596-1.41.932-2.25.933a3.199 3.199 0 01-2.25-.933 3.219 3.219 0 01-.94-2.25c.01-.844.34-1.653.94-2.25.6-.597 1.41-.932 2.25-.933zm0 8.563a5.377 5.377 0 003.8-1.578 5.374 5.374 0 001.58-3.802c0-1.426-.57-2.794-1.58-3.802a5.377 5.377 0 00-3.8-1.578 5.372 5.372 0 00-3.8 1.577 5.375 5.375 0 00-1.58 3.803c0 1.427.57 2.794 1.58 3.803a5.359 5.359 0 003.8 1.577zm16.27-8.563c.85.001 1.65.337 2.25.933.6.597.93 1.406.94 2.25a3.219 3.219 0 01-.94 2.25c-.6.596-1.4.932-2.25.933a3.203 3.203 0 01-2.25-.933 3.209 3.209 0 01-.93-2.25c0-.844.34-1.653.93-2.25.6-.596 1.41-.932 2.25-.933zm0 8.563a5.359 5.359 0 003.8-1.577 5.378 5.378 0 001.58-3.803c0-1.426-.57-2.794-1.58-3.803a5.359 5.359 0 00-3.8-1.577 5.393 5.393 0 00-5.38 5.38 5.393 5.393 0 005.38 5.38zm15.42-8.563c.84.001 1.65.336 2.25.933.59.597.93 1.406.93 2.25 0 .844-.34 1.653-.93 2.25-.6.597-1.41.932-2.25.933a3.168 3.168 0 01-2.25-.933 3.176 3.176 0 01-.94-2.25c0-.844.34-1.653.94-2.25.59-.596 1.4-.932 2.25-.933zm0 8.563a5.393 5.393 0 005.38-5.38 5.393 5.393 0 00-5.38-5.38 5.4 5.4 0 00-3.81 1.578 5.365 5.365 0 00-1.57 3.802c0 1.426.56 2.794 1.57 3.802a5.4 5.4 0 003.81 1.578zm332.98 313.112c1.23.002 2.42.495 3.29 1.369a4.646 4.646 0 011.37 3.298v31.951a4.64 4.64 0 01-1.37 3.296 4.66 4.66 0 01-3.29 1.37h-8.53a6.665 6.665 0 00-4.71 1.955 6.67 6.67 0 00-1.96 4.712v7.58c0 1.408-1.07 1.963-1.4 2.099-.33.135-1.48.503-2.48-.492l-13.9-13.901a6.71 6.71 0 00-4.71-1.953h-17.1a4.66 4.66 0 01-3.3-1.367 4.646 4.646 0 01-1.37-3.298v-31.952c0-1.237.49-2.423 1.37-3.298a4.661 4.661 0 013.3-1.369h54.79zm-22.18 60.247c1.29 1.29 2.95 1.967 4.67 1.967a6.754 6.754 0 002.59-.526c2.54-1.05 4.12-3.409 4.12-6.155v-7.582c0-.602.24-1.179.66-1.605a2.298 2.298 0 011.61-.667h8.53c4.99 0 9.06-4.064 9.06-9.06v-31.952c0-4.996-4.07-9.06-9.06-9.06h-54.79c-5 0-9.07 4.064-9.07 9.06v31.951c0 4.996 4.07 9.059 9.07 9.059h17.1c.6 0 1.18.243 1.6.666l13.91 13.905v-.001z" fill="#062B57" fill-opacity=".47"/><path d="M4415.16 540.197a3.2 3.2 0 012.25.934c.6.596.93 1.405.93 2.249 0 .844-.33 1.653-.93 2.25-.6.596-1.41.932-2.25.933a3.199 3.199 0 01-2.25-.933 3.219 3.219 0 01-.94-2.25c.01-.844.34-1.653.94-2.25.6-.597 1.41-.932 2.25-.933zm0 8.563a5.377 5.377 0 003.8-1.578 5.374 5.374 0 001.58-3.802c0-1.426-.57-2.794-1.58-3.802a5.377 5.377 0 00-3.8-1.578 5.372 5.372 0 00-3.8 1.577 5.375 5.375 0 00-1.58 3.803c0 1.427.57 2.794 1.58 3.803a5.359 5.359 0 003.8 1.577zm16.27-8.563c.85.001 1.65.337 2.25.933.6.597.93 1.406.94 2.25a3.219 3.219 0 01-.94 2.25c-.6.596-1.4.932-2.25.933a3.203 3.203 0 01-2.25-.933 3.209 3.209 0 01-.93-2.25c0-.844.34-1.653.93-2.25.6-.596 1.41-.932 2.25-.933zm0 8.563a5.359 5.359 0 003.8-1.577 5.378 5.378 0 001.58-3.803c0-1.426-.57-2.794-1.58-3.803a5.359 5.359 0 00-3.8-1.577 5.393 5.393 0 00-5.38 5.38 5.393 5.393 0 005.38 5.38zm15.42-8.563c.84.001 1.65.336 2.25.933.59.597.93 1.406.93 2.25 0 .844-.34 1.653-.93 2.25-.6.597-1.41.932-2.25.933a3.168 3.168 0 01-2.25-.933 3.176 3.176 0 01-.94-2.25c0-.844.34-1.653.94-2.25.59-.596 1.4-.932 2.25-.933zm0 8.563a5.393 5.393 0 005.38-5.38 5.393 5.393 0 00-5.38-5.38 5.4 5.4 0 00-3.81 1.578 5.365 5.365 0 00-1.57 3.802c0 1.426.56 2.794 1.57 3.802a5.4 5.4 0 003.81 1.578zm541.47-479.087c1.44.002 2.82.575 3.84 1.593a5.421 5.421 0 011.59 3.84v37.196c0 1.44-.57 2.82-1.59 3.838a5.443 5.443 0 01-3.84 1.594h-9.93a7.784 7.784 0 00-5.49 2.276 7.776 7.776 0 00-2.27 5.485v8.825c0 1.639-1.25 2.285-1.64 2.443-.38.158-1.72.587-2.88-.571l-16.19-16.185a7.819 7.819 0 00-5.49-2.272h-19.91a5.442 5.442 0 01-3.84-1.593 5.42 5.42 0 01-1.59-3.839V75.105c0-1.44.57-2.821 1.59-3.84a5.443 5.443 0 013.84-1.592h63.8zm-25.83 70.137c1.51 1.502 3.44 2.291 5.44 2.291a7.872 7.872 0 003.02-.612c2.96-1.222 4.79-3.97 4.79-7.167v-8.825c0-.702.28-1.374.78-1.87a2.639 2.639 0 011.87-.777h9.93c5.82 0 10.55-4.731 10.55-10.547V75.105c0-5.816-4.73-10.547-10.55-10.547h-63.8c-5.82 0-10.55 4.73-10.55 10.547v37.197c0 5.816 4.73 10.547 10.55 10.547h19.91c.7 0 1.38.282 1.87.774l16.19 16.188v-.001z" fill="#062B57" fill-opacity=".47"/><path d="M4937.47 91.006a3.69 3.69 0 012.62 1.087 3.686 3.686 0 010 5.237 3.691 3.691 0 01-2.62 1.087c-.98 0-1.92-.392-2.62-1.086a3.772 3.772 0 01-1.09-2.62c.01-.982.4-1.924 1.09-2.619a3.724 3.724 0 012.62-1.086zm0 9.968a6.256 6.256 0 004.43-1.836 6.242 6.242 0 000-8.853 6.254 6.254 0 00-8.85-.001 6.243 6.243 0 00-1.84 4.427c0 1.661.66 3.254 1.83 4.428a6.288 6.288 0 004.43 1.835zm18.95-9.968c.98.001 1.92.392 2.62 1.086a3.728 3.728 0 011.09 2.62c0 .982-.4 1.924-1.09 2.618a3.726 3.726 0 01-2.62 1.087 3.709 3.709 0 01-2.62-1.087 3.771 3.771 0 01-1.09-2.619 3.77 3.77 0 011.09-2.618 3.709 3.709 0 012.62-1.087zm0 9.968a6.287 6.287 0 004.43-1.836 6.274 6.274 0 001.83-4.427c0-1.66-.66-3.252-1.83-4.427a6.287 6.287 0 00-4.43-1.836 6.287 6.287 0 00-4.43 1.836 6.275 6.275 0 00-1.83 4.427c0 1.661.66 3.253 1.83 4.427a6.287 6.287 0 004.43 1.836zm17.95-9.968c.98 0 1.92.391 2.62 1.086a3.771 3.771 0 011.09 2.62c-.01.982-.4 1.924-1.09 2.619a3.724 3.724 0 01-2.62 1.086 3.691 3.691 0 01-2.62-1.087 3.686 3.686 0 01-1.09-2.619c0-.982.39-1.924 1.09-2.618a3.691 3.691 0 012.62-1.087zm0 9.968a6.288 6.288 0 004.43-1.835 6.275 6.275 0 000-8.855 6.287 6.287 0 00-4.43-1.836 6.271 6.271 0 00-4.43 1.837 6.283 6.283 0 00-1.84 4.426 6.273 6.273 0 006.27 6.263zm536.18 370.117a4.844 4.844 0 00-3.43 1.43 4.891 4.891 0 00-1.43 3.445v33.382a4.934 4.934 0 001.43 3.445 4.844 4.844 0 003.43 1.43h8.88c1.84.002 3.6.737 4.91 2.042a6.979 6.979 0 012.03 4.923v7.92c0 1.471 1.12 2.051 1.46 2.193.34.141 1.54.526 2.58-.513l14.47-14.525a6.992 6.992 0 014.91-2.039h17.8a4.87 4.87 0 003.44-1.429 4.882 4.882 0 001.42-3.446v-33.383c0-1.293-.51-2.532-1.42-3.446a4.87 4.87 0 00-3.44-1.429h-57.04zm23.09 62.944c-1.34 1.348-3.07 2.056-4.86 2.056a6.987 6.987 0 01-2.7-.55c-2.64-1.097-4.29-3.562-4.29-6.431v-7.921a2.39 2.39 0 00-.69-1.678 2.346 2.346 0 00-1.67-.696h-8.88c-5.2 0-9.43-4.246-9.43-9.466v-33.383c0-5.22 4.23-9.466 9.43-9.466h57.04c5.2 0 9.44 4.246 9.44 9.466v33.382c0 5.22-4.24 9.465-9.44 9.465h-17.8c-.62 0-1.24.253-1.67.695l-14.48 14.528v-.001z" fill="#062B57" fill-opacity=".47"/><path d="M5556.01 490.236c-.88.001-1.72.352-2.34.975a3.336 3.336 0 000 4.701 3.304 3.304 0 004.69 0 3.335 3.335 0 000-4.701 3.34 3.34 0 00-2.35-.975zm0 8.946a5.605 5.605 0 01-3.96-1.648 5.628 5.628 0 010-7.945 5.61 5.61 0 013.96-1.649c1.49.002 2.91.594 3.96 1.648a5.682 5.682 0 011.65 3.973 5.683 5.683 0 01-1.65 3.974 5.59 5.59 0 01-3.96 1.647zm-16.94-8.946c-.88.001-1.72.352-2.34.975a3.332 3.332 0 000 4.701c.62.623 1.46.974 2.34.975a3.304 3.304 0 002.34-.975c.63-.624.97-1.469.98-2.351a3.344 3.344 0 00-.98-2.35 3.304 3.304 0 00-2.34-.975zm0 8.946a5.605 5.605 0 01-3.96-1.648 5.63 5.63 0 010-7.946 5.61 5.61 0 013.96-1.648c1.49.002 2.91.594 3.96 1.648a5.63 5.63 0 010 7.946 5.588 5.588 0 01-3.96 1.648zm-16.05-8.946a3.317 3.317 0 00-3.31 3.325 3.321 3.321 0 003.31 3.326 3.327 3.327 0 002.35-.975 3.337 3.337 0 000-4.701 3.327 3.327 0 00-2.35-.975zm0 8.946a5.623 5.623 0 01-3.96-1.648 5.63 5.63 0 010-7.946 5.627 5.627 0 013.96-1.648c1.49.002 2.91.595 3.96 1.649a5.678 5.678 0 011.65 3.972 5.68 5.68 0 01-1.65 3.973 5.588 5.588 0 01-3.96 1.648zM4007.55 859.091a4.844 4.844 0 00-3.43 1.43 4.891 4.891 0 00-1.43 3.445v33.382a4.934 4.934 0 001.43 3.445 4.844 4.844 0 003.43 1.43h8.88c1.84.002 3.6.737 4.91 2.042a6.979 6.979 0 012.03 4.923v7.92c0 1.471 1.12 2.051 1.46 2.193.34.141 1.54.526 2.58-.513l14.47-14.525a6.992 6.992 0 014.91-2.039h17.8a4.87 4.87 0 003.44-1.429 4.882 4.882 0 001.42-3.446v-33.383c0-1.293-.51-2.532-1.42-3.446a4.87 4.87 0 00-3.44-1.429h-57.04zm23.09 62.944c-1.34 1.348-3.07 2.056-4.86 2.056a6.987 6.987 0 01-2.7-.55c-2.64-1.097-4.29-3.562-4.29-6.431v-7.921a2.39 2.39 0 00-.69-1.678 2.346 2.346 0 00-1.67-.696h-8.88c-5.2 0-9.43-4.246-9.43-9.466v-33.383c0-5.22 4.23-9.466 9.43-9.466h57.04c5.2 0 9.44 4.246 9.44 9.466v33.382c0 5.22-4.24 9.465-9.44 9.465h-17.8c-.62 0-1.24.253-1.67.695l-14.48 14.528v-.001z" fill="#062B57" fill-opacity=".47"/><path d="M4053.01 878.236c-.88.001-1.72.352-2.34.975a3.336 3.336 0 000 4.701 3.304 3.304 0 004.69 0 3.335 3.335 0 000-4.701 3.34 3.34 0 00-2.35-.975zm0 8.946a5.605 5.605 0 01-3.96-1.648 5.628 5.628 0 010-7.945 5.61 5.61 0 013.96-1.649c1.49.002 2.91.594 3.96 1.648a5.682 5.682 0 011.65 3.973 5.683 5.683 0 01-1.65 3.974 5.59 5.59 0 01-3.96 1.647zm-16.94-8.946c-.88.001-1.72.352-2.34.975a3.332 3.332 0 000 4.701c.62.623 1.46.974 2.34.975a3.304 3.304 0 002.34-.975c.63-.624.97-1.469.98-2.351a3.344 3.344 0 00-.98-2.35 3.304 3.304 0 00-2.34-.975zm0 8.946a5.605 5.605 0 01-3.96-1.648 5.63 5.63 0 010-7.946 5.61 5.61 0 013.96-1.648c1.49.002 2.91.594 3.96 1.648a5.63 5.63 0 010 7.946 5.588 5.588 0 01-3.96 1.648zm-16.05-8.946a3.317 3.317 0 00-3.31 3.325 3.321 3.321 0 003.31 3.326 3.327 3.327 0 002.35-.975 3.337 3.337 0 000-4.701 3.327 3.327 0 00-2.35-.975zm0 8.946a5.623 5.623 0 01-3.96-1.648 5.63 5.63 0 010-7.946 5.627 5.627 0 013.96-1.648c1.49.002 2.91.595 3.96 1.649a5.678 5.678 0 011.65 3.972 5.68 5.68 0 01-1.65 3.973 5.588 5.588 0 01-3.96 1.648zm1855.51-851.2c-.75 0-1.46.302-1.99.837a2.86 2.86 0 00-.82 2.018V58.39c0 .757.29 1.483.82 2.018a2.8 2.8 0 001.99.838h5.14a3.98 3.98 0 012.84 1.196 4.127 4.127 0 011.18 2.883v4.639c0 .862.64 1.201.84 1.284.2.083.9.309 1.49-.3l8.39-8.507a3.995 3.995 0 012.84-1.195h10.3c.75 0 1.46-.302 1.99-.837a2.87 2.87 0 00.83-2.018V38.837c0-.757-.3-1.483-.83-2.018a2.796 2.796 0 00-1.99-.837h-33.02zm13.37 36.867c-.78.79-1.78 1.204-2.82 1.204a4.013 4.013 0 01-1.56-.322c-1.53-.642-2.48-2.087-2.48-3.767v-4.639c0-.369-.15-.722-.4-.983-.26-.26-.61-.407-.97-.408h-5.14c-3.01 0-5.46-2.487-5.46-5.544V38.837c0-3.057 2.45-5.544 5.46-5.544h33.02c3.01 0 5.47 2.487 5.47 5.544V58.39c0 3.057-2.46 5.544-5.47 5.544h-10.3c-.36 0-.72.149-.97.407l-8.38 8.51v-.001z" fill="#062B57" fill-opacity=".47"/><path d="M5901.85 47.195c-.51 0-1 .206-1.36.572-.36.365-.56.86-.56 1.376 0 .516.2 1.011.56 1.377a1.91 1.91 0 002.72 0c.36-.365.56-.86.56-1.377s-.2-1.012-.56-1.377a1.91 1.91 0 00-1.36-.57zm0 5.24a3.203 3.203 0 01-2.29-.965 3.308 3.308 0 01-.95-2.327c0-.873.34-1.71.95-2.327.6-.617 1.43-.964 2.29-.965.86 0 1.68.347 2.29.965.61.617.95 1.454.95 2.327s-.34 1.71-.95 2.327a3.22 3.22 0 01-2.29.965zm-9.81-5.24c-.51 0-.99.206-1.35.571-.36.365-.57.86-.57 1.377 0 .516.21 1.011.57 1.377a1.892 1.892 0 002.71 0c.36-.366.56-.86.56-1.377s-.2-1.012-.56-1.377a1.91 1.91 0 00-1.36-.57zm0 5.24a3.22 3.22 0 01-2.29-.965 3.308 3.308 0 01-.95-2.327c0-.873.34-1.71.95-2.327a3.22 3.22 0 012.29-.965 3.2 3.2 0 012.29.965c.61.617.95 1.454.95 2.327s-.34 1.71-.95 2.327c-.6.617-1.43.964-2.29.965zm-9.29-5.24c-.51 0-1 .206-1.36.571-.36.365-.56.86-.56 1.377 0 .516.2 1.012.56 1.377a1.91 1.91 0 002.72 0c.36-.366.56-.86.56-1.377s-.2-1.012-.56-1.377a1.91 1.91 0 00-1.36-.57zm0 5.24a3.22 3.22 0 01-2.29-.965 3.308 3.308 0 01-.95-2.327c0-.873.34-1.71.95-2.327a3.22 3.22 0 012.29-.965 3.22 3.22 0 012.29.965c.61.617.95 1.454.95 2.327s-.34 1.71-.95 2.327a3.22 3.22 0 01-2.29.965zm-599.22 676.547c-.75.001-1.46.302-1.99.837a2.862 2.862 0 00-.82 2.018v19.552c0 .757.29 1.483.82 2.018a2.8 2.8 0 001.99.838h5.14c1.07.001 2.09.431 2.84 1.196a4.128 4.128 0 011.18 2.884v4.638c0 .862.64 1.201.84 1.285.2.082.9.308 1.49-.301l8.39-8.507a3.996 3.996 0 012.84-1.195h10.3c.75 0 1.46-.301 1.99-.837a2.87 2.87 0 00.83-2.018v-19.553c0-.757-.3-1.483-.83-2.018a2.798 2.798 0 00-1.99-.837h-33.02zm13.37 36.867c-.78.789-1.78 1.204-2.82 1.204a3.997 3.997 0 01-1.56-.322c-1.53-.642-2.48-2.086-2.48-3.767v-4.639c0-.368-.15-.722-.4-.983a1.378 1.378 0 00-.97-.408h-5.14c-3.01 0-5.46-2.487-5.46-5.544v-19.553c0-3.057 2.45-5.544 5.46-5.544h33.02c3.01 0 5.47 2.487 5.47 5.544v19.552c0 3.058-2.46 5.545-5.47 5.545h-10.3c-.36 0-.72.148-.97.407l-8.38 8.509v-.001z" fill="#062B57" fill-opacity=".47"/><path d="M5309.85 740.195c-.51.001-1 .207-1.36.572-.36.365-.56.86-.56 1.376 0 .516.2 1.012.56 1.377.36.365.85.57 1.36.571.51-.001 1-.206 1.36-.571.36-.365.56-.86.56-1.377 0-.516-.2-1.012-.56-1.377-.36-.365-.85-.57-1.36-.571zm0 5.24a3.204 3.204 0 01-2.29-.965 3.307 3.307 0 01-.95-2.327c0-.873.34-1.71.95-2.327.6-.617 1.43-.964 2.29-.965.86 0 1.68.347 2.29.965.61.617.95 1.454.95 2.327s-.34 1.71-.95 2.327c-.61.617-1.43.964-2.29.965zm-9.81-5.24c-.51.001-.99.206-1.35.571-.36.366-.57.861-.57 1.377 0 .517.21 1.012.57 1.377a1.893 1.893 0 002.71 0c.36-.365.56-.861.56-1.377s-.2-1.011-.56-1.377c-.36-.365-.85-.57-1.36-.571zm0 5.24a3.221 3.221 0 01-2.29-.965 3.307 3.307 0 01-.95-2.327c0-.873.34-1.71.95-2.327a3.221 3.221 0 012.29-.965c.86.001 1.69.348 2.29.965.61.617.95 1.454.95 2.327s-.34 1.71-.95 2.327c-.6.617-1.43.964-2.29.965zm-9.29-5.24c-.51.001-1 .206-1.36.571a1.96 1.96 0 00-.56 1.377c0 .517.2 1.012.56 1.377.36.365.85.57 1.36.571.51-.001 1-.206 1.36-.571.36-.365.56-.861.56-1.377s-.2-1.011-.56-1.377c-.36-.365-.85-.57-1.36-.571zm0 5.24a3.221 3.221 0 01-2.29-.965 3.307 3.307 0 01-.95-2.327c0-.873.34-1.71.95-2.327a3.221 3.221 0 012.29-.965c.86.001 1.68.348 2.29.965.61.617.95 1.454.95 2.327s-.34 1.71-.95 2.327c-.61.617-1.43.964-2.29.965zM4787.6 966.327c.6.001 1.16.236 1.58.654.42.418.66.984.66 1.575v15.259c0 .591-.24 1.158-.66 1.576a2.23 2.23 0 01-1.58.653h-4.09c-.84.001-1.66.337-2.26.934-.6.597-.93 1.407-.93 2.251v3.62c0 .673-.52.938-.68 1.003-.15.064-.71.24-1.18-.235l-6.67-6.64a3.217 3.217 0 00-2.26-.933h-8.2a2.247 2.247 0 01-1.58-.652 2.268 2.268 0 01-.66-1.575v-15.261c.01-.591.24-1.157.66-1.575.42-.418.99-.653 1.58-.654h26.27zm-10.63 28.775a3.15 3.15 0 003.48.687 3.124 3.124 0 001.97-2.94v-3.62c0-.287.12-.564.32-.768.21-.203.48-.318.77-.318h4.09c2.4 0 4.35-1.94 4.35-4.326v-15.261c0-2.386-1.95-4.327-4.35-4.327h-26.27c-2.39 0-4.34 1.941-4.34 4.327v15.259c0 2.386 1.95 4.328 4.34 4.328h8.2c.29 0 .57.116.77.318l6.67 6.641z" fill="#062B57" fill-opacity=".47"/><path d="M4766.67 975.078c.4.001.79.161 1.07.446a1.505 1.505 0 010 2.149 1.517 1.517 0 01-2.15 0 1.502 1.502 0 01-.45-1.074c0-.404.16-.79.45-1.075a1.51 1.51 0 011.07-.446h.01zm0 4.09a2.602 2.602 0 001.82-.753 2.574 2.574 0 000-3.633 2.602 2.602 0 00-1.82-.753c-.69.001-1.34.271-1.83.753a2.627 2.627 0 00-.76 1.817c.01.681.28 1.334.76 1.816s1.14.753 1.82.753h.01zm7.8-4.09c.4.001.79.161 1.08.446a1.535 1.535 0 010 2.149c-.29.285-.68.445-1.08.446-.41-.001-.8-.161-1.08-.446a1.505 1.505 0 010-2.149c.28-.285.67-.445 1.08-.446zm0 4.09a2.584 2.584 0 002.58-2.569 2.584 2.584 0 00-4.41-1.817 2.574 2.574 0 000 3.633 2.6 2.6 0 001.83.753zm7.39-4.09c.4.001.79.161 1.08.446a1.535 1.535 0 010 2.149c-.29.285-.68.445-1.08.446a1.534 1.534 0 01-1.08-.446 1.505 1.505 0 010-2.149c.29-.285.67-.445 1.08-.446zm0 4.09c.68 0 1.34-.271 1.82-.753.49-.482.76-1.135.76-1.816 0-.682-.27-1.335-.76-1.817a2.584 2.584 0 00-3.65 0 2.574 2.574 0 000 3.633c.49.481 1.14.752 1.83.753z" fill="#062B57" fill-opacity=".47"/></svg>