<svg xmlns="http://www.w3.org/2000/svg" width="73" height="67"><path fill="#062b57" fill-opacity=".47" d="M63.826 4.873a4.672 4.672 0 014.666 4.666V41.49a4.673 4.673 0 01-4.666 4.666h-8.528a6.675 6.675 0 00-6.667 6.667v7.58c0 1.408-1.073 1.963-1.403 2.099-.324.135-1.479.504-2.474-.491L30.85 48.109a6.712 6.712 0 00-4.714-1.952h-17.1a4.673 4.673 0 01-4.668-4.666V9.539a4.673 4.673 0 014.668-4.666zm-22.18 60.246c1.293 1.29 2.954 1.968 4.672 1.968a6.76 6.76 0 002.593-.526c2.539-1.05 4.115-3.41 4.115-6.156v-7.581a2.275 2.275 0 012.272-2.273h8.528c4.996 0 9.06-4.064 9.06-9.06V9.539c0-4.996-4.064-9.06-9.06-9.06H9.036C4.04.479-.026 4.543-.026 9.539V41.49c0 4.996 4.066 9.06 9.062 9.06h17.1c.6 0 1.187.242 1.608.665L41.646 65.12z"/><path fill="#062b57" fill-opacity=".47" d="M20.16 22.618a3.187 3.187 0 013.182 3.183 3.187 3.187 0 01-3.183 3.183 3.188 3.188 0 01-3.185-3.183 3.188 3.188 0 013.185-3.183zm0 8.563a5.386 5.386 0 005.38-5.38 5.386 5.386 0 00-5.38-5.38 5.387 5.387 0 00-5.383 5.38 5.387 5.387 0 005.382 5.38zm16.271-7.707a3.189 3.189 0 013.185 3.183 3.189 3.189 0 01-3.185 3.183 3.187 3.187 0 01-3.183-3.183 3.187 3.187 0 013.183-3.183zm0 8.563a5.385 5.385 0 005.38-5.38 5.385 5.385 0 00-5.38-5.38 5.385 5.385 0 00-5.38 5.38 5.385 5.385 0 005.38 5.38zm15.414-8.563a3.188 3.188 0 013.185 3.183 3.188 3.188 0 01-3.185 3.183 3.187 3.187 0 01-3.183-3.183 3.187 3.187 0 013.183-3.183zm0 8.563a5.387 5.387 0 005.382-5.38 5.387 5.387 0 00-5.382-5.38 5.386 5.386 0 00-5.38 5.38 5.386 5.386 0 005.38 5.38z"/></svg>